<svg height="64" viewBox="0 0 64 64" width="64" xmlns="http://www.w3.org/2000/svg"><path d="m31.33 26.82a10.39 10.39 0 0 1 -2.16-1.25c-.46-.29-1.25-.67-1.46-.46s0 .75 1.08 1.34 1.21 1.55 3.42 1.37 4.62-.79 4-1.42-3.88.8-4.88.42zm9.21-1.82c-.43.2.83.79 1.83 1.58a4.82 4.82 0 0 1 1.59 3c0 .62-.34 2.17 0 2.29s1.08-1.29.83-2.79-2.21-5.08-4.25-4.08zm7.79 3.29c-.91-3.67-3.25-7.17-6-7.79a19.75 19.75 0 0 0 -6.79.2s1.79-2.7 1.83-3.7.75-1-.62-1.29-2.13-.84-2.54-.3a19.07 19.07 0 0 0 -2.29 3.67c-.3 1-.17 2-.59 1.13a17.61 17.61 0 0 0 -2.33-3.43c-.79-.83-2.75-.29-1.75.37s2.83 2.21 3.13 3.13.45 1.58-.17 1.87a5.12 5.12 0 0 1 -3.5-.62 5.68 5.68 0 0 1 -2-3.17 12.71 12.71 0 0 0 -.63-3c-.29-.37-.29-.79 0-.92a11.78 11.78 0 0 1 4.38 0 3.52 3.52 0 0 1 2.66 2.13c.23.54 0 1.33.55 1.29s1.2-.5.37-2a5.45 5.45 0 0 0 -5.04-2.86c-2.71 0-2.34.33-3.34-.13s-1.95-.83-2.37-.12.33.66 1.08 1.54a11.64 11.64 0 0 1 1.42 4.46c0 .58.12.87-.13.91a10.44 10.44 0 0 0 -5 2.75c-1.71 2-2.83 6.21-3.12 9.54a23.47 23.47 0 0 0 3 13.5c2.83 4.84 5.33 6.25 7.87 6.3s5.17-.46 6.17-1.13 1.87-1.5 2.29-1.17 3.79 2.09 5.42 1.34 5.12-4.88 6.37-8.79 2.59-10.1 1.67-13.76zm-1.79 8.33c-.71 5.21-4.21 10.46-6.46 12s-4.91-.83-6.29-1.5-3.5.12-4.58.54-.88 1.67-.67 2.21-.75.29-1.83.17-4.13-1-7-5.46-2.88-10.88-1.71-16.34 4.92-6.92 5.88-7 3.47 1.45 4.16 2.08c1 .92 2.88-.16 3 .38s-.25 1.3 1.46 1.66 2.33-2 2.46-2.54 1.37-.29 3-.71 3.7-.75 6.5 1.71 2.79 7.54 2.08 12.75z" fill="#1d1d1b"/></svg>