<svg height="64" viewBox="0 0 64 64" width="64" xmlns="http://www.w3.org/2000/svg"><path d="m54.53 27.19a10 10 0 0 0 -.89-1.59l.69-3.6c.26-1.36.89-2.16.58-2.54a2.8 2.8 0 0 0 -1.13-.72c-.23-.06-1.18.29-1.41.14s-1.5-.31-1.5.06a39 39 0 0 1 -.72 3.87c-.23.89-.35 1.87-1.16 2.1s-2.56 1.88-4.38 3-9.26 3.49-13.21 3.92a27.59 27.59 0 0 1 -11.4-1.03 19.12 19.12 0 0 1 -7.18-3.64 2.82 2.82 0 0 0 -1.82-.23 2.1 2.1 0 0 0 -1.44 1.3 6.7 6.7 0 0 1 -.56 1.24 1 1 0 0 0 .23 1.09 11.8 11.8 0 0 1 .77 2.23c.09.25 1.88 5.07 6 7.58s6.75 4.33 12.29 4.76a53.88 53.88 0 0 0 11.71-.46c3.23-.32 7.18-1.76 9.49-4.16s5.25-5.19 5.48-7.9.14-4.24-.44-5.42zm-4.35 11c-1.79 2.36-5.34 3.86-7.41 4.58a40.85 40.85 0 0 1 -11.14 1.23 29.44 29.44 0 0 1 -14-4.15c-4.24-2.54-6.46-7.76-6.72-8.51a1 1 0 0 1 .89-1.32c.49-.12 1.73 1.18 3.84 2.48s5 2.13 9.6 3a43 43 0 0 0 10.76.2c.23 0 1.09-.12.78-.46s-1.53.14-3 .2-3.46-.17-5.19-.29a66.65 66.65 0 0 1 -9.4-1.67c-2.51-.72-6.37-3.55-6.83-3.81s.37-1.39.69-1.1c2.22 2.05 7.67 3.61 11.48 4.42s7.64 0 14.48-1.68 8.73-4.47 9-4.78a6.72 6.72 0 0 1 2.37-.81c.63-.12 1.55-3 1.67-3.69s.84.14 1.18.55-.6 2.19-.81 2.85.58.89 1 1.67a12.09 12.09 0 0 1 .46 4.36c.05 1.9-1.88 4.38-3.7 6.75zm.82-9.13a20.25 20.25 0 0 1 -3.34 3 37.32 37.32 0 0 1 -5.22 2.45c-1.59.55-3.07.86-2.89 1.24.38.78 4.79-1.18 6.87-2.13a10.61 10.61 0 0 0 4.41-3.06c1.1-1.38 2.1-2.62 1.61-3s-.79.73-1.44 1.5z" fill="#1d1d1b"/></svg>