<svg height="64" viewBox="0 0 64 64" width="64" xmlns="http://www.w3.org/2000/svg"><path d="m47.32 34.12c-.87-1.25-4.44-2.25-4.44-2.25s.07-.81.07-1.62a10.63 10.63 0 0 0 -2.25-4.75c-1.5-2.07-6.07-2.69-6.07-2.69a24.68 24.68 0 0 1 0-3.06c.13-.94-1.43-1.44-1.43-1.44l.06-1.81a1.24 1.24 0 0 0 .69-.82 5.43 5.43 0 0 0 -.07-3.62 17.08 17.08 0 0 0 -1.62-3.06c-.25 1.31-2 1.68-2.56 3.87s.87 2.75 1.06 3.31a8.78 8.78 0 0 1 .12 2.07c-1.5.06-.81 5.12-.81 5.12-8.12.19-6.75 8.06-8.44 8.13s-4.75 1.12-5.63 5.87 3.69 6.69 4.5 7.38.69 5.37 1.62 7.87 3 2.25 5.69 2.25 9.19.25 10.81.06 2.44-1.56 3.13-3.81 1.56-7.06 1.56-7.06a4.13 4.13 0 0 0 1.5-.56 8.11 8.11 0 0 0 2.69-3.32 7 7 0 0 0 -.18-6.06zm-15.14-13.92c.41 0 .91-.08.91.38v2.71c0 .83.25 5.62 0 5.62s-1 .75-1.08-.71-.21-7.2-.21-7.2c0-.38-.04-.8.38-.8zm7.87 29.92c-.37.79-.71 2.25-1.62 2.5a50.52 50.52 0 0 1 -7.5.63 25.69 25.69 0 0 1 -5.75-.59c-.71-.25-1.05-.87-1.34-1.91s-.58-3.17-.58-3.17c-.17-.75-1-2.58-.46-2.67a7.29 7.29 0 0 0 2.75-1.12c1-.71 1.25-.88 1.38-.79s3.79 2.2 5.37 2.29a8.3 8.3 0 0 0 5.92-2.29s1.16.58 1.66.79 1.71.25 1.59.91a49.51 49.51 0 0 1 -1.42 5.42zm6.21-13.19c-.56 2.63-1.81 4.88-3.38 5a8.46 8.46 0 0 1 -3.81-.81 2.42 2.42 0 0 0 -2.44.25c-.81.5-1.81 2.5-4.75 1.5s-3.43-2.25-4.43-2.06-3 1.94-5.25 1.94a4.6 4.6 0 0 1 -4.2-5.5c.69-3 2.87-4.19 3.94-3.88s2 1.06 2.06-.25a13.89 13.89 0 0 1 2.25-6.25c1.31-1.62 3.37-2.12 4.12-1.31 0 0-.56 4.75.32 4.75s1.93.37 2.81.31 2 .56 1.94-1.12-.5-4-.13-4.25 2.69.06 4 1.75 2.19 3.68 1.94 4.93-.5 1.75.62 1.94 4.95.44 4.39 3.06zm-20 8.19c-.7.28-.59.79-.29 1.42s.66 3.21 1.12 3.33 1.75.13 1.21-1.42-1.25-3.66-2.08-3.33zm6.29 1.33c-.49-.24-1 .63-.92 1.75s0 2 .63 2 .54-.38.79-1.8-.05-1.7-.54-1.95zm4.92-.83c-.38.88-1.55 4.67-.67 5.08s1.17-1.37 1.83-2.91.71-2.5.25-2.84c-.32-.2-1.08-.2-1.45.67z" fill="#1d1d1b"/></svg>