<svg height="64" viewBox="0 0 64 64" width="64" xmlns="http://www.w3.org/2000/svg"><path d="m58.57 28.89c-1.41-5.29-6.3-6.81-10.69-7.71s-8.22 1.52-8.56 1.18a14.54 14.54 0 0 0 -8.72-2.81c-5 0-9.07 4.27-9.07 4.27a7.45 7.45 0 0 0 -2.47-.61c-2.26-.4-6.7 1.12-10.25 3.71s-5.12 7.26-3.09 11.15 6 5.69 9.28 6.3c1.8.34 16.33-.45 22-.56s15 .5 18.52-1.64 4.48-7.99 3.05-13.28zm-1.84 8.59c-.76 1.63-1.91 3.49-3.34 4a24.5 24.5 0 0 1 -6.39.62 84 84 0 0 1 -8.66-.1c-2.32-.23-3.07.19-5.14.37s-11.82.49-16 .38-7.1-1.16-8.75-3.6-1.69-3.79-1.63-5a9.13 9.13 0 0 1 2.65-5.41c1-.79 3.49-2.79 6.15-3.28s5.18-.23 6.31.49a20 20 0 0 1 3.64 2.92c.63.79 1.12.75 1.61.19s.15-.94-.45-1.61a14.13 14.13 0 0 0 -3.45-2.67s1.18-1.89 4.72-2.78 6.6-.64 8.86 1a14.4 14.4 0 0 1 3.94 3.79c.37.75.75 1.31 1.5 1a1 1 0 0 0 .32-1.79c-.64-.75-1.72-1.92-1.31-2.14a13.59 13.59 0 0 1 7.09-.75c3 .67 5.3 3.54 8.18 5.4 2.28 1.49 1.47 6.16.15 8.97zm-43.34-8.33a.73.73 0 0 0 .49 1.24c.6-.11 1.2-.52 1-.94a.92.92 0 0 0 -1.49-.3zm3.6 2c-.49.41-.45 1.16 0 1s.87-.56.83-.79a.45.45 0 0 0 -.82-.18zm.71-3.94c-.6.67.38 1.5.94 1.35s.6-.41.49-.79-1.05-.95-1.43-.53zm3.57 3.6c-.56-.22-.76-.37-1 0-.37.71 0 1.09.64.82s.92-.56.36-.79zm6.19-7.13a.7.7 0 0 0 .68 1.09c.71 0 .67-.34.67-.68s-1.03-.9-1.35-.38zm5-.56c-1 .79-.07 1.24.71.82s-.29-1.09-.68-.79zm-1 2.78c-.42-.12-1.43.18-.9.75s.78.82 1.46.37.07-.93-.54-1.09zm4.8.78c-.49 0-1 .3-.68.64s.57.53 1.06.15-.06-.76-.36-.76zm10.74-1.84c-.49 0-1 .79-.38 1s1.31.19 1.2-.26-.34-.74-.82-.74zm4.16 2.4c.49.22 1 .19.94-.19s-.36-.85-.86-.67-.59.62-.1.86zm-4.32.45c-.86-.11-1.12.34-.78.75a.79.79 0 0 0 1.16.26c.43-.3.13-.94-.4-1.01zm4.7 1c-.45 0-1.06.48-.6.75a.79.79 0 0 0 1.06-.17c.38-.38-.15-.58-.48-.6zm3.3.3c-.56.11-.87.41-.45.63s.41.38.82.12.23-.9-.39-.74z" fill="#1d1d1b"/></svg>