<svg height="64" viewBox="0 0 64 64" width="64" xmlns="http://www.w3.org/2000/svg"><path d="m51.48 28.59c-.34-.25-.38 0 .16-1.21a10.14 10.14 0 0 0 -.16-5.75 8.88 8.88 0 0 0 -6.84-6.12 7.78 7.78 0 0 0 -7.08 2.37c-.25 0-.58-1.21-1.42-2.75s-3-2.67-4.75-3.17a15.09 15.09 0 0 0 -7.91.46c-2.84 1-4.84 3.75-5.88 5.46s-.38 3.63-.79 3.67c-2.17.21-5.46 3.66-6.5 6.33s-1.25 7.17 1 9.67 7.69 3.75 7.69 3.75a8 8 0 0 0 -.5 1.91c-.25 1.42-.09 3.59 2.25 5.84s7.58 3.75 11.41 3.21 8.25-5.71 8.25-5.71c4.63 1.21 12.34 0 13.71-7s-2.31-10.71-2.64-10.96zm.45 12c-1.87 3.33-4.62 4.58-7.62 4.37s-3.46-.25-3.92-.71-2.54-2.29-2.79-2.41.25 1 .38 1.62a4.17 4.17 0 0 1 -1.55 4.17c-1.91 1.5-3.75 3.25-8.7 2.5s-6.73-3.25-7.09-4.87a5.33 5.33 0 0 1 1.42-5.42c1.83-1.71 2.67-2.29 2.54-2.75s-2 1-3.79 1.62-6.67-.16-8.17-2.7a9.34 9.34 0 0 1 .36-9.01c1.62-2.62 3.75-3.83 5.33-3.95s2.42.91 2.88.37-1.55-1.71-2.55-1.62c0 0 .21-3.84 2.55-5.84a11.8 11.8 0 0 1 6.5-2.37c1-.13 4.75-.17 6.37 2.29s2 3.17 1.83 4.25-.41 1.67.46 1.92.92-.17 1-.67a4.66 4.66 0 0 1 2.08-2.88c1.42-.87 4.63-2.33 7-.2s3.13 3.41 3.46 5.41-.31 4.55-1.27 4.29a15.72 15.72 0 0 0 -4.71-.3c-2.29.13-3.62 1.3-2.91 1.63s1.87-.58 4-.58 5.16.66 6 2.83 2.79 5.63.91 8.97zm-24.25-11.21c.71-.42-.2-1.46-1.2-2.58s-2.39-2.45-3-2.09.5 1.09 1.79 2.59 1.73 2.5 2.41 2.08zm-.83 7.17c1.13.41 1.83-.71 2.58-.92s1-.21.84-.83-1.75-.46-2.63.16-1.07 1.48-.79 1.59zm9.5-7.55c.63-.2.46-.62.25-1.16a3.36 3.36 0 0 1 .29-2.46c.46-1 .83-1.59.46-1.92-.71-.62-1.67 1.67-2 3.21s.38 2.5 1 2.33zm-.42 4.3c-1-.3-.91 2.12-.33 3.75s1.63 2.08 2 2-.33-1.71-.83-3.09-.51-2.61-.84-2.7zm-8.33-13.67c.54-.29.79-.92.46-1.29s-.93-.77-1.38-.38a1.47 1.47 0 0 0 -.25 1.38.84.84 0 0 0 1.17.29zm-3 1c.54 0 .38-.87.25-1.17a.72.72 0 0 0 -1.29-.08c-.56.79.5 1.25 1.04 1.25zm6.88-.37c.5-.38.25-.91-.17-.88a.77.77 0 0 0 -.79.83c.04.25.48.42.96.05zm-3.84 2.87c.34.25.75 0 1-.42s-.33-.84-.71-.79c-.87.13-.62.96-.29 1.21zm-7.79 4.79c.54-.29.58-1.1 0-1.21s-1.17.3-1.08.67a.79.79 0 0 0 1.08.54zm-3.67 2.25c-.83-.08-1.12.38-1.58 1.13s1 1 1.71.46.43-1.53-.13-1.59zm3.38-.79a1 1 0 0 0 -1.17 1.21 1 1 0 0 0 1.54.29.85.85 0 0 0 -.37-1.5zm-.5 4a.77.77 0 0 0 -.83 1.13c.29.5.75.58 1.33.16s.04-1.23-.5-1.29zm4-2c-.79 0-1 .54-1.25 1.25s1 .83 1.67.25a.86.86 0 0 0 -.42-1.54zm4.87 10.83c.25-.62-.51-1.16-.95-1a.87.87 0 0 0 -.21 1.46.73.73 0 0 0 1.16-.5zm3-1.16c-1 0-1.46.7-.75 1.25s.88.75 1.42.08-.25-1.38-.71-1.38zm-2.54 4.33c-.83.17-1.08 1.08-.58 1.37a1.33 1.33 0 0 0 1.71-.16c.41-.59-.72-1.34-1.17-1.25zm3.71-.63c-.58.17-.83.59-.5 1s.42.38 1.12-.12-.18-1.05-.66-.92zm10.71-11.66c-.88.25-1 .71-.58 1.21s.7.41 1.2-.13-.18-1.17-.62-1.08zm4.54-.79c.5-.59-.33-1.06-.75-1-1 0-1.12 1-.71 1.33s.96.25 1.46-.33zm-4.54 5c-.88.16-1.46.87-.67 1.2s1.13.3 1.38-.25-.38-1.06-.71-.99zm3.87-2.75c-.66 0-1 .58-.45 1.08s.7.21 1.25-.33-.21-.79-.8-.79zm2.63 1.91c-.46.13-1 .46-.58 1.17s.83.42 1.5-.13-.67-1.15-.92-1.08zm-3.67 2.54c-.58.08-1 .58-.62 1s.75.29 1.12-.17-.21-.83-.5-.83zm-3-15.67c.55-.58-.08-1.33-1-1.08s-1.21 1.33-.62 1.5a1.48 1.48 0 0 0 1.66-.41zm1.59.92a1.35 1.35 0 0 0 1.62-.5c.29-.46-.35-1.06-.91-.92-.8.22-1.38 1.17-.67 1.43zm4.29.7c.54-.41-.45-1.13-.88-.95s-1 .7-.5 1.08.86.3 1.42-.08z" fill="#1d1d1b"/></svg>