<svg height="64" viewBox="0 0 64 64" width="64" xmlns="http://www.w3.org/2000/svg"><path d="m52.28 17.2a26 26 0 0 0 -3.06-1.94s.31-.5.75-1.25.44-1-.81-1.56-3.88-1.38-4.69-1.69-1.75 1.25-2.06 1.5 0-.44.18-.88-.5-.56-1.18-.62a24.9 24.9 0 0 0 -3.25.19c-1.63.12-1.88 1-2.19 2s-2.44 6.81-2.69 7.12-1.94 0-4.44 1.31-5.56 4.38-8.93 9.82-7.19 15.87-8 18.18-.59 2.95-.07 3.19a9.18 9.18 0 0 0 5.75.44c2-.56 8.32-6.44 12.69-9.44s7.72-3.57 11.19-6.81 1.81-8.81 1.81-9.13 1.38-1.5 2.19-2.56a84.81 84.81 0 0 1 6.31-5.69c.69-.56 1.22-1.56.5-2.18zm-12.5 18.87c-2.62 1.93-7.78 3.75-10.06 5.31s-6.13 4.62-8.63 6.75-4.81 3.75-6.68 3.25c-.25-.06-1.57 0-1.19-1.25s4.37-9.93 6.56-14.68a34.16 34.16 0 0 1 7.22-10.45c2-1.75 5.25-3.69 7.31-3.19s5.35 2.07 6.69 5.19 1.41 7.13-1.22 9.07zm10.06-17.31a37.27 37.27 0 0 1 -3.62 3.31c-1.75 1.31-3.56 3.81-3.81 3.06s-2.44-2.68-3.5-3.5-3.63-1.06-3.38-1.81 1.44-4.19 1.81-5.25.07-1.37 1-1.56 2-.19 1.82.44-1.63 4.12-1 4.56 1.25.75 1.93-.5a45.49 45.49 0 0 1 2.82-4.06c.25-.32.43-.88 1.18-.57s2.88.94 2.44 1.5-.94.94-.81 1.38-.38 1.12-.38 1.12-3.12 3-3.75 3.44a1 1 0 0 0 -.37 1.44c.25.31 1-.13 1.69-.75s2.81-2.13 3.43-2.81 1.38-1.44 1.88-.82 1.19.88.62 1.38zm-30.45 20.24c0 .46.66.37 1.54 1s1.58 1.83 2 1.58-.21-1.12-1.21-2.12-2.38-.9-2.33-.46zm6.37-6.42c-1-.71-2.46-.82-2.42-.37.09.87 1.09.71 2 1.37s1.67 1.46 2.13 1.17-.67-1.43-1.71-2.14zm4.24-4.68c-1-.79-2.73-1.55-2.79-.91-.09.79 1.29 1.08 2.16 1.54s1.88 2.42 2.46 2-.83-1.83-1.83-2.63zm3.64-3.9c-.42-.33-1-.67-1.38-.33-.67.66.71.91 1.63 2s1.41 2.23 2.11 1.9-1.95-3.21-2.36-3.57z" fill="#1d1d1b"/></svg>