<svg height="64" viewBox="0 0 64 64" width="64" xmlns="http://www.w3.org/2000/svg"><path d="m26.32 33.26c-.54.08-.67.88-1 .84s-1 .16-1.46 1.29-.17 2 1 2a3.12 3.12 0 0 0 2.79-1.75c.35-.92.42-2.64-1.33-2.38zm.21 2.5c-.5.55-.79.88-1.38.71s-.41-1-.08-1.33a2.42 2.42 0 0 1 1.17-.75c.45-.08.76.83.29 1.37zm2.71 1.8c-.63.34-1.75 2.91-1 3.91s2.17.88 3.42 0 2.08-3.37 1.54-4.21-2.3-.62-3.96.3zm3 1.79c-.13.75-.88 1.21-1.84 1.83s-1.33-.42-1.37-1 .54-1.67 1.17-1.75a1.89 1.89 0 0 0 1-.29c.8-.46 1.2.46 1.08 1.21zm-2.71-14.42c1.12 0 2.87-1.29 3.62-2s.29-2.63-2.33-1.79a5.62 5.62 0 0 0 -2.58 2.16c-.46.84.16 1.63 1.29 1.63zm.41-2c.3-.37.83 0 1.09-.17 1-.62.83.17.16.59s-.58.66-1.33.58-.21-.62.08-1zm5.06 3.33a2.88 2.88 0 0 0 -1.92 2.5c-.21 1.63.21 2.3 1.08 2.84a3 3 0 0 0 3.33-.6c1-.91 1.79-2.33 1.37-3.54s-2.5-1.53-3.86-1.2zm2.37 3.21a2.71 2.71 0 0 1 -2.29 1.21c-.83 0-1.08-.67-.88-2s.67-1.5 1.42-1.58a7.14 7.14 0 0 1 1.54.29 1.35 1.35 0 0 1 .2 2.08zm3.54 2.46a2.28 2.28 0 0 0 -1.08 2.71c.5 1.21 1.12 1.58 2.54 1.21s2.21-1.21 2.25-2.17-.72-2.83-3.72-1.75zm1.63 2.5c-.63.25-.79.25-1.38-.29s.51-1.46 1-1.46a2.22 2.22 0 0 1 1.17.29c.36.25-.18 1.21-.8 1.46zm5.18-4.77c-1.12-3.75-1.37-4.81-1.75-5.12s-.93-.07-1.75.62-1.07-.16-1.57-1.16.94-1.31 2.25-1.81.19-2.81-.12-3.94-.13-1.56-2.13-2.31a52.14 52.14 0 0 0 -9.81-1.81c-1.44 0-2.75 1.19-4.44 3.19s-4.69 5.12-5.56 6.06-.06 1.5.25 2.12.5 1.5-.56 2.82-2.44.06-3.25-.38-2.13 1.19-3.19 2.75c0 0-.75 1.13-1.38 2s1.69 6.03 2.29 6.66.75.5 2.19-.19 1.44-1 2.5.38-.75 2.37-1.75 3 .63 4.81 1.69 6.56 3.25.31 6.06-1.19 5.81-3.19 7.06-3.94.44-1.56.94-2.62 2-.69 2.5-.13 1.63-.12 5.13-2.25 4.77-2.81 5.68-3.37-.16-2.19-1.29-5.94zm-1.06 5.5c-1.19.69-3.5 2-4.87 2.75s-2.19 1.31-2.94 1.19a4.28 4.28 0 0 0 -3.5.37c-1.44.94-1.25 2.94-2.19 3.44s-5.56 2.69-7.5 3.56-2.75 1.19-3.12.32-1.2-2.79-.64-3.32 2.38-2.12 1.75-4.12a3.24 3.24 0 0 0 -4.19-2c-.84.29-1.12.44-1.56-.38s-1.9-2.97-1.12-3.97 2.06-3.5 2.75-3.07a4.06 4.06 0 0 0 3.62-.06c1.19-.69 2.31-2.25 2.06-3.56s-.56-2.19-.12-2.63 3.5-3.43 4.81-4.87 1.44-2.94 3.63-2.69a55.73 55.73 0 0 1 8 1.56c.75.38 1.18.5 1.18 1.19s.88 1.38.38 1.75-1.81.88-2.06 2.19-.19 2.81.81 3.5a4 4 0 0 0 2.37.94c.38-.13.75-.32.94.18s1.06 3.75 1.56 5.13 1.13 1.91-.06 2.6zm-11.38-11.35c-2.59 2-6.79 4.7-8.59 6a28.93 28.93 0 0 1 -6.7 3c-1.67.54-1.8 1.16-1.59 1.5s.86-.34 1.92-.55c2.21-.41 6.17-2.87 9.58-5a77.56 77.56 0 0 0 7.59-5.58c2.16-1.67 2.2-1.62 1.87-2s-1.5.63-4.08 2.63z" fill="#1d1d1b"/></svg>