<svg height="64" viewBox="0 0 64 64" width="64" xmlns="http://www.w3.org/2000/svg"><path d="m56.23 19.19c-.19-1.5-4.69-.82-11.25-1.13s-32.38.19-34.5.25 1.3 5.71.87 5.56-4.12.19-3.62 2.75 5.87 1.94 6.37 2 1.13 2.32 2.81 4.75 6.75 4.63 6.75 4.63-1.66 3.81-2.18 5.56 1.25 1.88 5.25 2.25 10.62.19 13.12.13 4.94-.94 4.94-1.75a30.49 30.49 0 0 0 -2.56-6.38c-.44-.5 1.56-1 4.93-3.56s4-4.88 4-4.88 1.19.38 3.32-1.37-.63-2.88-1.38-3 1.13-2.5 1.13-2.5l1.12-.44c1.13-.44 1.06-1.37.88-2.87zm-44.32 7.56c-.62 0-1.87.06-1.75-.69s2-.62 2-.62c.69 1.06.38 1.31-.25 1.31zm30.48 15.85c.63 1.34-1.83 1.59-6.91 1.42a93.61 93.61 0 0 1 -11.34-.87c-1-.3.92-3.8 1.17-4.17a1 1 0 0 1 1.21-.25 40.34 40.34 0 0 1 5.12.08 51.82 51.82 0 0 0 8.36-.37c.81-.09 1.77 2.83 2.39 4.16zm10.67-21c-.37.55-1.42 1.67-1.67 2.13s-.66 1.17-.66 1.17-.88-.17-1.17.33-.54.71.21.92 2.62.29 2.92.41-.3.75-.63.84-2.42-.21-3.92-.3-2.54.25-2.5 1 .13.92 1.21.88 2.25-.09 2.25.21a11.75 11.75 0 0 1 -3.66 4 19.35 19.35 0 0 1 -11.84 3.71c-6.12-.09-8.87-.5-12.33-2.84s-5.46-5.41-4.33-5.46 1.54-.41 1.62-1.2-1.21-1.25-3.62-1.09c-.38 0-1.34-2.87-1.55-3.37s-1-2-.37-1.92 35.46.13 37.42.08 3-.04 2.62.5zm-32 2.75c-.58-.05-.42.88 0 1s.84-.16.79-.41-.33-.54-.79-.59zm3.42 3.42c.25-.29-.25-1.12-.88-1.17a.84.84 0 0 0 -.71 1.4c.67.69 1.34.06 1.59-.23zm-.88 2.08c-.42-.07-.91.55-.41 1.38s1.08.42 1.5-.17-.42-1.06-1.09-1.21zm3.17-3.33c.46-.33.62-1.17-.54-1.54-.52-.17-1.13.67-.67 1.29s.75.58 1.21.25zm.23 3.33c.5-.58.37-1.37-.63-1.66-.49-.15-1.58.41-1 1.29s1.15.96 1.63.37zm-.46 1.84c-.72-.22-.83.37-.5 1s1 .66 1.29.16-.33-1.04-.77-1.16zm2.42-2c-.63 0-1.17.54-.79 1s1.16.79 1.5.33a.89.89 0 0 0 -.67-1.37zm.54-1.42a.89.89 0 0 0 -.58-1.5c-.42 0-1.13.46-.75 1s.89.79 1.35.46zm2.83-2.71c0-.54 0-.83-.87-.83-.35 0-.71 1-.17 1.33a.63.63 0 0 0 1.06-.54zm1.42.29c-.36-.11-1.29.38-.71 1s1.33.34 1.42-.25-.02-.6-.69-.79zm1.33-.91c.17-.34.59-.46-.25-.75-.43-.16-1.33.25-.79.75s.9.29 1.06-.04zm1 2c-.12-.63 0-.5-.54-.54s-1.08.41-.5.75 1.23.41 1.1-.21zm-2.62 1c-.29-.16-1 .5-.5.75s.83.08.92-.25.01-.25-.36-.44zm-.79 2.83c.08-.33-.25-.21-.63-.33s-.83.54-.16.71.76 0 .85-.34zm.33 1.83c0-.41.16-.29-.29-.45s-1.42.2-.71.66.94.19 1-.21zm-2.79.92c-.42 0-.88.54-.38.88s.92.25 1.13-.17-.23-.71-.77-.71zm2.79 1.13a.4.4 0 0 0 -.09.79c.5.12 1.13 0 .88-.5s-.4-.34-.79-.29zm4-3c.21-.45-.54-.83-1.25-.87-.36 0-1 1.37.08 1.62s.94-.34 1.17-.8zm.29-3.45c-.55 0-1 1.2-.08 1.37s1.29-.08 1.2-.79-.27-.68-1.14-.63zm3.08 3.33a.81.81 0 0 0 -1.08-1c-.65.19-1.13 1-.5 1.54s1.35-.07 1.56-.59zm-3.12 1.83c-.39 0-1 .21-.17.88s.88.08 1.08-.38-.39-.51-.93-.55zm2.79.17c-.54 0-.92.71-.38.79s1-.37.92-.62.02-.26-.58-.22zm1.87-2.38c-.46-.07-1.54.84-.62 1.3s1.46.16 1.75-.38-.65-.88-1.15-.97zm-1.37-2.33c-.25.06-.71.25-.25.63s.71.5 1 .2-.29-1-.77-.88zm.54-1.87c.75.37 1.13 0 1-.34s-.5-.29-.71-.37-1.06.28-.31.66zm3.21-1.38c-.37 0-1 .29-.63.67s.67.37 1 0 .34-.64-.39-.72z" fill="#1d1d1b"/></svg>