<svg height="64" viewBox="0 0 64 64" width="64" xmlns="http://www.w3.org/2000/svg"><path d="m33.48 41.32c.18 0 .08-1.78 0-4.43s0-5.2 0-5.52-.35.1-.57.1.13 2 .25 4.08.15 5.77.32 5.77zm1-2.45a12.94 12.94 0 0 0 .3-3.29 43.8 43.8 0 0 1 .22-4.46c.15-.71-.24-.77-.52-.64s-.1 3.17-.22 5.47.02 2.92.19 2.92zm8.86-1.17c-.48 0-.67.18-.35 1.09a14.48 14.48 0 0 1 .3 4.26c-.08 1.36-.32 2.3.1 2.4s.64.67.81-1.51a38.75 38.75 0 0 0 .08-4.65c-.06-.97-.28-1.59-.97-1.59zm8.63 3.86a2.22 2.22 0 0 0 1-2.84 3.62 3.62 0 0 0 -3.26-1.93 3.48 3.48 0 0 0 -2.95 2c-.25 1 .59 1.53 1.76 2.23s2.61.98 3.42.54zm-3-3.09c.54-.39 1 0 1.51.18.72.19 1.53 1 1.16 1.53s-1.73 0-2.23-.45-1.06-.86-.51-1.26zm1.73 4.26c-1-.06-2.6.37-3 1.36s.3 1.73.92 2.37a4.9 4.9 0 0 0 3.34.87c.86-.15 2.37-1.44 1.9-2.75s-2.44-1.8-3.23-1.85zm1.56 2.92c-.32.39-1.34.15-1.86 0s-1.38-.6-1.18-1a1.22 1.22 0 0 1 1.28-.44s1 .47 1.54.62.47.42.15.82zm5.74-1c-.64-2-2.08-5.79-2.28-7s-.59-2.28-1.43-2.37-4.55-.15-7.87-.2l-7-.1c-.2 0 0-2.38 0-2.82s.65-.6.89-.69.89-.25 2-1.84-.69-2.77-.84-2.87.35-.74.65-1.78-.5-2-1.19-2.82a8.18 8.18 0 0 0 -3.47-1.68c-.34 0 1-2 2.73-4.7s3.06-4.36 3.26-5-2-1.63-2.57-1.68-1.44 1.48-2.62 3.81-4 6.78-4 6.78l-4.19-.69a41.19 41.19 0 0 0 -7.52.4 23 23 0 0 0 -6.88 1.73c-1.49.69-1.19 2.57-.94 3.17a10.39 10.39 0 0 1 .39 2.08s-.19.05-.94.34a2.83 2.83 0 0 0 -1.58 2.87c0 1.74 2.57 2.38 2.57 2.38l.1 3.07a6.24 6.24 0 0 0 -2.52.1c-1.09.34-2 2.77-3 4.8a37.23 37.23 0 0 1 -3.93 5.46 2.78 2.78 0 0 0 -.4 2 31.2 31.2 0 0 1 .15 4c-.05 1.09 1.14 1 3.76 1.48a21.68 21.68 0 0 0 5.55.3c2.17 0 3 .2 9.5.64s15.44.89 21.08.89 10.39.29 11.54.19 1.24-.94 1.24-1.68.39-2.33.39-3.32a18.6 18.6 0 0 0 -.7-5.29zm-43.1-14.2c-.4 0-.7-.9-.8-1.44s.51-1.4.9-1.34.24.89.24 1.54-.02 1.15-.41 1.2zm24.05-7.8c1 .37 1.41.64 1.68 1.56s-.27 1.19-.94 1.58-.4.13-.35-.27 0-.74-.59-1.31a8.42 8.42 0 0 0 -2.87-1.26c-.4-.08.27-1 .57-1a9.57 9.57 0 0 1 2.43.66zm-2.16 3.86c.3-.42.39-.77.72-.84s.27.45.6.69 0 .37-.42.52a6.08 6.08 0 0 1 -1.12.32c-.36.01-.14-.31.15-.73zm-1.18.69c-.25.42-.32.3-.7.28s-.24-.2-.09-.55.64-1 1-1.63.53-.5.72-.5.45.38.08.94-.84 1-1.08 1.42zm.07-8.31c1.93-3.14 4.36-7.27 4.8-8.07s1.26-.12 1.54.1.09.5 0 .67l-1.24 2c-.64 1-3.76 5.71-5.64 8.53s-2.28 3.86-2.75 4.6 0 .62.37.62.2-.37.77-1.21 1.14-1.66 1.33-2 .45 0 .6.14a11 11 0 0 1 -1.24 2.55c-.42.74-.39.67-.84.7s-2.05.07-3.51.09a8.41 8.41 0 0 1 -2.06-.12c-.37-.05.13-.57.65-1.43s1.58-2.4 1.75-2.68.55-.11.75-.07-.47.86-1.22 2.15-1 1.76-.76 1.86.37-.4 1-1.29 1-1.56 1.43-2.13.62-.59.79-.49-.39.91-.62 1.21.08.27.28.42-.33.52-.6 1.16-.49 1-.22 1.12.54-.25.64-.45a12.84 12.84 0 0 1 .79-1.38.36.36 0 0 0 0-.5c-.09-.1-.29-.2-.14-.37s1.35-2.62 3.28-5.77zm-14.89 7.3c.32.07.76-.89 1-1.14s.49-.62.64-.62.1.25-.2.72a10.16 10.16 0 0 0 -.72 1.61c-.1.27-.17.15-.42 0a8.34 8.34 0 0 0 -1.28-.5c-.52-.17-.1-.44.14-.81s.43-.79.65-.82.1.5-.15.87-.06.58.27.65zm2.2-1.06c.47-.75.69-1.09.84-1.07s.17.4 0 .57a14 14 0 0 0 -.94 1.49c-.54.94-.32.84-.64.79s.2-1.08.67-1.82zm1.36-.13c.65-.81.87-1.19 1-1.19s.22.35.07.6-.47.89-1.06 1.88-.65 1-1.07.86.42-1.37 1.06-2.15zm1.31.13a14 14 0 0 0 .67-1.44 3.38 3.38 0 0 1 1 0c.29 0-.45.91-.94 1.95s-.7 1.11-.45 1.29.22-.08.77-.87 1.21-2 1.53-2.35.84-.22 1.17-.2-.25.45-.82 1.49-1.07 1.88-1.36 2.4-.35.24-1.14.12-1-.12-1.58-.17.66-1.3 1.15-2.26zm-7.77-3.13a36.82 36.82 0 0 1 5.75-1.28c2.47-.2 4.4-.2 6.13-.2s3.76.1 3.66.39-.49 1.83-.79 1.49a5.68 5.68 0 0 0 -2.82-.69 29.27 29.27 0 0 0 -6.88.69c-2.32.54-5.59 1.83-5.89 2.27-.19.29-.79-.79-.79-1.23s.94-1.35 1.63-1.44zm-1.58 4.53a23.7 23.7 0 0 0 6.34 2.1 41.66 41.66 0 0 0 9.6.45 44.05 44.05 0 0 0 5.27-.77c.44-.15.54-.2.52-.05s-.2 1.26.39 1.29 1-.05 1-.62-.33-1.26.14-1.29 1.17.08 1.37.42.19.82-.47 1.39-.45.82-1.51 1a13.1 13.1 0 0 0 -2.28.47c-.64.22-.54.59 0 .77s1.06.2 1.08.39 0 3.32-.12 4.66 0 3.51-1.34 4.3a16.06 16.06 0 0 1 -6.63 2.55 19.22 19.22 0 0 1 -6.38 0 16.93 16.93 0 0 1 -5.52-2.59c-.94-.67-1.48-.59-1.56-1.56s.05-11.41.05-11.41c0-.64-.17-1.66.05-1.51zm3.19 17.16c2.18 1.07 2.87 1.22 7.2 1.36a16.81 16.81 0 0 0 8-1.41 6.63 6.63 0 0 0 3.81-3.26c.22-.6.29-.77.64-.6s.2.37 0 1.12a4.35 4.35 0 0 1 -1.53 2.17 14.75 14.75 0 0 1 -5.76 2.43 35.81 35.81 0 0 1 -8.57-.12 31.72 31.72 0 0 1 -7.87-2.38c-1.66-.82-2-2.25-1.58-3s.9-1.09 1.14-1 0 1.41.14 2.2 2.21 1.43 4.38 2.49zm-9.45-1.95c1.51-2.18 2.8-4.73 3.27-5.25a1.57 1.57 0 0 1 1.58-.29c.32.09.17.42.15.94s-.1.22-.57.42-.63.27-1.09.47c-1.09.47-1.39 2.07-1.39 3.29s.82 3.73 2.1 4.45 7 2 8 2.23 1.56.17 1.56.27-.57.12-1.66.1-4.62-.35-8.26-.57a64.56 64.56 0 0 1 -6.63-.87c-.67-.02 1.43-3.01 2.94-5.19zm46.69 9.26a5.17 5.17 0 0 0 -.07 1.71c0 .3.2.52-.3.52s-2.37-.05-3.88 0-5.92.22-7.23.22-2.65-.22-6.61-.39-8.41-.23-14.32-.65-9.08-.41-10.2-.41-1.75 0-2.64-.08a21.15 21.15 0 0 1 -3.12-.54c-.36-.1-.89.12-1-.52s-.54-2.23 0-2.15 3.66.27 8.81.66 10 .3 13.48.6 9.43.34 12.5.44 5.84-.32 7.74.08a14.44 14.44 0 0 0 4.23.27c1.12-.07 2-.17 2.08-.17s.71-.19.53.41zm-.91-2.13a31.24 31.24 0 0 1 -5.83.13c-3.61-.15-5.81-.27-8.44-.27s-5.34.1-6.77.12-2.48-.12-2.18-.29 2-.27 3.21-.62 3.77-1.34 4.56-2.77a8.58 8.58 0 0 0 .62-4.64c-.17-.87-.45-2.26-2.2-2.28-.15 0 0-2 .32-2a36.91 36.91 0 0 0 4.33.25c2.1-.05 5.67 0 7.13 0s3.09-.12 3.46 1 1.48 4.62 2.2 6.8a19.45 19.45 0 0 1 .94 4.13c.03.24-.41.36-1.35.48z" fill="#1d1d1b"/></svg>