<svg height="64" viewBox="0 0 64 64" width="64" xmlns="http://www.w3.org/2000/svg"><path d="m52.52 43.63c-.86-.29-1-.26-1.36-1.58a3.45 3.45 0 0 1 1-3 2 2 0 0 0 .47-1.61c0-.86-1.54-3.87-4.44-10.75s-4.91-11.21-6.52-14.79-1.83-3.66-3.41-3.9a9.89 9.89 0 0 0 -4.51.4c-1.65.43-4.73 1.57-7 2.43s-5.38 2.08-6 2.47a24.08 24.08 0 0 1 -3.94 2 16.65 16.65 0 0 0 -4.51 2.61c-1.18 1-1.65 5.09-1.72 6.81a12.29 12.29 0 0 0 .86 4.05 64.9 64.9 0 0 0 3.79 7c1.44 2.4 2.26 4.08 4.34 8.13s5.55 10.71 6.59 11.82 3.94 0 6.73-.83a67.25 67.25 0 0 0 6.34-2.51 42.27 42.27 0 0 0 6.3-2.75c3.55-1.87 7.1-3.69 7.63-4.44s.22-1.28-.64-1.56zm-39.43-15.58a6.8 6.8 0 0 1 -.79-4.12c.18-2 .46-3.58.75-3.66a14.65 14.65 0 0 1 1.07 2.55c.36.86.58 1 .29 1.36a9.16 9.16 0 0 0 -1.11 2.65c-.18.82.11 1.57-.21 1.22zm3.29 4.62c-.11.93 0 2.07-.25 1.89a26.85 26.85 0 0 1 -1.4-2.36 1.73 1.73 0 0 1 -.28-1.36c.14-.22.43.11.57.39s.82.9 1.36-.1.32-1.8-.07-2.12-1.18-.07-1.51.22a5.53 5.53 0 0 1 .36-1.79c.36-.93.5-1.36.72-.93a32.25 32.25 0 0 1 1.54 3c0 .36 0 .5-.18.68a6.25 6.25 0 0 0 -.86 2.48zm8.92 16.15c-.29.43-.14 1.11-.25 1.54s-.25-.07-.61-.86-2.11-3.51-3.51-6-2.79-5.16-3.3-6.09a2.4 2.4 0 0 1 -.35-1.75c0-.43.32-2.69.46-3.4s.41-.83.5-.72a32.62 32.62 0 0 1 2.55 4.8c1 2.15 4.37 10.1 4.8 11s0 1.05-.29 1.48zm18.48-.18c-4.05 1.86-6.73 3.22-9.89 4.41s-5.94 2.47-6.16 1-.35-3.61-.35-3.61c0-.58 0-1.9 1-2.47s6.45-2.83 10.46-4.23 6.59-2.26 8.06-2.83 2.25-.9 2.32-.72-.43.76-1.11 1-10.88 4.51-11.89 4.98.15.25.5.07 6.34-2.29 8.6-3.19 4.08-1.5 4.15-1.32-2.86 1.32-4.9 2.43-6.06 3.19-6.49 3.33-.78.29-.64.36a31.12 31.12 0 0 0 3.8-1.47c1.43-.61 4.87-2.29 6-2.72a4.84 4.84 0 0 1 2.33-.5c.4.11.4.61-.36.9s-4.14 2.18-7.21 3.36-4.26 1.65-4.08 1.79 2.83-1 4.12-1.43 4.4-2.08 6.09-2.61 2.47-.65 2.54-.43-2.84 2.04-6.89 3.9zm6.77-10.71c-.72.36-6.45 2.19-11.53 4.12s-8.85 3.29-9.75 3.8-2.27 1.57-3.08-.25-3.36-8.67-4.65-10.89-2.94-5.48-4.16-8.1a41.29 41.29 0 0 1 -1.72-4.19c-.5-.93-1.75-3.47-1.32-3.87a74.42 74.42 0 0 1 8.06-4.26 88.11 88.11 0 0 1 9.17-3.58 21 21 0 0 1 5.8-1.25c.93 0 1.43-.33 3 3.54s5.41 11.89 7.45 16.73 3.45 7.84 2.73 8.2zm-10.07-23.1c-.85-1.72-2.07-2.62-2.86-2.54s-3.19.93-8.42 2.75a101.21 101.21 0 0 0 -10.13 3.96c-2.15 1-1.11 2.62-.5 4s2.36 5.26 2.36 5.26 1.22 2.69 2.11 4.59 3.44.14 9.39-2.22 10.57-3.98 11.64-4.63-.18-2.69-.93-4.62-1.8-4.83-2.66-6.55zm1.83 10.39c-1.22.71-3.9 1.43-10 3.79s-6.8 2.51-7.3 2.69-.86.11-1.29-.75-3.12-6.56-3.12-6.56c-.32-.82-1.47-3.26-.93-3.51a67.13 67.13 0 0 1 6.52-3c3.22-1.22 7.23-2.4 8.56-2.9s2.54-1.33 3.44-.83 1.61 3.08 3 6.06 2.34 4.29 1.12 5.01zm-17-2.33c-.25-.36-.75 0-1.28.18s-.72.1-.94-.25-.32-.79.11-1.08 1.25-.5 1.18-.86-.86-.57-1.61-.21a2.19 2.19 0 0 0 -.86 2.68 1.82 1.82 0 0 0 2.51.86c.88-.35 1.17-.96.91-1.32zm11.59-3.12a.83.83 0 0 0 .47-.89.77.77 0 0 1 .71 0c.47.18 1.4.21 1.29-.54s-.32-.75-1-.75-.79-.11-.61-.4.65-.78.22-1.29-.86.51-1.11.76-.58.25-.65 0 0-.79-.86-.57c-.29.08-.43.5 0 1.32a9 9 0 0 1 .82 2.12.47.47 0 0 0 .72.24zm-9.27 3.05a2.61 2.61 0 0 0 2.37-1.4 2 2 0 0 0 -1.71-3c-.45-.08-1.94 1.4-2 2.29s.71 2.11 1.34 2.11zm.75-3c.86 0 .86.54.86.71a1.7 1.7 0 0 1 -.9 1 .61.61 0 0 1 -1-.54c.04-.43.57-1.18 1.04-1.18zm6.16-.5c0-1.4-.36-1.9-1.72-2a2.34 2.34 0 0 0 -1.82 2.38c.14 1.22 1 2 1.68 1.72s1.9-.72 1.86-2.11zm-.82 0a1.44 1.44 0 0 1 -.86.93.69.69 0 0 1 -.9-.71 1.24 1.24 0 0 1 1-1.08.69.69 0 0 1 .76.81zm-6.24 7.31c-.43-.36-.68-1.51-2.25-1.11-.86.21-1.94.89-1.58 1.57s1.08 2.19 1.33 2.69.32 1.11 1.32.79 2.51-1.47 2.29-2.65-.68-.98-1.11-1.34zm-2.5.64a.44.44 0 0 1 .43-.68c.71 0 1.07.54.57 1s-.79.13-.98-.37zm2.11 1.83c-.43.36-1 .82-1.15.46s.08-.75.61-1.11.75-.71 1.08-.43-.11.67-.54 1.03zm3-4.37a2 2 0 0 0 -1.36 2.43c.36 1.29 1.5 1.65 2.72.65s1.43-1.76.75-2.58-1.1-.8-2.1-.55zm.83 2.27c-.86.61-1-.15-1.07-.65a.87.87 0 0 1 .93-.86c1.11.23 1 .91.14 1.51zm3.48-4a1.91 1.91 0 0 0 -1.4 1.71 1.67 1.67 0 0 0 1.83 1.72 1.84 1.84 0 0 0 1.15-2.07 1.55 1.55 0 0 0 -1.58-1.36zm.68 1.76c-.08.28-.25.61-.54.61a.55.55 0 0 1 -.5-.58c0-.28.14-.57.46-.57s.65.28.58.57zm5.19-.9c-1.11-.43-1.29-.68-1.15-1s1.26-1 .72-1.54-1.07 0-1.36.54-.36 1.11-.54.86-.21-1.36-1.11-1c-.36.14-.29.64 0 1.64a6.5 6.5 0 0 0 1 2.15c.25.29.47.54.79.15s0-.68 0-1 .58.07 1 .29 1.08.61 1.4.18.36-.81-.75-1.24z" fill="#1d1d1b"/></svg>