<svg height="64" viewBox="0 0 64 64" width="64" xmlns="http://www.w3.org/2000/svg"><path d="m48.91 25.75a10.18 10.18 0 0 0 -.17-3c-.33-1.67-3.5-4.17-6.33-5.25a26.33 26.33 0 0 0 -6.5-1.34l-.33-1.33c-.34-1.33-2.34-1.17-3.75-.83s-5.59 1.66-9.17 2.83a15.42 15.42 0 0 0 -8.5 6.25c-2.33 3.33.58 5.08.58 5.08a18.37 18.37 0 0 0 -1.41 2.75 25.26 25.26 0 0 0 -.92 7.25c.08 3.09 2.33 2.84 2.33 2.84 1.34 4.91 3.59 8.08 5.92 8.83s4.83.42 5.33-.58-1.14-3.33-1.75-4.75a12.59 12.59 0 0 1 -.83-3.75 5.5 5.5 0 0 0 .92.08 3.14 3.14 0 0 0 2.16-1.33c.67-.92 1.25-1.84 1.25-1.84.42.75 1.59.5 3.09-.08a41.93 41.93 0 0 1 4.58-1.75c1.17-.25.83-2.75.75-3.33s1.5-.59 2.67-.59 2.41 1.09 3.25 1.25 1-1 1.58-1 2 2.67 2.42 5.5 2.66 2.34 3.66 1.25 1.5-2.83 1.84-5.75-2.67-7.41-2.67-7.41zm-24.91 23.16c-.5.44-3.93-.31-5.25-2.43s-2.62-5-2.37-6.07c.06-.26 2.31-.18 3.37-.18s2.07.06 1.94.43a13.37 13.37 0 0 0 1.38 5.07c.82 1.27 1.44 2.75.93 3.18zm.23-10.16c-.58.08-3.75-.67-5.66-.67s-3.59 1-4 .92-.75-2.42-.17-4.84a38.73 38.73 0 0 1 1.17-4s.41-1 .83-.91a22 22 0 0 1 4.67 2.58c2.33 1.58 4.83 3.83 4.75 4.33s-.99 2.5-1.58 2.59zm10.18-4.75a8.16 8.16 0 0 0 -3.17 1c-1.66.83-2.66 1.33-2.91 1.08s-4-4.92-6.84-6.5a40.23 40.23 0 0 0 -5.16-2.58 2.46 2.46 0 0 1 -.33-3.25c1.25-1.84 3.92-3.75 9.59-5.59s8.5-2.75 8.75-2.08 0 5.83 0 8.75.74 9.08.07 9.17zm9.42-4.34c-.67.59-1.34 1.5-2.09 1.09a6.5 6.5 0 0 0 -2.91-.75c-1 0-2.59 1-2.67.5s-.25-11-.25-11-.25-1.17.67-1.09 4.58.34 6.91 1.75 4.25 3.75 3.59 5.09a22.82 22.82 0 0 1 -3.25 4.41zm6 4a7.93 7.93 0 0 1 -1.34 3.84c-.41.58-1.5 1.33-1.5-.5a16.38 16.38 0 0 0 -1.16-5c-.34-.92-.75-1.17-.17-1.75s2-2.34 2.33-2.34c.01 0 2.01 3.84 1.84 5.75z" fill="#1d1d1b"/></svg>