<svg height="64" viewBox="0 0 64 64" width="64" xmlns="http://www.w3.org/2000/svg"><path d="m30.23 8.82a1.87 1.87 0 0 0 -.77 2.9c.66.8 1.33 1.33 2.41.87s1.36-1.57.94-2.83-1.81-1.19-2.58-.94zm.87 2.86c-1-.24-1.12-1.29 0-1.75.62-.25.91.14.94.74s.07 1.26-.94 1.01zm-12.1 10.15c-.73.1-.27 3.29-.39 4.47-.07.74-.13 1.61.39 1.75s.38 0 .45-.49.28-3.57.35-4.16.81-.39 1.51-.39.35-.14.35-.87-1.93-.42-2.66-.31zm26.26 23.17c-.52-.1-.8-.14-.7 1.61s-.21 6.78-.21 7.52 0 1-.35 1.22a7.75 7.75 0 0 1 -2.09 0c-.7-.11-1.58-.14-1.65.42s.11.73 1.47.84 3.15 0 3.36-.42a9.85 9.85 0 0 0 .42-3.81c-.04-2.33.28-7.26-.25-7.38zm3.64-8.64c.21-3.88 0-11 .07-14.44s-1.92-3.81-3.67-3.85-9.13.14-9.48.21 0-.63.18-1.82a16.22 16.22 0 0 0 -.53-8.77c-1.47-4.69-6.33-5.27-8.36-1.01s-.77 9.06-.42 10.32 0 1.33-.28 1.36l-7-.24c-4.06-.14-4.09 3-4 4.58s-.21 5.87-.35 10.49.09 16.61-.06 22.56 8.79 4.25 13.76 4.16 14.79-.07 17.17.1 2.83-2.16 3-4.54-.24-15.21-.03-19.1zm-1.57 19.74c-.49 2.9-2.14 2.1-3.82 2.17s-8.14.14-12 .14-10.28.1-12.27-.28-2.1-1.79-2.1-5 0-19 .11-23.09.24-8.25.66-9 2-1.12 3.6-1 4.65 0 5.74 0 1 .58 1.12 1.16c.31 1.08.66 1.32 1.33 1.39s.59-.59.1-1.78a23.06 23.06 0 0 1 -1.89-6.71c-.91-4.69 1.58-8.01 3.02-8.1s2.55.84 3.32 2.94.45 5.8.21 7.34-2.07 3.64-1 4.62 1.58-.25 1.82-.67 2.27-.31 3.81-.21 4.41.21 6.68.35 1.47 4.51 1.47 8.22-.35 13.78-.35 16.3.93 8.31.44 11.21z" fill="#1d1d1b"/></svg>