<svg height="64" viewBox="0 0 64 64" width="64" xmlns="http://www.w3.org/2000/svg"><path d="m31.09 34.47c.35-.31.53-1.19-.09-1.31-.44-.08-1.15.66-.83 1.05s.58.57.92.26zm.07 2.67c.19-.26-.12-.57-.49-.54s-.8.3-.4.64a.54.54 0 0 0 .89-.1zm2.15.13a.83.83 0 0 0 .38-1.06.89.89 0 0 0 -.86-.43c-.41 0-.63.38-.54 1s.71.64 1.02.49zm-1.8 2.43c-.32 0-.71.42-.44.73s.4.34.67.08.26-.8-.23-.81zm1.81 1.1c.32.43.67.2.93-.19s-.14-.77-.67-.73a.55.55 0 0 0 -.26.92zm4.14 1a.88.88 0 0 0 -.57 1.2.82.82 0 0 0 1.28 0c.3-.39.46-1.51-.71-1.22zm-5.74 1.3a.88.88 0 0 0 -.72 1.36c.41.63 1.15.58 1.3-.21s0-1.07-.58-1.15zm-1.36 3.3a.73.73 0 0 0 -.54 1.11c.33.6.74.52 1.24.16s.03-1.36-.7-1.27zm6.91-.5c-.57-.1-1.07.66-.81 1.34s.94.54 1.48 0 .12-1.19-.67-1.34zm7-28.17a29.4 29.4 0 0 0 -3.89-2.6c-.6-.28-1.48 0-2 2.45s-1 5.5-1 5.5l-2.29.17s-.27-5.9.22-6 .92-.39 1.12.17 1.4.55 1.35-.06a7.72 7.72 0 0 0 -.31-1.46 11.36 11.36 0 0 1 2.33-1.9c.65-.17 1.17.17 1.48-.1a.74.74 0 0 0 -.38-1.25c-.76-.19-3.85-.34-4.64-.49a6.55 6.55 0 0 0 -1.41-.1 1 1 0 0 0 -1.2-.69c-1 .15-1.35 1.16-.95 1.59 0 0-4.22 2.44-5.33 3.1a.52.52 0 0 0 .06.73c.36.43.69.45 1 .22s1-.69 1-.69l1.62 1.44s-.71 1-.1 1.37 1 0 1.2-.5a5.55 5.55 0 0 1 .34-.85l1.14-.16.21 5.61h-3.58s-.91-5.78-6.53-5a6.35 6.35 0 0 0 -4.67 6.92s.47 5.35 6.64 4.37a61 61 0 0 1 1.06 11.19c-.08 4.29-1.76 10.4.84 11.29s6.78.58 9.33.64a4.58 4.58 0 0 0 4.75-4.87c-.13-2.96-1.68-11.64-1.15-15.87s1.51-7.51.48-8a4.68 4.68 0 0 0 -2.16-.41s.63-7.12 1.39-6.85 1.4 1.22 2.12 2.07 1.6 1.61 2.13.91.74-1.06-.22-1.89zm-7.27 6.9c0 .24-.4 1.87-.54 2.71s-.14 2.1-.43 2.08-1.15 0-1.07-.62-.1-4.18.06-4.2 1.98-.22 1.98.03zm-1.47-11.12a8 8 0 0 1 2.36.16c.37.1 0 .41-.4.69s-.46.52-.77.79-1.64-1.54-1.19-1.64zm-3.68 3c-.52.78-.66 0-1.27-.4s-.25-.72.35-.93l2.07-.7c.26.02-.63 1.28-1.15 2.05zm1.31 0c-.85.1.13-.58.51-.94s.57-1.27.77-1.29.54.58 1 1.16.21.6-.16.63-1.28.39-2.12.49zm.6 8.18c.25 0 .12 3.4 0 4.31s-.19.72-.78 1.05-.57.16-1-.17a4.48 4.48 0 0 0 -2.19-.63c-.91-.05-1.62 1.48-1.85 1.66s-.13-.15-.16-.48-.48-1.38-.19-1.55a5.39 5.39 0 0 0 2.57-4.13c.09-.25 3.35-.03 3.6-.01zm-5.52 1.63c-.43.77-.84.89-1 .86a1.68 1.68 0 0 1 -.34-1.29c.14-.26.34.18.56.45s.38 0 .35-.36-.61-.67-.4-.91.94-.07 1.32 0-.05.53-.49 1.3zm-5.1-6.32a5 5 0 0 1 1.53-.4c.29 0 .26.19.19 1s-.41 1.67-.11 1.77.42.14.59-.9.42-1.6.66-1.61a2.08 2.08 0 0 1 1.11.57c.27.27.69.45.3.68a4 4 0 0 0 -1.41.89c-.42.52-.43.9-.8.88s-.65-.44-1-.26c.07.01-1.54-2.38-1.06-2.62zm.86 8.28a2.66 2.66 0 0 1 .25-1.66c.24-.63.53-1.64.21-1.58s-.8.88-.87 1.67-.24 1.7-.41 1.63a4 4 0 0 1 -2.55-2.24 4.19 4.19 0 0 1 .06-3.74c.54-1.07 1-2.05 1.66-1.44s1.65 1.94 1.35 2.25-.56.28-1 0-1.58-.79-1.84-.44-.39.81.39.87 2.2.21 2 .48a7.05 7.05 0 0 1 -1.17.9c-.35.23-1 .69-.79 1s.45.58.84.18 1.07-1.68 1.52-1.63.68.28 1 .26a2.21 2.21 0 0 0 .75-.34l.7 3.32s-1.92.87-2.1.51zm1.58-4.76a6.41 6.41 0 0 1 1-1.06 3.57 3.57 0 0 1 1.25-.83c.48-.2.86 1.7.85 2s-.45.08-.94.07-1.39.1-1.8.13-.36-.18-.33-.31zm13.27 11.33a105.56 105.56 0 0 0 .78 12.48c.4 2.69-2 2.41-3.93 2.47a41.17 41.17 0 0 1 -7.16-.63c-1-.3.22-6.6.29-8.53s-.55-8.1-.55-8.1l.28-.11c.28-.1.28-.71 1.05-1.47s1-.36 2.2.29a1.39 1.39 0 0 0 1.83-.17s.06 1.35.19 2.08.47.75.92.68.17-2.2.11-2.93.6-.29.87 0 .05.65-.17 2.23-.28 3.51-.66 6.71-1.6 8-1.45 8.41 1.19.57 1.36.06 2.43-16.91 2.43-16.91c.15-.25.37 0 .62 0s.61-.66 1.08-.94.06 1.95-.09 4.38zm.93-9.85a13.13 13.13 0 0 0 -.38 2.25 16.59 16.59 0 0 1 -.11 1.86 1.62 1.62 0 0 0 -1.26.21c-.46.4-.61.66-.62.42a16.62 16.62 0 0 1 .41-2.29c.18-.84.5-2.1.5-2.1.06-.33-.09-.73.45-.61s1.06-.15 1.01.26zm3.67-6.64.1-.05zm.8.89c-.27.23-.3-.14-.23-.35s0-.7-.34-.63a.55.55 0 0 1 .63.11.56.56 0 0 1 -.06.83z" fill="#1d1d1b"/></svg>