<svg height="64" viewBox="0 0 64 64" width="64" xmlns="http://www.w3.org/2000/svg"><path d="m38.79 40.45c1.71-.58 2.34-1.91 3.46-4.75a22.82 22.82 0 0 0 1.21-7.91c0-1.25-2.12-.92-2.42-1s-.5-2.46-.41-4.13-.59-3.45-1.84-5.95-4-3.92-7.58-3.21a8.29 8.29 0 0 0 -6.5 5.12c-1.25 2.67-1.08 8.38-1.08 8.38a3.93 3.93 0 0 0 -2.67.25c-1.08.66 0 6.66 2 10.21s5 4.33 5.75 4.29.46.75.46 1.41-1.12.5-3 .63-3.38.5-3.13 3.46 5.3 3.58 10.38 3.29 7.58-.54 8.29-2.17.46-3.87-.79-4.12a29.52 29.52 0 0 0 -4.08-.38c-.59 0-.34-1.87-.3-2.37s.55-.5 2.25-1.05zm-13.12-17.16c.12-.42 1.25-.25 2.33-.25s1.84-.13 1.84-.34-1.63-.16-3-.16-.92-1.34-.67-1.67.25-.12 1-.12 1-.05 1.25-.34-1.5-.62-2-.62.5-1.25.63-1.5 1.75.25 2 0-.12-.5-.92-.71.63-1.5 3-2 4.87.42 6.37 3.25 1.42 7.75 1.42 8.17-2 .37-6.13.25-6.66-.07-6.83-.09c-.42 0-.37-.71-.29-1.08s0-.67.67-.67 4.33.38 5.08.29.08-.5-.33-.58-3.8-.54-4.84-.58-.71-.84-.58-1.25zm8.71 21c.08.91 0 1.37 1.16 1.5s3 0 4.13.16.33 2-.63 2.38-3.66.29-6.5.33-3.58.29-5.87-.37-1.83-1.59-1-2.09 2.5-.5 3.92-.62 1.29-.58 1.41-1.71a26.87 26.87 0 0 0 0-3.62c-.08-.55 1.38-.55 1.83-.71s.38-.42-.08-.42-3.46 0-4.71 0-1.5-.75-2-1.29 2.63-.54 3.42-.46.79-.42.37-.54a25 25 0 0 0 -3.54-.25c-1.41 0-1.75-.58-1.83-1.08s1.46-.3 2.67-.38.87-.12.87-.37-1.79-.17-3.12-.3a1.66 1.66 0 0 1 -1.71-1.45c-.13-.58 1.54-.33 1.92-.33s.5-.08.2-.37-.87-.25-1.91-.46-.63-1.29-.67-2 .45-.54 1.08-.54c1.46 0 16.63-.21 17.38-.21s0 3.87-.83 6.67-3.5 3.54-5 3.83-1.05 3.74-.96 4.66z" fill="#1d1d1b"/></svg>