<svg height="64" viewBox="0 0 64 64" width="64" xmlns="http://www.w3.org/2000/svg"><path d="m60.33 18.8c-.15-1.51-.65-3.23-1.37-2.73s-1.29 2.66-2.15 3.23a2.67 2.67 0 0 1 -3.51-.36 10.65 10.65 0 0 0 -7.54-2.72c-4.16-.07-7.38 2.36-8 4.23 0 0-3.65 1.22-5.52.5s-10.24-3.08-15.74-1.51-12.84 7.75-13 15a12.88 12.88 0 0 0 12.43 13.48 35.65 35.65 0 0 0 18.93-3.59 93.9 93.9 0 0 0 12.77-7.1c1.51-.93 2.29-1.43 2.29-1.43a4.15 4.15 0 0 0 4.45-2.23 15.14 15.14 0 0 0 2-7.24c-.07-1.79-.29-2.22.36-2.44a7.24 7.24 0 0 0 3.27-1.79c.9-1.1.47-1.79.33-3.3zm-10.41 14c-1.21 1.93-3 2.65-10.68 7.53s-15.5 5.38-19.58 6-11.12-1.15-13.27-6a13.42 13.42 0 0 1 1.61-13.28c2.36-3.23 9.61-6.39 12.41-6.82s8.86 1.77 11.87 2.44 6.38-1.22 6.38-1.22c.51 1.22 1.15.79 2.37.08s3.23-1.8 4.95-.79-.22 3.3-2.22 5.45-1.15 3.66.93 3.87 5-1.79 6.17-1.72.28 2.51-.94 4.45zm7.7-10.94c-.92.59-2.42.86-2.8 1.45s0 4.3-.27 6.62-2.74 4.14-3.28 3.82 1.18-1.94 1.94-4.25-1.85-3.16-3.14-2.87-4.59 2.08-5.24 1.79 2.08-3.37 3-4.88 1.17-2.88-1.13-4.1-5.24.36-6 .22.15-.56.51-.72a10 10 0 0 1 4.91-1.13 10.1 10.1 0 0 1 6.67 2.75 3.48 3.48 0 0 0 4.3.21c.81-.48 1.51-1.77 1.56-1.61a7.65 7.65 0 0 1 .35 1.18c.07.66-.47.92-1.38 1.51zm-36.13 2.21c-2.1.05-6.94 1.83-8.77 4.36s-2 6.35-1.29 7.31 1.13 1.24 1.67 1-.65-2.05-.11-4.2 2.8-5.38 5-6.24 5.6.16 5.71-1.18c.09-.51-.11-1.12-2.21-1.05z" fill="#1d1d1b"/></svg>