<svg height="64" viewBox="0 0 64 64" width="64" xmlns="http://www.w3.org/2000/svg"><path d="m48.4 34.34a66.14 66.14 0 0 0 -5.58-12.34c-4.33-7.58-13.67-10.33-17.5-10.16s-8.42 3.33-9.42 5.5-.66 11.41-.58 14.58.54 4.27 1 5.25c.67 1.42 1.75 3.42 5.42 7.25s12.33 7.83 14.91 7.75 1.92-6.17 1.92-7-3.33-2.42-6.42-4.25-4.25-8.33-4.33-9.08 1.75-1.17 3.08-1 5.17 1.08 7 2.91 7.92 9.17 8.84 10 1.41-3.33 1.75-5.16.51-3.09-.09-4.25zm-26.2-19.67a13.49 13.49 0 0 1 12.8 2.44 43.73 43.73 0 0 1 8.81 10.18c1.25 2.19 2.69 6.38 2.31 6.38s-1.75-2.94-2.81-4.31a23.79 23.79 0 0 0 -6.31-5.36 7.84 7.84 0 0 0 -7-.71c-.32.13-.82-1.5-1.13-2.18a8.5 8.5 0 0 0 -2.87-2.25c-.69-.32-.63-.75-.38-.94s.38-.56-.25-.75a5.29 5.29 0 0 0 -1.69-.06c-.18 0-.81-.82-1.31-1.25s-.61-1.05-.17-1.19zm8.8 30.81c0 .5-.38 1.75.56 2.63s.94-2.07.94-2.75.81-.13 1.37.12a1.19 1.19 0 0 1 .69 1.19c0 .44-.06 2.37.81 2.56s.38-2.5.5-3.06.94-.19 1.31 0 .25.94.25 2.44.25 1.81-.81 2.12-6.25-2.44-9.87-4.44a26.2 26.2 0 0 1 -8.75-9.06c-1.24-2.44-1.18-7.23-1-7.87 0 0 .62 1.6.7 1.93s-.08 2.17 0 3.13.21 1.25.71 1.5.42-2.42.5-3 1 1.12 1.08 1.54a10.94 10.94 0 0 1 0 2.33c0 1.05-.12 2.3.54 3s.59-1.25.71-2.25-.34-1.54-.04-1.54.95 1.25 1.12 1.54 0 .42 0 1.25a19.48 19.48 0 0 0 0 3.54c.17.5 1 .5 1 .3s.13-3.5.13-3.84 1.25.88 1.45 1.21a10 10 0 0 1 0 2.5c0 1.13-.21 2.08.59 2.5s.79-3.42.79-3.62 1.29.87 1.54 1.08.21.75.21 2 0 1.9.77 2.21.62-2.56.62-3.19.94.31 1.32.5.26 1.02.26 1.5zm-.75-3.87c.26.27-5.82-4.38-7.44-6.69s-4.94-7.5-5.31-9a21.68 21.68 0 0 1 -.38-6.63c.31-1.37 1.56-3.81 2.5-3.43s1.69 2.06 2.19 2.43.62.57.37.82-1.37 1.5-.18 1.25 1.18-.88 1.93-.44a3.27 3.27 0 0 0 1.75.56c.5 0 1.38 1.44 1.94 2s1.19.94.69 1.63-2.44 3.18-2.5 5.75 1.7 8.93 4.39 11.75zm16-.5c-.07.37-3.13-4.32-6.94-8.57s-10.06-2.62-11-2.5-.74-1.18-.31-2.04 1-2.64 1.93-2.94c3.13-1 4.94-.43 8.32 1.38s7.37 9.12 8.06 10.31-.05 3.98-.11 4.36z" fill="#1d1d1b"/></svg>