<svg height="64" viewBox="0 0 64 64" width="64" xmlns="http://www.w3.org/2000/svg"><path d="m53.36 26c-2.19.37-4.75 2.19-8.19 1.69s-2.81-4.07-2.75-4.88.58-1.32 1.58-3.88-7-3.82-9.18-3.75-1.25.5-1.82.43-1.93-.56-4.12-.87-6.81.62-10.94 1.19-8.08 1.89-10.54 3.68-1.54 6.21 0 8.67 3.29 5 5.16 6.25 6.25 3.14 6.21 3.46c-.21 2 1.15 7.12 2.27 7.75s1.32 0 2.57-1.63 2-3.25 3.75-4.25 5.87-1.31 9.5-1.25 3.93 1.19 4.62 3.69.88 4.94 2.75 6.44 3.94-.06 5.06-2.69 2.88-8.81 4.63-10.62 3.5-3.19 4.12-5.69-2.5-4.13-4.68-3.74zm-18.07-9.7c2.57.31 5.75.81 6.88 1.81s.69 1.5.25 2.13a5.82 5.82 0 0 0 -1.25 2.12c-.38 1.19-.69-.31-1.38-1.56a6.47 6.47 0 0 0 -3-3.19c-1.93-1.12-1.79-1.34-1.5-1.31zm-17.29 19.06c-.81.32-2.94-.75-6.31-4.25s-4.5-7.68-3.44-9.18 3.56-3 8.06-3.88c0 0 1.32-.25 3.25-.56a6.66 6.66 0 0 1 6.25 3.06c1.5 2.38.5 7-1.5 10.44s-5.52 4.06-6.31 4.37zm7 4.64c-.62.41-1.33 2-2.25 3.21s-.66 1.54-1.16 1.62-.59-.71-.88-1.37a22.17 22.17 0 0 1 -.87-4.09c-.13-1.12.92-1.1 1.66-.83s3.13.29 4 .54.15.45-.5.92zm29.71-7.59c-1.06 1.13-2.37 1.88-3.31 3.63a59.39 59.39 0 0 0 -3.4 8.57c-.68 2.44-1.43 3-2.56 2.94s-1.75-2.75-2.06-5a8.83 8.83 0 0 0 -1.81-4.81c-1.07-1.38-4.82-.38-10.5-.31s-9.38-.75-10.38-1.13 1.56-1.37 3.38-2.69 2.12-2.43 3.62-8-1.19-7.43-2.44-8-.37-1.08.13-1c3.12.5 8.69.38 11.81 3.75s3.92 7.32 6.81 8.94 7.5-.56 9-1.06 1.81-.44 2.69.5.1 2.5-.96 3.62zm-34.65-13c-1.22-.27-2.58.91-3.25 2s.67 2.87 2.46 3 3-2 3-3-.66-1.67-2.21-2zm-.16 3.91c-.67.38-1 .13-1.92-.46s0-1.88.88-2.2c1.33-.5 1.95-.05 2.33.54s-.63 1.8-1.29 2.12zm11-2.16c-.54-.07-1 .45-.8 1.29s1.3.5 1.63.16.21-1.33-.87-1.45zm4.75 1.84c-.53-.2-1.59.54-1.79 1.08a1.24 1.24 0 0 0 1.08 1.67c1.12.21 1.75-1.17 1.71-1.71s-.65-.93-1-1.04zm-5.71 4.83c-.61-.15-1.38.71-1.21 1.63s1.17.75 1.75.37a1.21 1.21 0 0 0 -.54-2.01zm-3.08 6c-.4-.13-1.67.54-1 1.38s1.16.54 1.87.12-.12-1.33-.87-1.55zm5.33.25c-.49-.09-1.58.58-1 1.21s.46.62 1.37.29.71-1.34-.37-1.58zm2.58-4.08a1 1 0 0 0 -1.29 1c0 .79 1 1 1.67.75a.94.94 0 0 0 -.38-1.75zm6.42-.42c-.61-.21-1.79.54-1.42 1.25s1.29.54 1.71.42.52-1.43-.29-1.72zm-1.08 3.83c-.38 0-.21.5-.59.75s-1.25.5-.79 1a1.44 1.44 0 0 0 1.67.54c.6-.25 1.5-2.42-.29-2.34zm4-1.62c-.33 0-1 .79-.59 1.12s1.25 0 1.46-.25-.08-.84-.83-.92zm.25 4.92c-.38.33 0 .79.83 1.54s1.5 1.5 1.92 1.08-1-1.58-1.5-2.25-.84-.76-1.21-.42zm3.75-4.5c-1-.11-1.75.37-1.54.87s.87.29 2.29.29 2.29-.37 1.87-.71a6.84 6.84 0 0 0 -2.58-.5z" fill="#1d1d1b"/></svg>