<svg height="64" viewBox="0 0 64 64" width="64" xmlns="http://www.w3.org/2000/svg"><path d="m17.68 30.47c-2 .21-2.35 2.08-1.7 2.84a1.88 1.88 0 0 0 2.61.25 1.22 1.22 0 0 0 .22-1.88c-.3-.38-.41-1.29-1.13-1.21zm36.32-2.41a9.84 9.84 0 0 1 -1.29-7c.46-3.47 0-4.24-.68-4.91s-2.24-.39-3.27.08-2 2.12-2.9 3.65a13 13 0 0 1 -4.86 4.41c-1.87.89-3.54.05-5-.71a26.08 26.08 0 0 0 -4.08-1.45s-.15-.41.52-1.64a2.36 2.36 0 0 0 -1.65-3.26c-1.52-.43-3.44.33-5.17 1.17a37.07 37.07 0 0 0 -5.38 3.11c-1.71 1.24-3.94 3.53-4.78 4s-1.64 2.95-1.64 2.95a20.33 20.33 0 0 0 -5.82 8.54c-.45 1.65 1.76 1.77 3.43 1.44a4.89 4.89 0 0 1 3 .34c.14.54-2.15 1.72-3.17 2a2.83 2.83 0 0 0 -1.29 3.84c.93 1.61 4.41 1.48 6.84 1.37a53.07 53.07 0 0 0 7.06-1.21s1.12 1.63 4.76 3 5.25-.25 5.93-1-2.06-5.46-2.06-5.46c.89-.35 2.42-1.68 5-3.08s4.12-2.93 5.88-3.44 4.36.17 6.43 1.45 3.86 1.69 5.67-.46-.42-5.65-1.48-7.73zm-31.26-6.71c3.31-1.92 5.89-3.09 7.1-3s2.61.75.36 3.67a20.33 20.33 0 0 0 -6.83 1.52c-3.8 1.52-5.93 2.55-6.6 2.87a26.1 26.1 0 0 1 5.97-5.06zm1.41 21.82a37.91 37.91 0 0 1 -8.54 1.42c-3.14 0-6.48-.7-4.14-2.29s4.59-2 4.39-3.71-2.21-1.59-3.79-1.51-2.93.3-2.55-.83a17.45 17.45 0 0 1 3.62-5.57c1.41-1.16 3.21-2.76 3.91-2.88a5.05 5.05 0 0 1 3.49 1.2c1.43 1.19 3.83 3.77 4 6.92s.13 7.01-.39 7.25zm8.47 1.76c.43.58.65 1.2.19 1.39a5.92 5.92 0 0 1 -4.47-.32c-2.13-1-2.95-1.56-2.39-1.79s4.36-2.1 5-2c-.02-.03 1.25 2.13 1.67 2.72zm21.66-10.21c-1 1.07-1.37 1.22-3.33.4s-3.63-2.13-5.8-2-2.39-.08-7.64 3.38-6.51 4.5-11.64 6.23a17.58 17.58 0 0 0 -.51-9.17c-1.65-4.85-3.93-5.94-5.68-6.93a29.35 29.35 0 0 1 7.07-2.63c3-.49 4.29-1.08 7.83.5s5.77 1.4 7.11.77a12.49 12.49 0 0 0 4.77-4.35c1.21-2 2.54-3.33 3.34-3.53s2 .23 1.8 1.43a13.58 13.58 0 0 0 .85 9.26c2.08 4.03 2.78 5.58 1.83 6.64zm-26.86-8.91a1.82 1.82 0 0 0 -1.76.43 1.25 1.25 0 0 0 0 1.81c.62.52.87.94 1.9.08s1.36-2.13-.14-2.32zm1.95 4.39c-.27-.22-1.29.09-1.73 1a1.33 1.33 0 0 0 .68 1.75 1.56 1.56 0 0 0 1.76-.78c.33-.78.01-1.4-.71-1.97zm1.22 4.74c-.58.41-1.62.89-1.05 1.4s.68.47 1.68-.05 1.64-1.09 1.45-1.55-1.07-.51-2.08.2zm2.81-7.86c-.75.12-2.32 1-1.41 2.05a1.71 1.71 0 0 0 2.78.07c.59-.81.78-2.46-1.37-2.12zm2.14 4.36a.75.75 0 0 0 -.77 1.24c.61.66.84.78 1.14.72s1.31-1.18-.37-1.96zm4.61-2.55c-.6 0-1.81.38-1.46 1.15s.88.94 1.23.88a2.36 2.36 0 0 0 1.08-.76c.26-.31.66-1.16-.85-1.27zm7-2.58c.45-.14.77-1.58 0-1.62a.82.82 0 0 0 -.79.89c-.02.59.34.87.8.73zm-.38 2.41c-.19-.06-1.47.42-.83.88s.91.55 1.23.39 1.08-.86-.39-1.27zm3.63-.86c-.48-.23-1.27.35-1 .81s.46.74.91.69a.8.8 0 0 0 .1-1.5z" fill="#1d1d1b"/></svg>