<svg height="64" viewBox="0 0 64 64" width="64" xmlns="http://www.w3.org/2000/svg"><path d="m44.07 28.94c-.25 0 .17-.88.87-2.92s2-5.42 2.13-6-1.75-.66-2-.66 0-.42 0-1.5.17-3.25.38-4.25-.09-1.25-.71-1.38a24.91 24.91 0 0 0 -3.33-.17c-.42.05-.75 2.38-1.13 4.09a17.62 17.62 0 0 1 -.58 2.75 18.16 18.16 0 0 1 0-3.09 24.3 24.3 0 0 1 .71-4.29c.16-.83-.34-.91-1.67-1.08a21.75 21.75 0 0 0 -2.62-.21c-.46 0-.5 1.5-.84 3.38s-.75 5.25-.75 5.25a16.69 16.69 0 0 0 -.53-1.67 1.83 1.83 0 0 1 -.22-1.19 41.6 41.6 0 0 1 0-4.67c.16-1.12-.88-1-1.34-.79a11.07 11.07 0 0 1 -2.25.17c-1.29.12-1.41.71-1.46 1.21s0 3.71 0 3.71a2.83 2.83 0 0 1 -.59 0 16.67 16.67 0 0 1 -.08-2.8c0-1-1-.7-2.08-.66s-2.13 0-2.67 0-.25 4.62-.25 4.62-.21-.46-.46-1.12-1-3.63-1.08-3.79-1.25.16-1.75.37-1.38.33-2.29.63-.5.79-.25 1.58 1.58 4 1.58 4-.54.21-1.29.58.29 2.46 1.12 5 1.59 4.79 1.59 4.79-1.55.55-2.71.88-.25 1.62-.09 2.29c.34 1.38 1 6.38 2.38 11.79s2.21 9.5 2.75 9.88 5-2 8.46-1.88 7.75 1.46 8.33 1.46.83-.37 2-4.79 3.67-16.79 4-18.21-1.03-1.25-1.28-1.31zm-3-11.71c.71-2.75.5-3.63 1.75-3.58s1.79-.09 1.67.79-.63 2.71-.67 3.41a7.12 7.12 0 0 1 -.5 2.13c-.29.79-2.25 5.42-2.75 6.5s-1 2.21-1.33 2.08c-.2-.06-.09-1.33 0-2.33s1.16-6.23 1.87-9zm-1.58 3.5c-.17.79-1 4.29-1.25 5.75s-.21 1.92-.5 1.92a11.37 11.37 0 0 1 -1.34-.25l-.16-2.71s1.37-5 1.75-5.09 1.7-.41 1.54.38zm-4-2c.21-1.62.83-5.46 1-6.29s.42-.75 1.08-.75 1.79.17 1.63.92-.34 3.08-.46 3.79 0 2.41-.38 2.5-1-.46-1.29.16-1.54 5.38-1.54 5.38l-1.17-4.13s.96.09 1.17-1.54zm-2.25-.12a36.93 36.93 0 0 0 1.08 5.5 32.49 32.49 0 0 1 1 3.33c.08.37.42.92-.12.92s-2.13.33-2.38-.8-1.12-6.5-1.12-6.5a5.67 5.67 0 0 1 -.38-2.29c.21-.12 1.87-.83 1.96-.12zm-3.38-6.51a4.74 4.74 0 0 0 1.5-.25c.58-.25 1.21-.66 1.25.17s.08 2.88.08 3.29.38 1.92-.12 2a5.28 5.28 0 0 0 -1 .21c-.17 0-.59.17-.54-.46s0-1.5-.42-1.46a4.92 4.92 0 0 1 -.83 0s-.21-3.45.08-3.5zm-2.29 4.9h2s.5 0 .5.87.17 5.38.17 6a10.1 10.1 0 0 0 0 1.75 12.35 12.35 0 0 1 -.09 2.84l-2.87.12a14.08 14.08 0 0 0 .46-3.71c-.17-1.25-.75-2-.71-2.66s.25-4.17.25-4.17-.17-1.04.29-1.04zm-3-3.17a8.14 8.14 0 0 1 1.75-.16c.54-.05.79.25.79.79v1s-.54 0-.75 1a37.24 37.24 0 0 0 -.25 5 8.61 8.61 0 0 0 .34 2.25 7 7 0 0 1 -.09 2.75 8.19 8.19 0 0 0 -.29 2c0 .25-.12.54-.42.54s-1 .12-1-.5-.25-12.42-.25-12.42c.04-1.14-.25-2.08.21-2.27zm-6.08 1.34a.69.69 0 0 1 .37-1.17c.92-.42 1.63-.92 1.88-.5s2.29 5.92 2.41 6.33a12.8 12.8 0 0 1 .42 1.21c0 .29.08 4.84.08 4.84s-1.91-5.34-2.33-6.8-.88-1.25-1.42-1zm.16 5.62c-.41-1 .59-1 1.13-1.08s.33 0 .67 1.25 1.79 4.87 2.2 6.25.34 1.62.13 1.62h-1c-.54 0-.58-.87-.58-.87s-2.09-6.23-2.51-7.19zm24.67 11.44c0 .92-2.29 10.5-3.25 14.08s-1.17 4.69-1.58 4.59a32.31 32.31 0 0 0 -7.59-.84 27.63 27.63 0 0 0 -5.83.84c-1.08.29-1.46.79-1.54.12s-4.29-17.58-4.29-17.58c-.25-1.17-.88-2 0-2.38a71.43 71.43 0 0 1 12.08-1.41 51.18 51.18 0 0 1 11.42 1.12c.75.29.62.54.58 1.46zm-.75-3.13a14.06 14.06 0 0 1 -1.5-.5c-.13 0 .17-.79.67-2.16s1.79-4.54 2.12-5.25.21-.75.75-.75 1.42-.29 1 .87a45.08 45.08 0 0 0 -1.67 4.5c-.58 1.88-.94 3.38-1.37 3.29z" fill="#1d1d1b"/></svg>