<svg height="64" viewBox="0 0 64 64" width="64" xmlns="http://www.w3.org/2000/svg"><path d="m46.16 26.8c.92-.57.87-2.93 1.1-4.94s.05-6 .05-11-2.7-5.26-4.65-5.26-6.44-.29-10-.4a85.89 85.89 0 0 0 -12.41.4c-3.05.46-3.39 3.51-3.51 6.44s-.06 11 0 12.52 1.73 2.71 1.44 3c-1.09 1-1 5.23-.92 9s-.17 13.85-.26 18.22 6.14 3.16 11.72 3.39 13.38.86 15.57.63 1.89-5 2.06-10.28.35-11.15.69-14.94-.57-5.57-1-6-.8-.2.12-.78zm-1.37 16.55c-.23 5.23-.06 8.44-.41 10.57s0 3-3.56 2.87-9.08-.63-12.64-.8-6.78-.29-7.41-.29-2.24-.06-2.07-2.41.29-18.56.12-21.49c-.08-1.26-.06-2.64.74-2.59s5.12.12 7.82.18 3.62.11 4-.18.35-.4.75-.4 8.27.17 9.42.17 3.62-.4 3.62 1.33-.17 7.81-.38 13.04zm.51-24c0 2.41.35 5.92-1 6.55s-5.06.86-8.28.8-6.78 0-9.36 0-7.87.63-8.1-2a62.18 62.18 0 0 1 .11-7.36c.06-3.16-.23-8.67 1.09-9.25s4.89-.92 7.7-.92 9.54.4 12.53.4 5.91 0 5.68 2.3-.37 7.13-.37 9.52zm-22.4-4.5c.11-1.15 0-2.3-1-2.18s-1.26.51-1.38 1.2a49.14 49.14 0 0 0 -.34 5.06s0 1.78.06 2.82a1.54 1.54 0 0 0 1.76 1.37c.87-.05.92-1.2.92-2.29s-.14-4.83-.02-5.98zm-1.5 17c-1 .06-.69 1.15-.69 1.61s.11 3 .06 4c-.06 1.15-.29 3.73-.23 5.23s1.95 1.09 2.64.86.41-1.09.41-1.61-.18-1.89-.18-3.16.12-3.68.23-5.28-1.26-1.76-2.24-1.7zm22.24-20.79c-.06-1.72-2.65-1.15-3.8-1.38s-1.65-.06-1.6.46c0 .69 3.16 1.26 3.9 1.32s.46.92.46 1.61-.06 3.91-.06 5.23.29 1.43.81 1.43.34-.86.34-2.35 0-4.6-.05-6.32zm-.35 21c.12-1.49-1.84-1.49-2.58-1.49s-1.38.23-1.38.63c0 .8 1.32.8 2.3.86s.51 1.67.51 4 .12 5.86.06 7.47.06 3.79.46 3.85.52-.12.75-.92-.06-4.48-.18-6.89-.05-6.05.06-7.57z" fill="#1d1d1b"/></svg>