<svg height="64" viewBox="0 0 64 64" width="64" xmlns="http://www.w3.org/2000/svg"><path d="m54.78 28.49a4.89 4.89 0 0 1 -1.37-3.94c.12-1.56.31-3.87-1.13-4.93s-5.06-.13-6.62 0-2.07-1.57-2.82-3.19-1.5-2.88-4.84-2.63-6.12 3.44-7.19 3.88-2.81-.31-3.5-.63-1.43-2.75-4.81-2.75-5.37 5-6.37 6.5-2.08 2-2.75 1.44a3.94 3.94 0 0 0 -5.38.63c-.75 1.25-.69 2.25.75 5.43s-2.25 4.13-2.81 6.82 3.25 3.43 4.75 4.75.43 4.43 3 6.06 6 1.87 7.43.87 3.19 2.38 6.63 2.44 7.31-3.5 8.87-4.06 5.38 4.82 7.38 5 3.31-.13 4.13-2.06-.32-4.13 1-5 3.25-.44 5.43-.82 2.13-2.37 3.32-7-2.16-5.93-3.1-6.81zm1.56 5.63c-.43 1.43-1 6.37-3.06 6.68s-4.25.25-5.25 1a2.9 2.9 0 0 0 -1.5 2.94c.19 1.44-.44 4-2 3.63s-4.87-4.63-6.75-4.69a8.83 8.83 0 0 0 -5.69 1.81c-2.25 1.5-4 2.44-5.75 1.56s-1.18-2.75-4.34-2.37-4.25 1.31-6.44.06-2.5-2.12-2.5-3.56a3.2 3.2 0 0 0 -1.87-3.31c-1.56-.82-4-1.13-2.75-3.32s3.69-3.12 2.56-5.87-2.25-5.88 0-5.19 3.31.75 4.69.31c1-.31 3.31-3.75 4.12-5.12s1.5-2.5 3.13-2.31 2.87 3.06 5.37 3.12 3.88-.75 5.94-2.37 2.63-1.5 4.06-1.44a3.2 3.2 0 0 1 3.13 2.12c.62 1.5 1.12 3.19 2.25 3.5s3.44-.37 4.75-.5 3.37-1.06 2.81 1.44-.06 5.44 1.88 7.13 3.65 3.31 3.21 4.75zm-29.68-10.57c-3.82.82-6 2.2-7.75 4.5a6.83 6.83 0 0 0 -.44 7.19c1.5 3.13 3.56 4.94 8 5.69s7.94-.56 11.5-4.69-.13-8.31-1.69-10.19-5.81-3.31-9.62-2.5zm8 13.07a12.86 12.86 0 0 1 -9 2.25 6 6 0 0 1 -5.75-5.57c-.32-2.87.87-5.68 5-7.12a17.49 17.49 0 0 1 5.87-.75c1.88 0 5.88 2.62 6.25 4.56s.56 4.69-2.37 6.63zm-10.19-8.25a4.27 4.27 0 0 0 -2.06 3.43 2.21 2.21 0 0 0 2.06 2.38c.31 0 .94-.44.69-.81s-1.16-1.57-.57-2.37a4.08 4.08 0 0 1 2.63-1.5c1.25-.31 1-.69 1-1.31s-2.69-.57-3.75.18z" fill="#1d1d1b"/></svg>