<svg height="64" viewBox="0 0 64 64" width="64" xmlns="http://www.w3.org/2000/svg"><path d="m53.59 24.55c1.37.12 2.92 1.2 5.55-.95s0-4.24-.36-4.42-.3-.89.12-1.43 1-1.26-1-2.21-4.42.84-4.42.84c-.72-1.26-2.81-1.86-4.6.11s-.29 4.84.48 5.5-1.79 2.56-2.15 2.8-2.38-.54-5.43-.24a9.71 9.71 0 0 0 -4.78 1.67c-1.67-1.22-3.82-2.22-7.76-2.5a25.63 25.63 0 0 0 -11.82 1.49c-4.66 1.73-8.54 5.07-9.55 10.14s2.69 7 3.16 7.47 0 0-1.49-.12-3-.18-4.77-.18-.77 2.56-.77 3.76a8.11 8.11 0 0 1 .36 2c0 .89 12.35.29 20.23 0s28.17-.6 32-.54 2.87-3.4 2.81-5-2-1.26-3.76-1.14-4.48-.12-4.84-.12-.47-.3-.59-1.73a3.5 3.5 0 0 0 -1.73-2.51 27.51 27.51 0 0 1 3.22-4.17c1.91-2.27-.12-5.49-.72-5.79s0-.6.36-1.08.88-1.77 2.25-1.65zm-42.59 7.3c3.27-3.62 7.13-5.05 11.22-5.85s9.2-.23 10.67.4 2.35.6 1.43 1.28-4.57 4.49-5.17 6.56-1.28 5-.4 6 1.55 1.55.88 1.75-7.25.36-7.25.36c-2 .08-8.43.24-9.86-.64s-4.83-6.24-1.52-9.86zm46 11.58c1-.08.56 1.43.56 2.11s-.8.52-2.83.48-4.73-.36-6.16.12-4.06.4-7.48.36a80.05 80.05 0 0 0 -10.11.91c-2.23.28-4.62-.52-6.29-.64a40.74 40.74 0 0 0 -6.05.08 32 32 0 0 1 -6.36.24 54.79 54.79 0 0 0 -6.25 0c-.8 0-.91-1.35-.84-2.34s.72-.84 1.72-.76 2.47.31 4 .44c.92.08 3-.24 4.58-.28s3.3.12 5.21.12a64 64 0 0 0 6.89-.4c3.22-.32 7.72-.08 9.94-.08s6.69-.4 10.63-.48 7.84.2 8.84.12zm-8.2-3.14c.72 1.39-.51 1.35-1.39 1.35s-4 .12-4.45.2 1.71-1.83 2.42-2.35a2.61 2.61 0 0 0 1.08-.87c.54-.76 1.54.28 2.29 1.67zm.56-6.69a67.18 67.18 0 0 1 -7.08 6.21c-1.23.88-1.79 1.12-1.95 1.55s-.12.6-.76.72-3.57.12-4.57.12-1.55.52-1 0 1.28-1.35 1.08-1.51-2.72 1.51-3.08 1.31-1.31-.68-.2-1.59 2.59-1.75 2.43-2-3.34 2.15-3.5 1.83a1.41 1.41 0 0 1 0-1.59c.48-.64 3.58-3.38 3.34-3.66s-2 1-2.74 1.87-1.33 1.68-1.33.96a3.12 3.12 0 0 1 .88-2.19c.68-.75 1.51-1.51 1.35-1.71s-.56 0-.56 0c-.31.32-.59.84-.87.76s.08-1.12 1.47-2.91a14.43 14.43 0 0 1 6.45-4.49c2.82-1 6.36-.84 8-.84s3.34 1.91 3.58 3.15 1.04 1.87-.99 4.01zm.19-7.6c-.3-.11-.8-.43-.32-.91s2.67-2.59 2.23-3.14-2-1.52-1.71-3 1.11-2.39 1.87-2 0 1.28.48 1.79.95.4 1.55-.12 1.71-1.71 2.7-1.59 1.56 1 .52 1.55-1.63 1.71-.71 1.79 1.47 0 2.06.44.84 1.67-.59 2.11-3.27-.24-4 0a6.75 6.75 0 0 0 -2.27 1.83c-.5.58-1.36 1.37-1.81 1.25zm-11.86 6.37a.82.82 0 0 0 0-1.63 1.11 1.11 0 0 0 -1.35 1.11c.08.68.56.6 1.35.52zm5.69 0c-.55 0-.83 0-1.27.8s.48.87 1 1 1-.52 1-.83-.21-.97-.73-1.01zm-5.09 1.43c-.33-.09-1.07.12-.76.84s.68.95 1.12.64.2-1.36-.36-1.52zm3.26 2.67a.82.82 0 0 0 -.28 1.43c.6.4 1.28.44 1.52-.32s-.36-1.39-1.24-1.15zm-4.77.76c-.68 0-1.67 1.15-1.12 1.59s1 .08 1.44-.32.27-1.35-.32-1.31zm-8.24-8c.32-.2.36-1.28-.4-1.4-.55-.08-1.79.52-1.27 1.28s1.35.32 1.67.12zm-6.37 1.27c.76-.56.72-1.51-.23-1.55-.32 0-1.52.75-1.2 1.31s.68.8 1.43.24zm-4.29.8c.44-.36.44-1.44-.72-1.79-.74-.23-1.91.67-1.19 1.63a1.19 1.19 0 0 0 1.91.16zm7.4 1.87c.48-.24.87-1.16-.28-1.36-.52-.09-1.43.48-1.11 1.16s.91.44 1.39.2zm-7.16 1.91c.39.87.87 1 1.47.47a1 1 0 0 0 0-1.67c-.49-.42-1.87.32-1.47 1.2zm-4.5 1c.88.6 1.11.24 1.39-.48s.32-.91-.32-1.15c-.49-.19-1.95 1.02-1.07 1.62zm3.5 3.74c.32-.28.12-1.19-.75-1.23a.75.75 0 0 0 -.52 1.23.88.88 0 0 0 1.27-.01zm4.86.68c.83.28 1.51 0 1.59-.4a.94.94 0 0 0 -.92-1.1c-.6 0-1.51 1.21-.65 1.49zm3.3-2.87c.32-.36-.32-.79-.56-.91-.78-.39-1.27.55-.6 1.11s.88.17 1.16-.21z" fill="#1d1d1b"/></svg>