<svg height="64" viewBox="0 0 64 64" width="64" xmlns="http://www.w3.org/2000/svg"><path d="m49.63 35c-.19-3.25-3.06-5.69-4.06-6.69s-5.5-1.75-7.75-2.81-1.07-5.75-.5-7.81.31-3.25-.25-3.57a4.8 4.8 0 0 0 -2.63 0c-.5.19-.87 1.88-.87 1.88a1.33 1.33 0 0 1 -1-.25c-.63-.38-.94.37-1.44.87s-1.38-.9-2.13-1.62a1.79 1.79 0 0 0 -2.37.12c-.44.44-.56 1.13-1.06 1.69s.87 2 1.56 3.13.31 2.81-.06 4.5-1.63 1.75-2.44 1.93-2.4.81-3.63 1.13c-2.68.69-4.75 3.31-6.18 6.94s.37 8.68 2.93 10a30.31 30.31 0 0 0 7.32 2c-2.07 2.18-.57 3.62.56 3.68s1.19-.87 2.25-1.12 1.25.75 1.81.87.69-.75 1.19-1.06 1.37.5 1.87.5.63-.37 1.07-.81.62-.06.75.37.62.88 2.06.94 1.19-1.56 1.19-1.75 1.06-.31 1.62-.31.88-.25.75-.44a8.48 8.48 0 0 1 .19-1.87c9.62-.28 9.44-7.22 9.25-10.44zm-10.94 11.66a9.53 9.53 0 0 1 -1.5.75c-.56.31-.37 1.06-.87 1.18s-.88-.56-1.5-1.43-1.57.75-2.07.93-.93-.37-1.56-.56-.69.31-1.5.81-.69-.43-1.56-.81-.94.69-2.13 1.31-.81-.18-.81-.93 1.25-1.38 1.63-1.57a4.7 4.7 0 0 0 1.06 0c.5-.06.12-.43.31-.75s.81.13 1.38.38.43.03 1.43-.19 1.82.25 4 .38 2.38-.69 3.32-.75.81.87.37 1.25zm6.94-5c-2.69 1.31-3.13 1.43-4.56 1.43s-2.19-.09-2.19-.09 2.19-4.06 1.44-7.31-1.75-5.85-2.44-6.69-1.44-1.38-2.25-.88.37 1.38 1.31 3.63 1.94 5.75 1 8.25-1.31 4.44-2.06 4.31a6.68 6.68 0 0 0 -3.06-.12c-1.38.31-2.88.81-3.5.5s-3.88-2.85-4.13-5.69.13-5.88.69-6.81.75-1.57.44-2-1-.57-1.57.12a13.92 13.92 0 0 0 -1.62 7 10.35 10.35 0 0 0 1.56 5.25c.56.81 1.44 1.81.94 1.81s-6.5-.5-8.06-2.68-1.94-7.13-.25-9.25 5.25-3.75 7.56-4.13a4.78 4.78 0 0 0 4.25-3.56 14.27 14.27 0 0 0 -.06-4.75c-.09-1-2.13-3.38-1.25-3.25s.87 1.69 2.31 2 1.87-.94 2.25-.63.69 1.5 1.25 1 1.44-3.12 1.87-3.12.32.69-.25 2.25-1.62 6.38.57 8.13 6.12 2.5 7.62 3 3.94 3.25 4.06 5 .82 5.96-1.87 7.28zm-25.08-10.55a7.92 7.92 0 0 0 -2.21 3.75c-.5 1.84-.13 3.17.16 3.21s.38 0 .25-.91a6.2 6.2 0 0 1 .75-3.16 6.41 6.41 0 0 1 2-2.46c.63-.43-.5-.68-.95-.43zm7.58 5.34c.17-2.67.58-3.38.83-3.84s.5-.87 0-.91c-.33 0-1.12 1.29-1.25 2.41a13.19 13.19 0 0 0 -.16 4.71c.41 1.75 1 2.63 1.37 2.75s.92 0 .54-.41a6.74 6.74 0 0 1 -1.33-4.71zm15-5.71a.54.54 0 0 0 -.29 1 4.19 4.19 0 0 1 2.25 3 5.05 5.05 0 0 1 -.17 2.88c-.21.33-.21.41.21.54s1-1.21 1-2.42a7.16 7.16 0 0 0 -1.12-3.54 4.48 4.48 0 0 0 -1.88-1.46zm-12.71-11c-.16 0 .29 1.08.29 2.12a21.22 21.22 0 0 1 -.91 4.09c-.21.66-.38 1.45 0 1.58s1.25-1.38 1.41-3.38-.21-4.62-.79-4.45zm3.29 1c-.1-.16-.66 1.08-.91 2a10 10 0 0 0 -.34 3.54c.17 1.08.34 2.17.63 2.25s.83 0 .21-2.13.79-5.16.41-5.7z" fill="#1d1d1b"/></svg>