<svg height="64" viewBox="0 0 64 64" width="64" xmlns="http://www.w3.org/2000/svg"><path d="m52.53 41.21c-.43-3-3.43-5.75-4.93-6.06a43.67 43.67 0 0 1 -7.13-2.15c-1.06-.62-.81-2.5.63-3.31a13.47 13.47 0 0 0 4.18-3c1.44-1.63.63-5.69-.87-6.13s-2.5.13-4.44.75a19.35 19.35 0 0 1 -5.06 1.19c-1-.06-.06-.87.31-2s.38-1.81-.56-5.69-5.56-5.23-8.56-3.91a11.59 11.59 0 0 0 -6.57 6.81 6 6 0 0 0 3.13 7.06c1.87.75-.29 1.34-1.19 1.44-1.12.12-3.06.31-6.75.37s-4.31 5-1.94 7.94 8.25 1.81 10 1.81 1.69 2.19 1.38 3.63-2.5 4.56-4.19 6.81a4 4 0 0 0 1.31 6.06c2.07 1.13 4.57.94 7.32-.18s6.4-7.65 7.93-8.65 4.07 1.38 6.19 2.31a8.47 8.47 0 0 0 6.38.69c2.68-.73 3.9-2.79 3.43-5.79zm-11.06-18.5c.88-.38 1.31-.75 2.19-.13s.87 2.07 0 3.25-1.75 1.75-2.25 1.38.44-1.77.12-2.13-1.06-.25-1.75-.62.82-1.38 1.69-1.75zm-21.94 10.37a2.88 2.88 0 0 1 -1.75 1.44c-.68.19-1.43-.25-3-1.12a2.94 2.94 0 0 1 -1.31-3.63 1.86 1.86 0 0 1 2.06-1.5s2.07.06 2.82.06-.19 1.19-.69 1.75.5 1.19 1.5 1.25.62 1.13.37 1.75zm8.19 18.07a7.65 7.65 0 0 1 -3.31 1.06 3.28 3.28 0 0 1 -2.88-2.06 3 3 0 0 1 .38-3c.5-.69 1-1.28 1.81-1.13 1.38.25 1.06 2 1.63 2.56s1.12.13 2.06-.37 1.12 1.06 1.44 1.81-.13.63-1.13 1.13zm13.75-7.75c-.69.06-1.56-1.25-2.94-1.25a8.19 8.19 0 0 0 -4.06 1.12c-1.56.81-4.06 5.88-4.5 6.19s-.81-1.06-1.37-2.13-1.69-.37-2.38.07-.62-.07-.62-1.19-1.19-1.38-1.6-1.38.5-1.68 1.25-3a9.68 9.68 0 0 0 .75-5.68c-.31-2-3.31-1.88-4.62-1.82s-1.88-.12-1.44-.62a2.94 2.94 0 0 0 .81-2.13 1.73 1.73 0 0 0 -1.25-1.75c-.75-.12.19-.68.19-1.37s.75-.31 1.31-.31 1.44-.91 2.88-1.07a1.75 1.75 0 0 0 1.5-2.75c-.75-.93-3.31-2.43-4.13-4.75s2.75-6.68 6.41-7.18 5.12 2.06 5.69 4.37-.75 5.88-.82 7.63 4.94 0 5.63-.25.5.37.75 1.25 1.5.5 1.25.81.06 1.06.25 1.56-.94.63-2.13 1.75-1.06 1.75-.62 3.75 1.81 2.75 4.87 2.94 4.07.75 4.69 1.31-1 1.31-1.81 1.44-.5 1.31-.63 2.44-1.31.62-1.81.68-.81 1.25-1.5 1.32zm6.44 2c-2.06.68-3.88-.69-4.69-1.25s.85-.64 1.56-.88c1.13-.37 1.22-1.87 1.22-3.19s.81-.5 1.69-.62.81-.5 1-1.31 1.75 1.37 2.12 3.56-.81 3-2.9 3.69zm-21.91-27.69a.94.94 0 0 0 -.87-1.5c-.62.08-1.31 1.25-.5 1.87s.9.07 1.37-.37zm2.85-.71c.87.62 1.37.06 1.87-.44s-.25-1.12-1.31-1.19a.87.87 0 0 0 -.56 1.63zm2.37 2.94c.44-.44.56-1.44 0-1.44s-.94 1.19-2.81 1.5c-1.24.2-2.56-.88-3.19-.25s.81 1.94 3 1.56 2.56-.98 3-1.41zm.88 10.87c.5-.69 1-2.94-1.19-2-.58.25-1.94.75-1.06 2.19s1.75.46 2.25-.23zm.18 3.31c-1.28.8-1.43 1-.87 1.69s1 .75 1.94.06.25-2.6-1.07-1.79zm2.07 4c-.65.08-2.07.88-1.07 1.94s1.5.63 2.13.19a1.25 1.25 0 0 0 -1.06-2.17z" fill="#1d1d1b"/></svg>