<svg height="64" viewBox="0 0 64 64" width="64" xmlns="http://www.w3.org/2000/svg"><path d="m46.75 22.89c-.56-.37 1.07-1.75 2.44-4.5s-1.94-5.68-4.25-6.39-5.31 2.56-5.5 2.56-.94-.25-3.44-1.81-7.87 6.43-11.25 11-8.18 9.25-9.37 12.08 1.5 4.5 2.19 5 0 1.16-.07 1.31c-2.12 3.13-5.18 5.25-1 8.88s8.69-2.56 9.25-3 1.88 1.75 3.63 2.44 1.81-.13 3.62-1.94a121.5 121.5 0 0 0 8.75-10.31 70.75 70.75 0 0 0 7.57-11.69c1.18-2.52-2-3.25-2.57-3.63zm-29.43 13c1.25-1.62 5.5-6.75 8.81-11.12s6.62-8.56 8.12-9.25 2.19-.94 3-.31 1 .81.13 2-5.69 8.37-9.38 12.43-6.93 8.25-6.93 8.25c-.69.82-.94 1.82-1.63 1.5s-3.37-1.87-2.12-3.5zm3.18 14.19c-1.43.25-1.87.13-2.56-.31s-2.62-2.5.06-5.77 7.44-8.19 9.82-11.38 6.12-8.25 9-11.87 5.31-6.38 6.31-6.75 4.87 1.12 3.94 3.68-2.5 4.25-6.69 9.38c-3.24 4-3.78 4.71-3.87 4.84s0 0 0 0a6.32 6.32 0 0 0 .31-3.34c-.44-1.25-1.69-2.13-.07-2.38s4.57.25 5.44-2.56-.37-4.69 1.19-5.19 1.37-1.5.37-1.81a2.72 2.72 0 0 0 -3.12 2.88c.06 2.31.44 4-1.19 4.37s-4.5-.37-5.06 1.75 2.25 4.38.06 5.88-4.31.12-6.12 2.31.62 5.06-1.82 5.94-6.43 1.56-6.12 3.75.5 2.75.19 3.62 0 1.63.68 1.38a2.2 2.2 0 0 0 1.38-2.5c-.19-1.38-1.13-2.5 1.19-3.25s5.18-.75 5.25-3.42-.57-4.33 1.12-4.56 4.25-.77 4.25-.77a59.89 59.89 0 0 1 -5.37 7.18c-3.32 3.82-7.13 8.65-8.57 8.9zm26.38-22.5c-.56 2.25-4 6.31-7.38 10.5s-7.25 8.5-8.5 9.81-1.75.13-2.18-.43l-1.25-1.13c-.63-.56 1.5-2.87 5.37-7.56s10.81-13.06 11.75-14.13 1.31-.56 2.06-.06.69.75.13 3z" fill="#1d1d1b"/></svg>