<svg height="64" viewBox="0 0 64 64" width="64" xmlns="http://www.w3.org/2000/svg"><path d="m41.52 26.67a14.45 14.45 0 0 0 .48-5.55 7.17 7.17 0 0 0 -4.9-5.8 14.08 14.08 0 0 0 -8.75.48c-2.63 1.07-4.87 4.32-4.87 4.32-1.26 2.4.23 6.19.23 6.19a2.09 2.09 0 0 0 -2.08.52c-.38.45-.06 2.69.26 4.57s.56 1.72 1.07 2.05a20.48 20.48 0 0 0 2.4.71c.13.1.72 7.82 1.07 10.18s.43 3.34 1.95 4.06 4.61 1 5.87.52a3.76 3.76 0 0 0 2.08-1.66c.09-.36.74-3.76 1.2-5.67s.94-5.81 1.26-6.2 1.78-.58 2.17-.87a4.6 4.6 0 0 0 .78-2.08c.16-.71.68-3.31.78-4.57s-1-1.2-1-1.2zm-12.74-9.15c3.44-1.23 6.32-1.26 8.53-.42s3.11 2.24 3.21 4.64a8.76 8.76 0 0 1 -.88 4.73 4.46 4.46 0 0 1 -3.27 1.4c-1.43 0-3.41-.1-3.41-.1a22.93 22.93 0 0 1 -5.58-.65 4.28 4.28 0 0 1 -2.75-3.57c-.26-2.01.71-4.8 4.15-6.03zm6.13 28.67a2.16 2.16 0 0 1 -2.27 1.53 11.61 11.61 0 0 1 -3.5-.82c-.75-.32-1.43-2.91-1.56-4.54s-.81-6-.84-6.87.37-.85.52-.88 1.49.39 3.85.72a44.25 44.25 0 0 0 6 .19c.49 0-1.81 9.37-2.2 10.67zm5.09-13.72c-.32 1-.87 1-1.49 1.24a11.85 11.85 0 0 1 -3.08.16 56.57 56.57 0 0 1 -6.58-.55 22 22 0 0 1 -4.58-1.24c-1.16-.48-1.49-2.95-1.29-3.63s1.33-.29 1.75-.1a23.71 23.71 0 0 0 3.21.78 58.39 58.39 0 0 0 8.56.29 13.69 13.69 0 0 0 4.09-.84c.58-.06-.23 2.92-.59 3.89zm-13.33-3.18c-.35.05-.58.07-.49.78s.33 1.56.56 1.59.64-.06.48-.55-.29-1.85-.55-1.82zm1.95.46c-.22.06-.42.29-.39.78s.06 1 .35 1 .43-.38.43-.84-.07-1.04-.39-.94zm-1.24-6.94c.2-.33.46-1.3-.77-1.2a.66.66 0 0 0 -.39 1c.32.52.97.52 1.16.2zm1.85-1.07c.42-.16.85-1.2-.32-1.56a.79.79 0 0 0 -.75 1.14c.33.68.65.58 1.07.42zm4.15-.74a1 1 0 0 0 .82-.91c0-.35 0-.81-.62-.9-.39-.06-1.2.26-1.2.9a.92.92 0 0 0 1 .91zm3.93.62c.39-.59-.07-.94-.71-1s-1.24.68-.78 1.3 1.1.27 1.49-.31zm-7.82 3.14a.85.85 0 0 0 1.46.17c.23-.43.1-1.69-.87-1.66a.94.94 0 0 0 -.59 1.48zm3.89-2.14a.79.79 0 0 0 -.32 1.38c.78.49.88 0 1.14-.36s-.13-.93-.82-1.03zm3.38 3.77c.48-.36.32-2-.85-2a.86.86 0 0 0 -.74 1.36c.45.76 1.1.98 1.59.63zm-7.49 11.82c0-1.2-.2-2.14-.49-2.17s-.39 1.1-.26 2.79.29 3.83.26 4.41 0 1.69.42 1.78.78-.55.55-2.07a40.67 40.67 0 0 1 -.48-4.74zm1.78.75c.19-1.62.32-2.47-.1-2.82-.25-.21-.84 0-.94 1s.1 4.34.1 6.55-.07 2.75.32 3 1 .29.85-1.43a40.93 40.93 0 0 1 -.23-6.26z" fill="#1d1d1b"/></svg>