<svg height="64" viewBox="0 0 64 64" width="64" xmlns="http://www.w3.org/2000/svg"><path d="m35.81 36.58c-.94-.13-1.56.43-1.56 1.5s1.06 1.31 1.94 1.31 1.06-.88 1.06-1.56-.5-1.13-1.44-1.25zm4.13-.75c-.37 0-1.31.5-.75 1.06s1.19.56 1.44 0a.73.73 0 0 0 -.69-1.06zm-10.06 4c-.78.14-1.07 1.06-.5 1.93a1.43 1.43 0 0 0 2.37.25c.69-.81.81-2.68-1.87-2.18zm-8.44-4.07c-.63 0-1.69.82-1.06 1.63s1.06 1 1.68.87a1 1 0 0 0 .82-1.5 1.81 1.81 0 0 0 -1.44-1zm8.87 2.57c.88-.75.57-1.75-.5-1.88-.8-.09-2.25.75-1.68 1.63a1.28 1.28 0 0 0 2.18.25zm-4.75 1.37c-.93-.12-2.18.31-1.87 1.31s.81 1.75 1.94 1.13.87-2.31-.07-2.44zm19.57-28.7c-1.19.5-1.88 2.56-2.57 4.63s-3.25 7.06-3.25 7.06a6.13 6.13 0 0 0 -1.31-1.11s.44-2.38 1.31-5.25 1.88-4.82 1.82-6.19-1.88-1.44-2.88-1.14-1.31 1.57-1.5 2.32-1.44 6.07-1.75 7.26-.44 2.5-.69 2.5-.18-.57-.18-1.07-1.57-2-2.63-2.81a5.91 5.91 0 0 0 -6.19.13 5.83 5.83 0 0 0 -2.43 4.12 11 11 0 0 0 -3.5.69c-2.32.75-4 3.87-4 3.87-1.57 2.63 1.31 5.19 1.31 5.19a5.36 5.36 0 0 0 -1.19.63c-.37.31-.62.68-.44 2.93s1.32 4 4.19 7.32 8.56 3.62 8.56 3.62v1.88a18.61 18.61 0 0 0 -4.12.37c-1.88.44-4 2.06-4.19 3.88s6.13 3.25 10.75 3.31 9.63-1.56 10.5-3.13-.31-3.12-2.06-4.06-5.31-1.12-5.31-1.12l.12-1.57a11.52 11.52 0 0 0 4.38-1.56c2.56-1.44 4.37-4.12 5.87-6.31s1.63-6.19 1.44-7.63-3.38-2.18-3.38-2.18 2.19-4.25 4.07-7.69a65.24 65.24 0 0 0 3.12-6.75c.63-1.38-2.69-2.69-3.87-2.14zm-5.82-1c.44.06.63.31.32.63s-.44.5-1.25.18.5-.92.93-.81zm-4 12.56c.57-2.56 2.49-9.58 2.63-10s1.12-.25 1.44-.06-.44 1.19-.82 3-2.62 10.14-3.18 12.5-1.32 1.81-1.69 1.63 1.06-4.55 1.62-7.12zm-9.56-2.87a4.19 4.19 0 0 1 4.13-.88c1.93.44 2.18 1.75 1.43 2a4.66 4.66 0 0 0 -2.37 1.19c-.69.82-1 1.75-1.56 1.25s-1.25-1.17-1.75-1.25c-.63-.07-1-1.42.12-2.36zm16.25 17.31a15.56 15.56 0 0 1 -4.31 4.63 17.83 17.83 0 0 1 -5.56 2.37c-.75.25-.82 4.25-.75 5.94s.93 1.56 1.62 1.37.19-1.93.19-2.37 1.69-.13 3.56.31 2.5 1.19 2.31 2.19-2.18 1.25-4.18 1.69a19.64 19.64 0 0 1 -6.5.31c-2.82-.25-5.5-1.06-6.19-1.81s.62-1.82 1.94-2.13a17.89 17.89 0 0 1 3.73-.23c0 .56.11 1.38.64 1.54.81.25 1.25-.5 1.38-1.18a6.85 6.85 0 0 0 0-1.92 18.71 18.71 0 0 0 -.18-3.27c-.13-.75-.75-.56-2.69-.69s-2.94-.5-5.06-2.19a18.5 18.5 0 0 1 -5.13-6.37c-.62-1.75.38-1.94.57-1.94 0 0 1.56.38 2.37.63a43.23 43.23 0 0 0 10.06 1.68 30 30 0 0 0 12.82-2.12c.42-.44-.14 2.39-.64 3.56zm1-7c.19.5.31.81-.94 1.63s-3.93 2-8.68 2.12a46.6 46.6 0 0 1 -13.32-1.75c-.76-.29-2.56-1.5-2.87-2.69a4.36 4.36 0 0 1 1.94-4.56 6.84 6.84 0 0 1 6.37-.5c1.88.81 3.19 2.81 3 4.31s-1 3.38-.5 3.69 2.25.88 2.31-1.5a11.44 11.44 0 0 0 -.62-4.56 2.68 2.68 0 0 1 .12-2.38 3.82 3.82 0 0 1 2.69-1.12c.81 0 1.75 0 1.44.94a28.5 28.5 0 0 0 -.94 4.01c-.19 1.31-1.37 2.44-.69 2.87a3.65 3.65 0 0 0 2.88.32c.62-.38 1.06-2.13 1.31-3.38a20.29 20.29 0 0 1 1.19-4.12c.19 0 1.19.62.81 1.43a46 46 0 0 0 -1.94 4.94c-.31 1.25.07 1.69.88 1.88s1.44.68 2-.38 1.19-2.5 1.75-2.44a2.88 2.88 0 0 1 1.81 1.24zm1.31-9.69c-1.25 2.63-3.87 6.75-4.5 8.32s-1.18 1.57-1.81 1.37 1.13-3.69 2.13-6 3.81-8.75 4.25-9.62.87-.25 1.31-.13a3.55 3.55 0 0 1 1.31.5c.5.33-1.44 2.89-2.69 5.51zm3.25-7.18c-.25.43-1 .06-1.68-.5s.25-.72.87-.63c.81.08 1.06.64.81 1.08z" fill="#1d1d1b"/></svg>