<svg height="64" viewBox="0 0 64 64" width="64" xmlns="http://www.w3.org/2000/svg"><path d="m47.74 24.34c-1.09-.08-1.25-.5-1.67-1.41s.33-3 1-4.84-.5-3.16-1.92-3.91-4.16-1.25-8-1.34-10-.08-12.83.09a22.2 22.2 0 0 0 -7.92 2.07c-1.75.92.34 3.08 1.09 5.08s.5 1.92.25 2.34c0 0-.09.58-1.59 1s-2.33.91-2.33 2.75 1.25 1.75 2.17 1.58 2.41-1.83 3.58-2.08 3.75 1.08 5.75 1.66 4.92-1.75 5.92-2.33 4 2.08 5.58 2.5 4.08-1.17 4.83-1.67a1.74 1.74 0 0 1 2.09.42c.41.42.08 1.33-.17 5.17s-.42 11.66-.67 14.5-3 2.91-4.75 3.08a85.28 85.28 0 0 1 -12.58.17c-3.92-.42-5.08-1.42-5.92-2.59s-.58-10.83-.33-14 .42-5.08-.83-5.5-.5 1.09-.67 3.42-.5 13.58 0 16.75 6.18 3.84 11.18 3.93 9.41.08 12.83-.92 3.08-4.83 3.08-9.33.59-12.17.67-12.67 1.17 0 2.33 0 2-1.33 2.25-2.33-1.34-1.5-2.42-1.59zm-27.17-8.34a47.45 47.45 0 0 1 9.58-1.08c4.67 0 8.75-.09 11.34.5s4.25.66 3.75 3.16a24.12 24.12 0 0 0 -.5 2.92s-5.59-.75-8-1-4.17-1.17-6.92-1.08-3.92.58-6.17.75-4.66.66-4.75.16-.83-3.33-.83-3.33c.17-.41 1.67-.82 2.5-1zm27.92 10.34c-.84.67-1.67 1-2.59.34s-1.9-2.34-4.16-2.17-2.42 1.75-3.67 1.92a5.61 5.61 0 0 1 -3.33-.92c-.92-.5-1.92-1.83-3.42-1.5s-2.32 1.67-3.83 1.83-2.59.67-4.09 0-1.58-1.33-3.41-1a12.46 12.46 0 0 0 -3.84 1.59c-.66.33-2.08.66-1.41-.67s1.33-1.17 2-1.5a7.64 7.64 0 0 0 1.5-1.17 2.51 2.51 0 0 1 2.08-1.5c1.42-.25 2.58.34 4.75-.5s3.17-.75 5.67-.41 4.58.66 6.33.83 5.42.75 6.33.83 1.34 0 1.5.67a4.69 4.69 0 0 0 2.25 2.5c.92.25 2.17.17 1.34.83zm-22.42 16c1 .84 4.5 1.25 8.25 1.09s4.75-2 4.75-3.17 0-4.83.25-6.75-.08-2.75-1.08-3.08a17.8 17.8 0 0 0 -6-1.42 18.27 18.27 0 0 0 -6.42 1.08c-1 .5-.91 2.62-.67 3.59.17.66-.16 1.16-.16 3.83s.08 4 1.08 4.83zm.67-10.41a10.63 10.63 0 0 1 5.58-1.17c2.17.25 5.17.67 5.42 1.75s-.42 5.5-.5 6.67 0 2.33-2.59 2.58-3.25.42-4.91.08-2.84-.5-2.84-2.41a30.28 30.28 0 0 0 -.5-5.25s-.16-1.84.34-2.25z" fill="#1d1d1b"/></svg>