<svg height="64" viewBox="0 0 64 64" width="64" xmlns="http://www.w3.org/2000/svg"><path d="m48.26 21.78c-.25-.58-2.09-1.08-3.5-1.29a25.88 25.88 0 0 0 -4 0s0-1.42 0-2.54-1.2-1.13-2.75-1.13h-12.75c-3.29 0-8.92-.12-9.88.88s2.17 3.79 2.92 4.41.42.75.42 1.59c0 0 0 16.83.08 20.62s7 2.84 9.17 2.84 8.37-.16 10.91-.16 2-5.08 2-6.71-.2-11.66-.25-13.62 3.13-1.29 3.55-1.17.5.5.58 1.29.08 4.38 0 7.67 2.25 3 3.16 2.62.67-6.79.84-9.87a13.9 13.9 0 0 0 -.5-5.43zm-9.34 10c-.12 4.63.13 11.46-.12 12.5s-1.92 1-3.33 1-4.46.13-5.63.13-6.71-.41-7.46-.41-1.37 0-1.33-.29a17.45 17.45 0 0 1 .12-2c.13-.25 1.55-.13 2.25-.17s.88 0 1.13-.25.25-.75-.54-.92a22.26 22.26 0 0 0 -2.92-.21c-.33 0-.17-.58-.17-1s.88-.25 1.42-.3.75.09.75-.37-2-.63-2.21-.71.13-.71.09-1 .5-.29.79-.29.79 0 .79-.29-1-.59-1.38-.59-.25-.12-.25-.54.59-.12 1.17-.21.88-.08.79-.46-1.33-.4-1.79-.4 0-1.5 0-1.75 2-.12 2.46-.16.29-.13.33-.75-.71-.46-2.08-.59-.8-.68-.8-1.05 0-.38.58-.46.79-.08.79-.21-.71-.29-1.21-.41-.25-1.05-.25-1.21 1.21-.09 1.79-.09.59-.2.38-.54-1.71-.21-2.13-.25-.2-.71-.2-1.16.7-.25 1.12-.25.42-.05.42-.38-1.13-.33-1.42-.37 0-.92 0-1.13 2.12-.17 2.79-.17.5-.58.42-1.16-2.92-.42-3.17-.46 0-.42 0-.79-.41-.67-1.21-1-1-.71-1.7-1.5 1.29-.38 3-.38 4.29-.16 5.91-.16c.17 0 5.63.29 6.09.37s.46.42.46 1.67.37 7.29.37 11.54.13 11.25.75 11.21.38-5.79.25-10-.36-13.41-.41-14.13 1.21-.28 1.63-.28.25 3 .25 6.38.33 11 .33 13.87.25 3.33.84 3.38.12-3.46.12-6.67-.37-15.71-.37-16.38.66-.79 1.08-.79.58 1.17.58 2.54.17 5.83.04 10.45zm8-2.91c-.33.08-.33-.67-.33-2.42s-.67-1.58-1.71-2.13a10.91 10.91 0 0 0 -3.79-.45c-.17 0-.33-.71-.25-1.21s.29-.53.75-.59a22.58 22.58 0 0 1 5 .34c1 .12.59 2.12.59 3.54s.08 2.83-.26 2.92z" fill="#1d1d1b"/></svg>