<svg height="64" viewBox="0 0 64 64" width="64" xmlns="http://www.w3.org/2000/svg"><path d="m52 39c-.17 0 0-.25-.17-1.54s-1.75-1.71-2.33-1.71-.58-.12-.5-.37a2.08 2.08 0 0 0 -.5-1.88 16.55 16.55 0 0 0 -2.92-1.79c-.25-.16.59-.5 0-2.75s-4-1.46-4-1.46a3.52 3.52 0 0 0 -3.58-2.42 5.24 5.24 0 0 0 -4.21 1.83 2.14 2.14 0 0 0 -.5-.41 6.7 6.7 0 0 0 -4-1.17c-2.58-.08-5.21 2.87-5.21 2.87a3.18 3.18 0 0 0 -3-1.62 5.27 5.27 0 0 0 -3.71 2c-1.29 1.46.09 3.83.09 3.83a10.68 10.68 0 0 0 -2.25.67c-.71.37-1.42.75-2.25 2.75a4.6 4.6 0 0 0 .54 4c-.42 0-3.13.17-4.13.33s.71 3.46 1.21 4.34 2.29.75 2.84.83 1.33 2.25 2.41 3.25 7 .5 15.63.42 11.91 0 13.83-.42 3.88-2.92 4.33-3.46.59-.17 1.21-.17.88-.12 2.21-1.75 2-1.66 2-3.12-2.88-1.08-3.04-1.08zm-4.21-1c.46.21.48-.19 1.17-.37 1-.25 1.54.46 1.37 1.12s-1.12.42-2.2.3-.88-.59-.88-.8.07-.5.53-.25zm-2.66-4.41a2.42 2.42 0 0 1 1.62.71 1.29 1.29 0 0 1 .42 1.54 3.49 3.49 0 0 0 -.43 1.16c0 .38-.71-.5-1.08-1.16s-1.34-.59-2-.75-.5-.5-.17-.84a2.34 2.34 0 0 1 1.63-.71zm-.59 5.58c-.41 0-1.91 0-3.12 0s-.54-.71-.17-1.25a2.2 2.2 0 0 1 1.83-1 2.56 2.56 0 0 1 2.3 1.41c.36.67-.38.79-.85.79zm-3.21-9.5a1.28 1.28 0 0 1 1.34-.83c.46 0 .66.16 1.16.58a1.58 1.58 0 0 1 .37 1.58c-.17.5 0 .87-.33.83s-.55.17-.92.42-.17-.34-1.08-1-.75-.96-.55-1.63zm-.33 3.16c1 .75.29 1.25 0 1.58s-.12.79-.29 1.13-.21.91-.75 1.29-1.21-.58-1.79-1.17-1.67-.21-2.09-.21-.33-1.08-.7-1.41-.25-.59.45-1.38a3.27 3.27 0 0 1 2.8-1 4.74 4.74 0 0 1 2.37 1.17zm-2.8 6.33c-.46-.12-1.71 0-2.63-.21s-.62-.62-.5-.87 1.09-1.15 1.63-1.08c1.17 0 1 .42 1.79 1.09s.17 1.2-.29 1.07zm-12.38-9.91a6.11 6.11 0 0 1 2.5-1.75c1.21-.46 3.21-.59 4 .54a23.74 23.74 0 0 1 1.38 2.96c.29.38 1.46.5 1.46-.29s-.38-1.71-.16-2.21a3.93 3.93 0 0 1 2.34-1.92 2.6 2.6 0 0 1 2.5 1c.54.71.25.92.12 1.37s-.08 1.42-.54 1.3a2.78 2.78 0 0 0 -2.46.16 5.5 5.5 0 0 0 -2.12 1.21c-.42.33-.42.75-.92.46a3.3 3.3 0 0 0 -2.58-.88c-1.5.17-2 1.25-2.46.92a10 10 0 0 1 -1.22-1.12c-.34-.46-.67-.88-1.21-.92s-.96-.38-.63-.83zm2.38 6.75c-.79-1 .74-2.28 1.21-2.54.87-.5 1-.59 1.91-.42a4.37 4.37 0 0 1 2.75 1.75 2 2 0 0 1 -.37 2.08 2.44 2.44 0 0 0 -.63 1.42c-.16.79-.54.5-1.08.5s-1.5.08-2.29.08-.7-.75-.7-1.12 0-.75-.8-1.75zm-1.79 3.2c-.5 0-1.42.13-2.54.09s-1-.71-.5-1.29a2.85 2.85 0 0 1 1.79-1.21 2.14 2.14 0 0 1 2 1.16c.71.96-.25 1.25-.75 1.25zm-2.29-7.58a2.31 2.31 0 0 1 2.29.38c.54.54 1 .75.46 1.5s-.59 1.45-1.38 1.41a2 2 0 0 0 -1.42.29c-.45.25-.58.3-.79.09s-.87-.71-.87-.71c-.42-.29-1.17-1.13-.54-1.67a4.8 4.8 0 0 1 2.25-1.29zm-4.13-3a1.76 1.76 0 0 1 2.5.54c.29.67.46 1.05-.12 1.38a4.31 4.31 0 0 0 -1.71 1.46c-.25.55-.5 1-.79 1.05s-1.09-.34-1.34-1.55a2.45 2.45 0 0 1 1.47-2.84zm-5.21 7a3.8 3.8 0 0 1 3.29-1 5.52 5.52 0 0 1 3.75 1.92c.46.71.17.75-.16 1.08a2.15 2.15 0 0 0 -.34 1.59c.05.58-.83.5-1.58.45s-2.29.09-3.5 0-1.21 0-1.67-1a2.81 2.81 0 0 1 .21-2.96zm31.22 10.38a3.16 3.16 0 0 1 -2.67 1c-1.29 0-9.79.08-14.25.25s-9 .16-11 .08-2-1.13-2.41-2.08 2-.38 4.33-.42 5.92.07 8.92-.13c.62 0 17-.12 18-.16s-.22.75-.92 1.46zm6-4.25c-.42.16-.79 1.2-1.33 1.54s-.63 0-1.17-.25-.92-.17-2.88-.17-8.12.17-13 .17-15.17 0-17.34.08a9.32 9.32 0 0 0 -3.91.63c-.71.37-1.3-1.25-1.38-1.75s3-.42 7.58-.55 8.8-.58 14-.62h7s12.5-.17 13.16 0-.36.75-.73.92zm-26.59-17.75c.5-.38-.13-.84-.75-1.55s0-1.54 1.37-2.83.21-3.29-.41-4.12-1-.84-1.34-.42.5 1.08.88 2.33 0 1.5-1.17 2.84-.67 1.95-.33 2.58 1.55 1.31 1.75 1.17zm7.08-1.75c.63.58.42.62.25 1.45s0 1.42.63 1.38.62-1 .7-1.83a1.73 1.73 0 0 0 -.83-1.8c-.67-.45 0-.95.54-2.08a1.38 1.38 0 0 0 -.33-1.92c-.46.05-.83 1.46-1.54 2.8s-.04 1.41.58 2zm8.33.25c-.58 1-.83 1.83 0 1.83s.88-.83 1.3-1.92a2.21 2.21 0 0 0 -.46-2.41 1.23 1.23 0 0 1 -.42-1.63c.33-.92.22-1.5-.25-1.46s-.71.13-1 .92a2.32 2.32 0 0 0 .58 2.46c.75.87.84 1.21.25 2.21z" fill="#1d1d1b"/></svg>