<svg height="64" viewBox="0 0 64 64" width="64" xmlns="http://www.w3.org/2000/svg"><path d="m52.64 19.77c-.81-3.81-6.5-6.75-9.25-7s-7.94 3.38-10.69 5.75-8.06 8.56-9.31 11.69a16.43 16.43 0 0 0 -1.31 6.12c0 .75-1.38 2.32-2.06 3.32s-.38 1.43-1.63 1.43a13.46 13.46 0 0 0 -5.25 1.38c-1.44.81-2.37 3.06-1.75 4.37s1.25 2.19 2.94 1.82c.33-.08.31 1.75 1.31 2.31a3.3 3.3 0 0 0 3.63-.69 7.29 7.29 0 0 0 1.73-3.27 11.43 11.43 0 0 1 2-4c1-1.31 1.37-2.13 2.81-1.94s4.81 1.81 10.44-1.25 8.52-6.1 11.75-9.41 5.45-6.82 4.64-10.63zm-5 .75c-.62 1.06-1.87.69-2.44.44s-.75-.06-1.56.75a1.87 1.87 0 0 1 -1.94.69c-.56-.13-1-.38-.5-1.32a2.1 2.1 0 0 1 2.19-.81c.31.13 1.13-.31 1.31-1.19a1.66 1.66 0 0 1 1.38-1.43 7.56 7.56 0 0 1 1.75.5c.62.31.44 1.31-.19 2.37zm-24.19 19.48a24.1 24.1 0 0 0 -3.06 3.5 10.08 10.08 0 0 0 -1.56 3.94c-.25 1-.69 1.87-1.44 1.87s-1.81-.56-.87-1.75.87-2.43-.13-2.18-1.5 1.37-2.19 1.18-1.5-2.18.75-2.93 3.38 0 4.38-.75a12.64 12.64 0 0 0 2.25-2.44 17.72 17.72 0 0 1 1.42-1.86c.46-.16 1.14.88.45 1.42zm21.19-8.37c-1.87 1.95-5.64 4.27-8.44 5.95a13.46 13.46 0 0 1 -7.87 2.07c-2.44-.13-3.44-1.19-4.06-3.69s1.91-7.45 3.43-9.63a68.05 68.05 0 0 1 6.19-7c.38-.31.56 1.07.75 2.13s1.31 3 3.5 5.19 7.94 2.25 8.69 2.25-.31.81-2.19 2.75zm5-6.38c-1.44 2.13-2.81 1.56-4.87 1.56a8.52 8.52 0 0 1 -5.77-1.91 7.15 7.15 0 0 1 -2.63-6.38c.38-1.37 3-3.17 5.06-3.62 1.13-.25 5 .93 5.5 1.31s-1.12 0-2.25.69a3.1 3.1 0 0 0 -1.43 2.43c-.07.63-.44 0-.82-.12s-1.37-.13-2.18 1.19-.25 3.25 1.37 3.25a3.62 3.62 0 0 0 2.81-1.38c.57-.5 1.38.06 2.75 0s1.38-1.44 1.69-2.69-.17-1.58.13-2.12.81.56 1.62 2.25.46 3.44-.98 5.56z" fill="#1d1d1b"/></svg>