<svg height="64" viewBox="0 0 64 64" width="64" xmlns="http://www.w3.org/2000/svg"><path d="m44.85 17.76c-3.72-4.31-12.15-3.63-16.19-2.59s-9.9 5.09-11.46 7.9-1.47 7.22.15 10.69 4.75 4.44 7.16 4.87 3.49-.34 3.69-.63.22-.46.5-.28a2 2 0 0 1 .37 1.81c-.19.81 1 .94 1.44.94s.49 1.73.49 3.29-.69 2.78.56 4.06 3.32 2.63 7.44 1.18 4.47-3.72 4.75-4.94a3.36 3.36 0 0 0 -.75-2.99 18.42 18.42 0 0 1 -2.32-4c-.09-.62.1-.84.35-.84a4.59 4.59 0 0 0 1.44-.38c.71-.28-.19-1.65-.69-1.93s1.37-1.35 2.12-1.63 1.5-.94 3-3.19 1.67-7.03-2.05-11.34zm-16 17.78c-.09.78-.14.75-.59.59a4.14 4.14 0 0 1 -1.31-.5c-.82-.43-1.29-1.34-1-1.59s1.87.06 2.59.41.46.31.31 1.09zm.41-1.54c-.13.28-1.91-.6-2.91-.91s-.25-1.12.06-1.56.43-.44.63-.19 2 .53 2.5 1 .22.56 0 .84-.16.49-.28.82zm2.09-3.1c.35.47-.65 1.07-1 1.25s-.44-.18-.78-.53a3.74 3.74 0 0 0 -1.69-1.09c-.81-.22.08-1 .5-1.1a8.14 8.14 0 0 0 1.35-.56c.34-.2 1.27 1.51 1.62 1.98zm.63-3c.4-.34 1.18-.22 1.18 0a5.55 5.55 0 0 0 .32 1.72c.22.38-.28.56-.88.78s-.5.38-.69.31-.56-1.15-1-1.81.6-.65 1.09-1.05zm10.75 15.39c.28 1.06-.94 2.84-4.32 4.53s-5.65-.44-5.87-1.22a2.36 2.36 0 0 1 .94-2.18 14.32 14.32 0 0 1 3.4-1.91c3.12-.97 5.57-.28 5.85.78zm-1.38-2.81c.53.75-.12.5-1.4.47a10.9 10.9 0 0 0 -3.79.43 12.4 12.4 0 0 0 -3.93 2.47c-.23.25-.41-2.85-.41-3.85s0-2.34.5-2.41a2.6 2.6 0 0 0 1.68-.59c.84-.59.8-1.78 1-1.84.53-.16.81.56 1.44.93s1.28-.65 1.43-.81.41-.25.85 0 .93.63.81.85 0 .34.25 1.37a10.36 10.36 0 0 0 1.57 2.98zm-1-5.41c-.44-.09-1.15-.78-2-1.09s-1.34.44-1.5.72-.47-.07-.75-.38a1.35 1.35 0 0 0 -1.68-.25 2.11 2.11 0 0 0 -.88 2c0 .63-.78.28-1.94.6s-.68 2.06-1.09 2.68-.72-.18-.91-.56a3.5 3.5 0 0 1 .16-1.79 19.58 19.58 0 0 1 .24-2.55 9.18 9.18 0 0 1 3.09-3.16 5.83 5.83 0 0 1 6.13 1.22 6.91 6.91 0 0 1 1.91 2.49c.03.29-.34.17-.78.07zm-6.65-7.15c0-.6.65-.63 1-.63a8.57 8.57 0 0 1 1.25 0c.4.06 0 1.16-.1 1.63s-.28.62-.59.62-.78.16-1.06.19-.47-1.22-.5-1.81zm3.06-.22c.22-.32.57.09.9.09a2.83 2.83 0 0 1 .91.44c.22.19-.34 1-.59 1.44s-.28.62-.5.46-.44-.25-.82-.5-.12-1.63.1-1.93zm2.12 2c.38-.53.55-.93.78-.69a3.3 3.3 0 0 1 .6 1.13 1.82 1.82 0 0 1 -.19 1.37c-.28.38-.37-.12-.94-.5a.81.81 0 0 1 -.25-1.28zm6.72-2.7a6.47 6.47 0 0 1 -2.19 3.43c-.43.29-.59.57-.78.29s-1-2.82-1.87-3.47-5.44-2.25-8.76-1.33a14.93 14.93 0 0 0 -6.91 4c-1.34 1.43-1.25 6.15-.69 6.62.25.2-3.5-.91-4.15-1.72a17.2 17.2 0 0 1 -2.13-7.12c-.25-3.07 1.35-4.53 2.75-6s5.53-3.79 6.94-4.38 7.89-1.25 10.19-.94a10 10 0 0 1 6.75 4.19 7.18 7.18 0 0 1 .85 6.43zm-24.03-4a7.24 7.24 0 0 0 -2.16 4.56c-.12 1.85 1.06 1.92 1.54 1.75 1-.34.34-.94.56-2.12a6.38 6.38 0 0 1 2.49-3.71c1.19-.69 2.47-1.22 1.59-2.16s-2.83.44-4.02 1.68zm12.28 15.23c-.27-.09-.69.37-.34 1.62s.5 1.44.9 1.32.29-.85.22-1.72-.5-1.13-.78-1.22z" fill="#1d1d1b"/></svg>