<svg height="64" viewBox="0 0 64 64" width="64" xmlns="http://www.w3.org/2000/svg"><path d="m46.19 19.72c-2.75-1.17-6.33.16-6.33.16-1.86-7.08-9.86-5.33-13.67-3.75a8.24 8.24 0 0 0 -4.58 5.75c-2.67-1.25-7.58-.58-9 5.42s6.33 8.92 6.33 8.92 3.25 8.66 4.25 10.58 4.17 2.25 6.5 2.33a49.17 49.17 0 0 0 6.59.09c4.41-.17 5.33-3.34 6.25-5.25s3.25-8.34 3.25-8.34 4.16 0 5.5-5.83a8.34 8.34 0 0 0 -5.09-10.08zm-5.41 23.91c-1.42 2.59-1.67 3.75-5.42 3.75s-9.92-.5-10.5-1.08-4.08-9.3-3.67-10.17c0 0 3.42 0 5.25-1.41 0 0 7 4.33 11.67-1 0 0 3.25 2.83 5.17 2.41a37 37 0 0 1 -2.5 7.5zm7.75-11.91c-1.34 1.66-4.67 2.58-6.09 2.08s-2.25-.58-3-1.5-.66-1.58-1.33-1.58-1.5 2.83-3.58 3.16-5 .34-5.75-.25-1-2.16-1.5-2.33-1.25 1-1.75 1.58-2.67 1.25-4.34 1.25-3.5 0-5.25-2-2-4.33-.91-6 2.33-2.58 3.41-2.58c.92 0 2.92.08 3.75 1.25s1.09 2.67 1.84 2.67 1.41-.34 1.16-1.34-2.19-3.41-1.58-4.58a8 8 0 0 1 4.39-4.17c2.5-.83 5.25-1.16 6.91-.41s3.17 2.33 3 4.25-.41 3.33.5 3.58 1.34-.25 1.59-1.33 2.08-2.09 3.16-2.09 5.09.42 5.84 3.42.86 5.25-.47 6.92zm-19.75 7c-.25-1.09-.83-1.37-1.25-1.09-.75.5-.17 1.59.41 3.17s1.09 2.92 1.59 2.92.83-.5.58-1.25-1.11-2.67-1.33-3.75zm8.66-2.09c-.66-.16-1.25 1.09-1.83 3.59s-.25 3.41.17 3.41.33-.25.66-1.25.67-2.5 1.09-3.5.47-2.12-.09-2.25z" fill="#1d1d1b"/></svg>