<svg height="64" viewBox="0 0 64 64" width="64" xmlns="http://www.w3.org/2000/svg"><path d="m46.62 31a3.89 3.89 0 0 0 1.25-2.2 23.14 23.14 0 0 0 .59-7.17 14 14 0 0 0 -11.17-9.29c-7.46-1-13.58.75-16.08 2.25s-6 5.5-5.75 9.66 6.29 7.17 6.58 7.21a35.54 35.54 0 0 0 -2 6.42c-.54 3-.62 6.79.83 9.67s6 4.08 10 4.29a34.51 34.51 0 0 0 12.79-1.38c4.09-1.41 4.84-7.54 4.8-9.37s-2.84-8.79-3-9.09.62-.55 1.16-1zm-13.41-16.22a4.74 4.74 0 0 1 2.25.42c1.21.42.79 1.33.12 1.83s-.62.3-.62.13-.34-.16-1.17-.16a6 6 0 0 1 -3.37-.5c-1.25-.63 1.7-1.65 2.79-1.72zm12.29 30.92c-.92 1.75-1.67 2.88-3.88 3.42a54.14 54.14 0 0 1 -10.5.75c-3.58 0-7.62-.59-8.87-4.25s-.58-6.09.12-9.17 1.88-7.29 3.17-8.08a13.82 13.82 0 0 1 7.46-1.25c2.29.46 6.42 2.21 6.83 1.66s.79-.79 0-1.25a28.2 28.2 0 0 0 -6.75-1.66 22.66 22.66 0 0 0 -5.5.5 8 8 0 0 0 -3.79 1.75c-1 1-1 1.54-1.46 1.46a25.12 25.12 0 0 1 -2.83-2c-.87-.66-2.67-2.2-.58-3.12s5.75-1.72 11.91-1.46 12.17 1.83 13.75 3.16 1.79 2.17 1.42 2.75-1.17 1.54-1.33 1-.88-1.75-1.59-1.33-.71 1.37 0 3.08a84.23 84.23 0 0 1 3.17 8.63 7.26 7.26 0 0 1 -.75 5.41zm-24.3-20.09c-.13-.41-.44-.38-1-.31-.28 0-.41.43.09.65s1.03.05.91-.34zm.34 1c-.31 0-.69.34-.31.62s.59.16.84-.09-.15-.5-.53-.56zm1.75-.82c-.42 0-.69.79-.25.91a.85.85 0 0 0 1-.44c.06-.26-.28-.46-.75-.5zm.59-.81c.16-.25-.15-.5-.53-.5s-1.12.53-.47.72.85 0 1-.2zm1.79-.34c.56.19 1.18.09 1-.19s-.1-.45-.67-.45c-.27 0-.9.42-.33.61zm.18.69c-.43-.08-.78.71-.09.81s1.16-.31 1-.56-.53-.22-.91-.28zm3.28-1.38c-.22 0-.68.53 0 .72s.91-.28.79-.41-.1-.37-.79-.34zm.07 1.19c-.34-.07-.78.31-.28.44s.93.06 1-.13-.41-.28-.72-.34zm3-1.06c-.69-.05-.88.46-.35.71s1 0 1-.25-.18-.46-.68-.49zm3.15.59c-.53-.06-.56.5 0 .72s.75 0 .78-.28-.03-.38-.81-.47zm5.1.66c-.29-.29-.47-.19-.94-.29s-.75.72 0 1 1.19-.46.91-.74zm.75 2.59c.68.31 1.15.06 1-.34s-.29-.35-.69-.41-1.03.41-.34.72zm1.68-.31c.6.31.78-.13.85-.35s-.22-.62-.57-.65a.53.53 0 0 0 -.31.97zm-2.68 5.18c-.51-.16-.57 2.16.06 3.85s2.62 6.31 1.65 7.4-1.75 1.32-1.37 1.82 2.34-.47 2.69-1.75-.31-3.11-1.23-5.81-1.24-5.3-1.83-5.54z" fill="#1d1d1b"/></svg>