<svg height="64" viewBox="0 0 64 64" width="64" xmlns="http://www.w3.org/2000/svg"><path d="m50.69 38.17a1.8 1.8 0 0 0 -.5-.94c-.5-.63.31-.69.87-1.44a1.83 1.83 0 0 0 -.12-2.31c-.5-.38.5-2.56 1.25-4.25s.19-6.31.06-7.31a3 3 0 0 0 -1.31-1.75l.81-1.17c.81-1.12-2.56-4.37-6.37-5.25s-13-1.31-19.75-.69-12.57 3.13-13.82 5.13.94 3.62.94 3.62c.06.75-.37 5.38-.25 8.57s2.38 3.06 2.38 3.06c-2.13 2.06.75 3.75.75 3.75-.82.56-.25 2.19-.25 2.19s-.88-.32-1.88 2.12a2.24 2.24 0 0 0 1.56 3.13c-1.31 1.18.19 3.25.19 3.25a3 3 0 0 0 -.19 2c.19 1.5 6.75.56 8.88.43s8.25 1.19 12.87.75 8-.12 11.69-.18 2.31-2.88 2.31-2.88l1.13-1.38c1.12-1.37-.06-2.81-.13-3a14.19 14.19 0 0 0 .69-2.75c.13-1.58-1.81-2.7-1.81-2.7zm-36.81-19.38c.56-1.19 4.18-3.06 8.31-3.75a67 67 0 0 1 10.19-.62c3.93-.13 11.56.43 15.43 2.25s-.18 3.37-2.68 4.25a56.9 56.9 0 0 1 -12.44 1.81 87.51 87.51 0 0 1 -14.19-1c-4.81-.81-5.19-1.73-4.62-2.94zm1.31 12.44c-.88 1.06-.94-6.31-.75-7.13a.94.94 0 0 1 1.37-.68c1.38.62 6 .5 11.44.87s9.81-.75 14.63-.94 8.18-2.43 8.62-2.43.31 2.43.31 4.37-.06 1.71-1.18 4.71-1.63 1.67-2.19 1.67-.31-.19-.31-2.82-3.13-2-3.94-1.37-.75 3.44-.5 6.75-.5 4.77-1.19 4.87-.44-4.93-.44-6.87-.56-2.75-2.37-3.5-5.25 2.27-5.88 2.75-1.75.06-2.31-.56-1.56-2.32-2.56-2.32-4.13 3.13-5.19 3.19-2.19-2.75-3.87-3-2.82 1.38-3.69 2.44zm29.06-.56c-.25-1.13-.13-1.25.31-1.25.82 0 1.25 1.12 1.25 2.62s2.63 1.38 3.63 1.63-.13 1.37-1.19 1.62a19.48 19.48 0 0 1 -3.56.5c-.88 0-.19-4-.44-5.12zm-26.31 2.75c1.75 0 4.19.43 6.37.43s6-.18 8-.12 5.45.47 6.25.56c.57.06.63.81.25 1.63s-5.93-.07-7.25-.38-4.93-.19-7.93-.06a34.09 34.09 0 0 1 -6.88-.13c-2-.35-.56-1.93 1.19-1.93zm.25-2.75c.62.06.62.25 1.25.81s-1.06.06-1.88.06.19-.92.63-.87zm9.37-.25c.88 0 .44.37 1.13 1.37s-.75.63-2.25.69.56-2.06 1.12-2.06zm7.75 2.25c-1.31-.32 1.5-2.44 2.25-2.57 0 0 .5-.37 1.57 1.44s-2.5 1.46-3.82 1.13zm12.32 16.56a42.7 42.7 0 0 1 -6.94-.13c-1.5-.12-5.69.63-7.88.63s-7.25-.5-10.43-.5-4.38.44-5.13-.13-.12-1 1.69-1.25 4-.18 6.06-.37 5.38-.48 6.19-.48c1.81 0 1.69.38 3.25.5s8.94.06 11.31.13 2.88-.13 3.56.43-.37.94-1.68 1.17zm2.62-3.23c-.31.37-1.81.19-2.94.19s-3.18-.25-5.06-.25-7.44-.25-9.56-.5-7.94.37-9.5.56a54.81 54.81 0 0 1 -6.5.19c-1.81-.07.62-1.38.62-1.38a18.63 18.63 0 0 1 2-.5c1.07 0 6.63.25 11.07.31s8.56-.75 10.06-.62 3.94.62 6.31.75a11.21 11.21 0 0 0 3.56-.44c.63-.02.25 1.29-.06 1.69zm.69-4.13c-.19 1-1.81 1.13-3.13 1.25a14.71 14.71 0 0 1 -5.87-.43c-3-.75-5.56 0-8.06 0s-7.57-.13-10.94 0-7 .06-8.06-.63.75-.81 2.62-1.31a25.86 25.86 0 0 1 6.13-1.13c.62 0 7.56.13 8.81.19s3.56.38 4.56.38a7.45 7.45 0 0 1 3.19.43 2.37 2.37 0 0 0 2.62-.12 3.14 3.14 0 0 1 2.25-.38c.63 0 3.25 0 4.57-.06s1.5.79 1.31 1.79zm-28.46-22.45c.08-.3-.87 0-1.58-.13s-.17-1 .25-1.17 1.22.25 1.33-.2c.5-2.05-3.12 0-3 1.5s2.92.29 3 0zm6-.5c.71.25.13-1.05.83-1.3s.75 1.09 1.38 1.3.46-1.34 0-2.13-2.14-.3-2.42.13c-.46.62-.5 1.75.21 2zm5.42.87c.37.17-1 1.13-.92 1.5s1 0 1.75-.75-.5-2.08-1.5-1.79-1.36 1.77-.92 2 1.21-1.13 1.59-.96zm6.25-.92c-.67-1.33-.09-1.79.5-1.62s.21 1.25.5 1.37.33-.95.37-1.75-1.37-1.5-2.5-.25 1.34 2.69 1.13 2.25z" fill="#1d1d1b"/></svg>