<svg height="64" viewBox="0 0 64 64" width="64" xmlns="http://www.w3.org/2000/svg"><path d="m27.19 33.48c-1.87 1.25-.25 2.43.38 2.37s.87-1.5.87-2.06-.8-.61-1.25-.31zm3.88 1.43c-.69.07-1.63 0-2.19 2.19s.94 3.25 1.81 3.19 2.63-1.19 2.81-2.06a5.29 5.29 0 0 0 -.43-2.75c-.25-.48-1.19-.64-2-.57zm.12 4c-.5 0-.44-.06-1.12-.62-.35-.28-.13-1.31.31-1.13a1.32 1.32 0 0 0 1.19.07c.56-.19.87-.44.93.18a1.72 1.72 0 0 1 -1.31 1.5zm2.13-13.81c.87.06 1-.37 1.25-.87s-.46-1.38-1.32-.75c-.68.52-.81 1.52.07 1.62zm-3.38 5.9a3.49 3.49 0 0 0 2.19-2.57 1.81 1.81 0 0 0 -.94-2.06 4.84 4.84 0 0 0 -2.06-.69c-1 0-2.13.82-3.19 2.13a2.37 2.37 0 0 0 .38 3.44 4.25 4.25 0 0 0 3.62-.25zm-3.25-2.19a7.89 7.89 0 0 1 1.88-1.56 6.73 6.73 0 0 1 1.93.25c.5.18.57 1.25-.31 2a3.09 3.09 0 0 1 -2.69.75c-.81-.25-1.18-.84-.81-1.46zm7.69 1.81c-.44-.37-1-.08-1.5.38-1.38 1.31-.06 2.18.44 2.18s.75-.87.87-1.12.31-.19.75-.56-.12-.5-.56-.9zm7.56-6.62c-.44-.13-.81-.5-1.19-.19 0 0-.43.63-.12.94s.69.37 1.44.06.31-.65-.13-.81zm5.81-6.5c-1.06-.88-4.06-1.75-7-2.44a36.59 36.59 0 0 0 -7.62-.75c-1.94-.06-9 0-12.06.25s-6.19 2.06-6.88 5.5 3.81 5.1 3.81 5.1c.94.94 5 10.13 7.25 15.25s4.32 9.19 4.69 9.25 1.06-.18 1.81-1.81a107.27 107.27 0 0 1 6.07-11.37c2.75-4.32 7.43-12 7.43-12s.25.43 1.32.5 3.31-1.63 3.31-3.07a6.75 6.75 0 0 0 -2.13-4.37zm-5.37 8.87c-.94 1.57-3.69 6.13-5.25 8.88s-4.38 7.12-4.38 7.12a2.07 2.07 0 0 1 -.56-.93c-.19-.63-1.31-.32-2.12.5s.43 2.12.87 2.12.69-.5.88-.19-.94 3-1.25 3.32-.94-1.38-3.07-5.82-7.06-15.25-7.43-16.06a1.54 1.54 0 0 1 .81-2 8.07 8.07 0 0 1 2.44-.25c-.94 0-1.75 1.31-1.57 2.69s2.25 2.1 3.44 1.25a3.69 3.69 0 0 0 1.38-2.38c.93.57 2.68.07 3.5-.56s1.93-1.75 3.68-1.62 2.32 1.81 3 2.18 2.19-.5 3.44-1.25a3.91 3.91 0 0 1 3.38-.31c.87.35-.25 1.79-1.19 3.35zm-18.56-1.83c.41-.43.5.37.93.56s.38.63-.12.75-2.06 0-.81-1.31zm22.93-1.38c-.75-.37-2.56-1.93-3.62-2.12a8 8 0 0 0 -3.94 1c-.69.44-1.25.81-1.81.62s-1.19-2.25-4.63-2.25a5 5 0 0 0 -2.68 1.44c-.69.75-1.38 1.5-2.19 1.38s-2.75-2-5.38-1.88-3.68 1.94-4.37 1.88-2.81-1.5-2.19-3.32 2.13-3.68 6.75-3.62 12-.31 13.81-.13a29.5 29.5 0 0 1 7.38 1.75c2.69 1.07 4.5 2.44 4.44 3.75s-.82 1.88-1.57 1.5zm-9.93 2.44a10.9 10.9 0 0 0 -1.94 2.25c-.19.19-.94.69-.19 2s1.88 1.25 3.06.56 2.13-1.25 2.19-2.31a4.19 4.19 0 0 0 -.69-2.62c-.43-.63-1.62-.48-2.43.12zm1.68 2.69c-.68.75-1.37 1.44-1.87 1.44s-.81-.94-.19-1.88a2.32 2.32 0 0 1 1.81-.94c.63 0 .94.63.25 1.38z" fill="#1d1d1b"/></svg>