<svg height="64" viewBox="0 0 64 64" width="64" xmlns="http://www.w3.org/2000/svg"><path d="m52.25 31.76c-1.41-.17-3.91.17-4.08-.17s.25-5.25-.33-8.16-4.09-2.34-6.09-2.34-7.33-.16-7.33-.16a4.56 4.56 0 0 1 -.17-1.75c.17-.59.84-.25 1.67-.84s.58-1.83-.83-2.33a15.29 15.29 0 0 0 -7.25.17c-1.75.66-2 2.25-.59 2.83a2.17 2.17 0 0 1 1.25 2.5c-.08.5-2.75.5-4.33.58s-5.67.91-5.67.91a3 3 0 0 0 -2.5 3.59 49.93 49.93 0 0 1 .17 5.67s-1.67 0-3.83-.17-2.59 2.17-2.5 4.67 5.25 1.83 6.16 2 .5 5.25.67 6.83 1.58 2.75 5.83 2.75 22.5-.25 24-.58 1.59-3.58 1.75-4.92-.25-5.16 0-5.16 4.25 0 5.09-.09.75-1.5.83-3.41-.5-2.25-1.92-2.42zm-35.75 6c-.16.33-2.91 0-4.58-.25s-.83-2.08-.83-3.17.58-1.34 1.66-1.34 3.5.17 3.5.17c.5-.08.42 4.26.25 4.59zm16.17-18.42c0-.83.25-2.66.25-2.66a13.07 13.07 0 0 1 .42 2.5c0 .91.08 1.83-.34 1.91s-.33-.91-.33-1.75zm-1.25-2.58v4.58h-.33l-.17-4.66zm-13 8.17a58.37 58.37 0 0 1 13.5-2c6.08-.09 13.83-.67 14.33.66a6.37 6.37 0 0 1 .17 3c0-.08-.18-.55-6-.32-6.33.25-12.17.75-16.58 1.17a53.17 53.17 0 0 1 -6.25.33s-.25-2.51.83-2.84zm28.25 4.25a29.33 29.33 0 0 0 -.33 3.91c-.09 2.09.08 7.92 0 10.75s-1.17 2.34-1.67 2-.17-4.41-.25-8.5.33-5.83-.33-6.08-1.17.5-1.34 1.83-.16 7.09-.16 9 .08 3.42-.42 4-6.17.34-10.67.34a99.08 99.08 0 0 1 -12.5-.92c-1-.25-.5-3.83-.66-6.58s-.87-8.71-.5-8.92a30.5 30.5 0 0 1 6.33-.67c.92.09.75 1.25.67 2.92s.08 4.17 0 7.08-.09 4.17.75 4.17.75-3.42.5-6.33a46.75 46.75 0 0 1 .33-7.92c.08-.58 11-1 12.17-1.17s1 1.59 1.16 5.17.17 5.42.59 5.67 1-.34 1.25-2.5 0-7.84.25-8.42 3.25-.58 4 0 .91.92.83 1.17zm5.83 7.41c-.58.42-2.66-.08-3.66-.08s-.84-1.51-.84-2.33.27-1.22.59-1.34a12 12 0 0 1 3.83.17c.92.17.67 3.17.08 3.58zm-29.75-1.5c0-1.83.5-4.91-.5-4.91-.25 0-.25 1.58-.25 3.5s.25 5.16.34 6.75-.17 3.33.41 3.33.84-2.75.75-4.17-.75-2.66-.75-4.5z" fill="#1d1d1b"/></svg>