<svg height="64" viewBox="0 0 64 64" width="64" xmlns="http://www.w3.org/2000/svg"><path d="m57.93 44.42c0-1-3.43-.43-4.06-.43s-.37-6-1.37-11.13-5.94-10.94-9.13-12.44-6.81-1.37-7.81-1.5-.63-.93-.63-1.31 1.13-.5 2.07-.5.62-3.31.62-4.44-.94-1.25-1.87-1.25-7 .32-8.5.44-1.07 2.75-1.07 4.06 1.63 1.57 2.57 1.5.81 1.07.81 1.75-1.38 1-2.75 1.38a18.18 18.18 0 0 0 -6 3c-2.17 1.67-7.33 7.42-9.17 13a14.27 14.27 0 0 0 .09 9.75s-4 0-5.05.08-.62 4.56-.5 5.69 8.88.19 21.25-.44 27.07-.56 28.75-.69 1.75-1.37 1.82-2.5-.07-3.02-.07-4.02zm-29.12-28.68c-1.56.06-1.06-.94-1.06-1.63s2.06-.44 3.68-.5c0 0 1.94-.06 3.13-.06s1.44.5 1.25 1.44-.5.68-2.63.68-2.81 0-4.37.07zm-15.75 21.43c1.06-3.75 5.81-9.68 8.06-11.68a20.94 20.94 0 0 1 9.69-4.63c3.56-.56 12-.5 15.31 4.06s4.81 7.75 5.25 10.63a45.93 45.93 0 0 1 .13 7.62c0 .82.18 1.07-.69 1.19s-11.88-.25-18.06.31-15.07 1.33-15.82 1.33c-1.37 0-3.31-.19-3.75-.82s-1.18-4.26-.12-8.01zm43.25 11.63c-.13.62-4.5.5-11.25.75s-16.44.19-22.13.56-13.31.75-14.43.81-.82-1.31-.75-2.43 1.37-.57 2-.57c1.12 0 15.93-1.12 24.87-1.62s19.81-.63 21-.63.81 2.5.69 3.13zm-38.44-8.56c1 .25 1.25-.63 1.25-1.44a15.33 15.33 0 0 1 2.19-6.25c1.31-1.69 4.69-3.38 6.06-3.81s2.31.12 3-.57-.62-1.87-3-1.5a12.33 12.33 0 0 0 -6.81 3.88 11.48 11.48 0 0 0 -2.81 5c-.63 2.19-.88 4.45.12 4.69z" fill="#1d1d1b"/></svg>