<svg height="64" viewBox="0 0 64 64" width="64" xmlns="http://www.w3.org/2000/svg"><path d="m27.1 24.85c.44.06.57-.12.63-1.21s.5-2.62 0-2.79-.61.31-.84 1.65-.45 2.27.21 2.35zm1.77 6.61c.57.45.9.64 1.15.31s-.35-1-.92-1.52-.68-.6-1-.34.21 1.09.77 1.55zm.21-2.63c0 .54 1.09.5 2.31.38a8.91 8.91 0 0 0 3.17-.69.67.67 0 0 0 -.48-1c-.46 0-1.5.08-2.75.23s-2.28.64-2.25 1.08zm-2.79 1.17c-.4 0-.46.46-.48.91s.15 1.07.56 1a.73.73 0 0 0 .67-.84c-.04-.43-.29-1.07-.75-1.07zm3.88-4.23a12.37 12.37 0 0 1 2-2.06c.5-.36.6-.75.31-1.09s-.88 0-1.86 1-2.33 2.11-1.79 2.61c.24.26.73.33 1.34-.44zm-5.05 2.77c.59.75 1.63.54 2.38-.17s.92-1.46.33-1.87-1.91-.09-1.91-.09c-.67.36-1.38 1.4-.8 2.15zm-1.45-3.27c1 1 1.17 1.16 1.43.87.57-.6-1-1.64-1.58-2.31s-1.06-1.17-1.4-.69.5 1.17 1.55 2.15zm29.81-5.56a20.73 20.73 0 0 0 -.94-7.82c-.37-1.18-1-.62-1.5-.18s-.75.12-2.69.56a31.81 31.81 0 0 0 -7.93 3.37 11.34 11.34 0 0 0 -4.94 5.57c0 .18-.69 0-2.19-1.57s-3-1.43-7.44-1.31-8.56 3.21-10.75 6.67.32 7.44.32 7.44a18.32 18.32 0 0 0 -3.94.31c-1.5.37-.94 5.44-.94 7.81s2.31 2.69 3.13 3.19.87 4.25 1.43 6.85 5.9 2.13 13.38 2.19 14-.25 17.44-1.25 2.25-7.13 2.25-7.81 1.37-.57 2.75-.82 1.08-1.18 1.08-2.81.13-6.75 0-7.75-2.06-.87-2.94-.81.32-1.63 1.32-3a25 25 0 0 0 3.1-8.81zm-36.61 6.2c1.05-1.91 3.75-3.91 5.92-4.81a17 17 0 0 1 8.5-.33c1.67.54 4.42 3.66 4.63 5.29s.5 3.54.12 4.33-.58 2-.87 2-9.38.42-10.88.46c-2.79.08-3.42.13-4.92.08s-1.83-.12-2.29-.91-1.25-4.17-.21-6.09zm28.67 23.41c-.87 1.12-3.34 2-9.78 2s-8.76-.32-12-.32-5.76-.46-6.56-1.06-1.25-3.4-1.47-4.18-.66-1.47-.16-1.63 5.13-.09 7.88 0a70.83 70.83 0 0 0 9.72.25c4.84-.28 6.09-.12 8.9-.37s4.16-.5 4.16.37.19 3.81-.69 4.94zm3.38-16.44c.87 0 1.34 0 1.4 1s.13 3.22.22 5-.09 2.5-.94 2.59-11.5 1-15.81 1.29-7.84-.66-10.66-.5-6.09.21-7.93.15-3-1-3-2 .12-4.25.12-4.25c0-1.06.07-2.06 1.53-2s8.44.5 13.35.25 11.44-1 15.22-1.34a40.23 40.23 0 0 1 6.5-.19zm-1.71-2.11a1.22 1.22 0 0 1 -.92.66c-.33 0-4.75.3-5.46.34s-1 0-1 0a21.75 21.75 0 0 0 1-2.29c.37-1.13.75-2.09 1-1.88a6.63 6.63 0 0 0 2.91 1.17c1 0 2.09-.33 2.05-.92s-1.09 0-2.05-.33-2.91-.58-2.54-1.13 1.63-3.41 2.09-3.25a10.29 10.29 0 0 0 3 .21c1-.08 1.83-.46 1.58-.83s-1.62-.5-2.5-.58-1.79 0-1.42-.38 1.84-2.67 2.42-3.54 1-1.02.63-1.34-.92.5-1.54 1.46-1.63 2.38-1.79 2.29a2.43 2.43 0 0 1 .16-2.08c.46-1 .79-1.12.63-1.25a4.84 4.84 0 0 0 -1.79 2.58c-.21 1.09.08 2.3-.09 2.8a18.6 18.6 0 0 1 -1.41 2.7c-.42.63-.75 1-.88.92a2.32 2.32 0 0 1 -.62-1.83c0-1.21.12-2.71-.34-2.79s-.83 2.45-.54 3.7a3.28 3.28 0 0 0 .83 1.82c.25.25-.08.79-.16 1s-1.09 3.87-1.34 3.91a6.27 6.27 0 0 1 -.83.05c-.54-.05-1.25.41-.83-.8s1-3.12.54-4.62-1.54-3.21-1.33-3.88a10.57 10.57 0 0 1 3.16-4.62 27.61 27.61 0 0 1 6-3.08c1.09-.34 2.46-.59 3-.71s1.92-.25 2.17.37 1.37 6-.42 9.88a57.3 57.3 0 0 1 -3.37 6.27zm-25.36.81c.67-.44 1.36-.85 2.32-1.56s.74-.84.54-1.17c-.42-.67-2 .79-2.82 1.38s-1.12.87-1.12 1.35.42.42 1.08 0z" fill="#1d1d1b"/></svg>