<svg height="64" viewBox="0 0 64 64" width="64" xmlns="http://www.w3.org/2000/svg"><path d="m43.29 42.16c-.75-4.13-2.94-16.38-2.94-16.38a5 5 0 0 1 1.94-.62c1.31-.16.62-2.16-.44-3.16s-.19-1.19-.19-1.19c3.07-2 .88-5.18-.37-6.43s-4.94-2.38-8.69-2.53-7.31.5-10.31 3-.13 5.68.56 6.43-.31 1.38-.85 2.72 2.12 2 2.12 2-3.56 18-4 21.57 4.5 4.31 7.81 4.5a96.75 96.75 0 0 0 12.19-.38c4.98-.34 3.88-5.41 3.17-9.53zm-19.23-18.16c-.71-.25.13-1.25.38-1.66s.29-.28.5-.25a14.34 14.34 0 0 0 4.54-.09c.46-.17-2.59-.29-5.21-1.67s-.42-5 1.21-5.58a19.31 19.31 0 0 1 7-1c2.66.17 5.41.67 7.08 2a2.83 2.83 0 0 1 .25 4.25c-1 .71-4.08.63-4.17 1s2.88.46 3.42.5.79 1 1.42 1.71-1.09 1-2.75 1.33a30.34 30.34 0 0 1 -5.5.5 35.62 35.62 0 0 1 -8.17-1.04zm15.63 26a39.45 39.45 0 0 1 -8.55.63c-4.54-.21-7.58-1.29-8.45-2s-.46-2.83-.42-3.38 1-6 1.21-6.62 2-10.92 2.25-12 .5-.46.75-.42c0 0 3.79.5 5.46.59a24.68 24.68 0 0 0 5.95-1c1.13-.34 1.55 4.16 2 7.25s1.8 9.16 2.13 12.21-1.02 4.65-2.33 4.74zm-11.8-21.88c-.42 0-.66-.25-.95 2.08s-1.09 12.42-1.3 13.21-.41 2.5.63 2.58 1.29-.83 1.5-5 .79-9.38.92-10.5.31-2.33-.8-2.37zm2.71 7.41c-.39-.13-.79 1.29-1.16 4s-.55 5.17.56 5.47 1.33-.83 1.33-3.54.15-5.64-.73-5.93zm-2.25-19.83c-.71 0-1.33.37-1 .92a1.29 1.29 0 0 0 1.17.66c.33 0 1.08-.62 1-1a1.14 1.14 0 0 0 -1.17-.58zm3.92 1.75c.42-.08 1-.42.92-.83s-.25-.88-1.09-.88c-.33 0-1.12.42-.91 1.08a.82.82 0 0 0 1.08.63zm3.42.21c.5 0 1.25-.42 1.2-1s-.37-.79-1.08-.79a.92.92 0 0 0 -1 .87.88.88 0 0 0 .88.92z" fill="#1d1d1b"/></svg>