<svg height="64" viewBox="0 0 64 64" width="64" xmlns="http://www.w3.org/2000/svg"><path d="m53.54 26.82s.33-.92-.33-1.38-1.42.29-1.42.29-.21-.46-1.25-.79-2.12 3.42-2.12 3.42a7.11 7.11 0 0 0 -1.92-.67c-1.67-.46-5.08 1.75-7 3.46a60.53 60.53 0 0 1 -6 4.29l.21-1.44c.79-2.58-.42-3-.42-3s2.42-3.12 5-7.16 1-6.84-.71-7-3.42 1.54-4.25 3.5-2.42 9.79-2.42 9.79a6.63 6.63 0 0 0 -2 .67c-1.21.58-2 3.41-2.25 3.54s-3.41-3.33-5.37-4.17-5 0-5 0c.12-.91.2-2.2-.46-2.91s-1.63.5-1.63.5a2.06 2.06 0 0 0 -1.5-.46c-.91.08-1.46 1.58-1.46 1.58a4.7 4.7 0 0 0 -1 .34c-.87.33-.75 1.45.29 1.58a7.94 7.94 0 0 1 2.8 1.62 9.74 9.74 0 0 0 -.88 2.8c0 1 .33 4.16 2.42 5.91a23.69 23.69 0 0 0 15.41 5.88 24.77 24.77 0 0 0 17.72-7.78 9.9 9.9 0 0 0 2.71-7.58 29.45 29.45 0 0 0 3.71-3.33c.41-.75-.88-1.5-.88-1.5zm-19.62-4.82c.79-2.45 2.87-4 3.87-3.7s.58.45.5 2.45-2.75 5.34-3.79 6.42-2.51 3.3-2.63 3.08c-.45-.81 1.25-5.77 2.05-8.25zm-5 10.75a5.75 5.75 0 0 1 1.45-1.45s.42-.38 1.55.16.91 2.34.7 2.84-1.95-.34-2.87-.67-1.25-.27-.83-.86zm-14.84-2.1c-.25-.21-.54-.21-1.25-.63s.13-.58.42-.58c0 0 1.17-.08 1.21.25s-.13 1.17-.38.96zm29.38 9.87a22.23 22.23 0 0 1 -14.21 4.48c-5.83 0-11.75-3.66-12.67-4.66s-3-4-1.87-6.34 3.12-2.37 4.71-2.33 3.7 1.83 3.7 1.83c.21 1.34-.58 3.21-.62 3.75s.21.67.67-.08a6.47 6.47 0 0 0 .66-2.5c.09-.71 1.29.17 1.67.63s.58.5.33 1.08-.29 1.71.29 1.92.88-1.42 1.3-2.42 1.08-1.88 1.79-1.27-.34 1.62-1.17 3-.87 1.71-.29 2.08.87-.58 1.5-1.67 1.54-2.79 2.33-2.62.13 1.83-.41 2.87-1.05 1.42-.3 1.92 1.84-2.08 2-2.54-.08-1 1.46-.88.54 4.3 1.13 4.38.33-3.38.16-4a1.7 1.7 0 0 1 1.92-1.92c1.63 0 1.83 3.08 2.21 3.29s.37-.54.21-1.71a3.21 3.21 0 0 0 -1.5-2.2c-.59-.42.91-1.25 1.58-1.63s2.29.75 2.92 1.58 1 .46.91.09a4.92 4.92 0 0 0 -1.62-2c-.83-.67.25-1.46.92-2s2.08 1.29 2.37 1.66.46-.21.5-.58a2.08 2.08 0 0 0 -.79-1.58c-.5-.3 1.37-.42 2.29.12a2.89 2.89 0 0 1 1.25 3c-.12 1.5-1.58 4.38-5.33 7.25zm6.91-11.08c-.29.08-.2-.21-.12-.75s.33-1.25 1-1a2 2 0 0 1 .5.83c.17.48-1.08.84-1.38.92z" fill="#1d1d1b"/></svg>