<svg height="64" viewBox="0 0 64 64" width="64" xmlns="http://www.w3.org/2000/svg"><path d="m57.4 17.32c-.95 0-2.08.71-4.45 2.17s-5.59 3.58-5.59 3.58a9.5 9.5 0 0 0 -2-1.21c-1.17-.5-1.92 0-2.79.67s-.88 2-1.17 1.58-1.83-.37-3.54.25a2.83 2.83 0 0 0 -1.71 2.64 3.16 3.16 0 0 0 -2.62 1.08c-.42.46-.13 2.17-.46 1.75a4.8 4.8 0 0 0 -2.92-.75 5.58 5.58 0 0 0 -3.7 1.33c-1.3 1-.55 4.59-.75 4.67s-.25-.46-.63-1.5-.92-1.17-2.08-1-2.5 2.29-2.75 2.54-.5-.12-1.79 0a3.14 3.14 0 0 0 -2.45 1.24c-.59.67-1.13.46-2.54 1.17s-1.67 3.41-1.84 4.37-3.62 3.1-4.76 4-1.86 1.85-1.08 2.34 7-2.8 7.62-3.25.25-.63 1.09-.75 1 .45 1.33.83.54 0 1.08 0 .59.33 1.25 1.17 3.21.62 4.63-.63 1.33-5 1.33-5a11 11 0 0 0 2.63-.87c1.71-.75 1.21-1.75 1.29-2.29s2.75.16 4.46-.59 1.58-3 1.58-3a20.51 20.51 0 0 0 3.71 1.21c1.5.25.75-1.5 1.46-2.08s2.58.62 3.91 1 1.17-1.92 1.17-2.42.25-.5.88-.5a4.54 4.54 0 0 0 3.95-1.29c1.55-1.62.46-4 .42-4.21s.88-.62 3.29-2.08a23.24 23.24 0 0 0 5-3.67c1.29-1.21.5-2.5-.46-2.5zm-34.79 25.25c-.16.75-.71 2.75-2.08 2.79s-2-.83-2.71-1.25a3.53 3.53 0 0 0 -2.29-.5c-.85.07-2.67-.92-2.71-1.87s-.37-2.92 1.5-3.5a9.48 9.48 0 0 0 3.42-1.88 1.57 1.57 0 0 1 2.33.25 24.09 24.09 0 0 1 2.58 3.33 4.29 4.29 0 0 1 -.04 2.63zm4.17-4.08c-.5.45-1 .66-1 .5s.79-.75.5-.92-1.08.71-1.79 1-1.38.08-.75-.42 1.91-1.16 1.66-1.71-.75.13-1.5.63-1.25.71-1.45.5.83-1.13 1.12-1.25.75-.42.58-.63-1 .21-1.45.5-.55.46-.67.25.54-.83 1-1.16.58-.34.46-.5-1.25.41-1.25.41c-.54.3-1.17.34-.54-.5a5.48 5.48 0 0 1 1.91-1.5.71.71 0 0 1 .92.75c-.08.67-.38 1.05.25 1.42s2.25.63 2.29 1.29.21.85-.29 1.34zm5.87-3.25a2.63 2.63 0 0 1 -2.65 1.29 7.94 7.94 0 0 0 -1.58-.21 1.86 1.86 0 0 1 -1.42-.71 3.44 3.44 0 0 1 -.22-2.61 3.3 3.3 0 0 1 2.22-2.76 2.9 2.9 0 0 1 3.54 1.12 4.22 4.22 0 0 1 .11 3.88zm5.35-4.92c-.34.83-.67 1.25-.5 1.67s.41.7.25.87a8.91 8.91 0 0 1 -1.3.67c-.41.21-1.25 0-.87-.5s1.42-1.13 1.24-1.38-.83-.16-1.42.13-1 .79-1.2.41 1-.95 1.54-1.41 1.08-.63.87-.79-1.25.16-1.66.45-1 .13-.42-.45c.27-.28 1.33-1.3 1.54-1s.54.59.67.3 0-.88.66-.63.88.83.6 1.66zm5.45 1.42c-.12.5-.08 1-.58 1a5.31 5.31 0 0 1 -2-.63c-.33-.25-.42-.58-.79-.58s-1.38.79-1.25.08.62-2.46.33-2.79c-.47-.54-1.83-2.08-1-2.83a3.53 3.53 0 0 1 2.58-.88 2.72 2.72 0 0 1 1.63 2.29 4.89 4.89 0 0 0 .54 2.67c.37.93.62 1.17.49 1.67zm5.21-3.34c-.33.71-.46.84-1.29 1s-2 .46-1.75.29 1.92-1.41 1.67-1.7-1 .37-1.84.91-.95.92-1.41.67-.09-.75.79-1.38 1.87-1.5 1.75-1.66-1.29.5-1.92 1-1 .83-1.16.5 0-1 .7-1.34 2.09-1 1.84-1.54-1.29.38-2 .79-1.17.29-1.34 0-.33-.54.34-1 1.45-.54 1.29-.91-.75 0-1.21-.09c-.18 0 .46-1.25 1.46-1s1.71.59 1.66 1 .13 1.84.71 2 1.21-.29 1.67.13a2.53 2.53 0 0 1 -.01 2.33zm-32.26 6.21c.84-.46.05-1.37-.54-2.08s.09-1.42.88-2 1-.79 1.12-2.25-1.21-5.67-1.86-5.28.12 3.71.71 5-1.34 1.91-2.13 2.75 0 2.2.67 3 .89 1.01 1.15.86zm6.67-4.5c-.5.63-.18.83.25 1 1 .38 1.46-1.08 1.58-2.33s-.5-1.21-1-2.13-.08-1.83.42-2.79.17-1.87-.25-2-.25.17-1.21 2a3.14 3.14 0 0 0 .42 3.83 1.89 1.89 0 0 1 -.21 2.42zm5.42-5.29c.21 1.21 1.2 2.4 1.75 2.33s.46-.75-.25-1.75 0-1.91.71-3.12-.63-4-1.21-3.5.25 2.58 0 3.33-1.21 1.5-1 2.71zm7.16-4.38c.67.92.21 1.46-.41 2.5a1.07 1.07 0 0 0 .46 1.71c1 .17.87-1.37 1.29-2.5s.46-1.58-.92-2.79-.29-3.25-.54-3.54-.67 0-1.42 1.62.89 2.09 1.54 3zm5.8.88c.54 0 .33-.75.33-1.46s.54-2.62-.29-2.5-.64 4-.04 3.96z" fill="#1d1d1b"/></svg>