<svg height="64" viewBox="0 0 64 64" width="64" xmlns="http://www.w3.org/2000/svg"><path d="m55 14.49a15.87 15.87 0 0 0 -2-2.65c-.44-.31-1.28.68-1.82 1.16a32.78 32.78 0 0 1 -2.4 2.43c-.36.14 1.11-3.14 1.23-3.79s-1.73-1.49-3.11-1.81-1.45.17-1.94.95a47.84 47.84 0 0 0 -1.8 5c-1.71.06-2.93 1.58-4.16 3s-4.1 6.14-4.1 6.14-.47-5.53-.47-6.93-1.15-1.75-2.09-1.75-4.46.29-5.45.46-.89 1.56-.89 1.56a9.21 9.21 0 0 0 -4.82-1.36 10.7 10.7 0 0 0 -6.68 2.37 10 10 0 0 0 -3.33 6.56 6.2 6.2 0 0 0 2 4.56c-5.71.73-4.17 3.66-3.77 4.61s2 4.18 2.55 5.68a2.11 2.11 0 0 0 2.46 1.18c.26 0 1.19 3.85 1.89 6.84s1.25 4.38 2.55 5.18 5.4.13 10.56 0 10 .64 12.71.15 3.3-3.32 3.91-6.38 1.31-6.72 1.53-6.8.84.09 1.4 0a2.5 2.5 0 0 0 1.6-1.79c.43-1.16.11-5.35.15-7.66a2.74 2.74 0 0 0 -2.65-2.78c-.55 0 1-1.25 2.49-3.22a2.72 2.72 0 0 0 .23-3.5 1.24 1.24 0 0 1 .39-.46c.24-.16 2-1.82 2.89-2.47s.13-1.27-.27-1.59.05-.63.7-1.37.66-1.16.51-1.52zm-27.48 4.06 5.24-.31.55 14.76-4.63.24zm-12.59 2.9a7.31 7.31 0 0 1 6.41-2.6 7 7 0 0 1 4.66 2.32 6.79 6.79 0 0 1 .3 2.29c-.05.36-.09.56-.33.33s-.38-.17-.63.18a10.21 10.21 0 0 1 -1.34 1.29 1 1 0 0 1 -1.05.21c-.37-.09-.54-.41-.34-.84s.74-2.34.9-2.76.31-.9.12-1.11a.8.8 0 0 0 -.88-.16 11.65 11.65 0 0 0 -1 2.86 15.57 15.57 0 0 1 -.75 2.22c-.16.22-.24 0-.67-.74s-1.67-2.25-2-2.85-.81-.64-1.19-.35 0 .71.19 1.1 1.28 2.08 1.73 2.67.87 1 .62 1.14-1.13-.47-2-.64-2.09-.58-3-.71-.72.16-.86.69.7.7 1.78.87a18.38 18.38 0 0 1 2.94.79c.33.13.51.3.47.5s-1.29.41-1.65.59 0 1.05 0 1.05l-2.79.31a2.54 2.54 0 0 0 -.2-1.21 5.57 5.57 0 0 1 -1.37-1.89c-.68-1.45.71-4.25 1.93-5.55zm9.5 5.09c-.17-.26.7-.7 1-1.07s.8-.79.86-.42.5 3.62.19 3.67-1.14.15-1.44.21-1.19-.15-.92-.36a2.32 2.32 0 0 0 .31-2.03zm-1.5 1.7c-.18.53.14.63-.76.79a1 1 0 0 1 -1.24-1.03 1.44 1.44 0 0 1 1.07-1.24 3 3 0 0 1 .93.2c.6.2.18.74 0 1.28zm22.3 16.12c-.45 2.14-1.22 5-1.5 6.09a2 2 0 0 1 -1.65 1.72 13 13 0 0 1 -3.66.23c-1.69-.07-5.76-.2-8.72-.2s-7.85.31-9.32.33-2.16-2.17-2.61-4.12a26.32 26.32 0 0 0 -2-5.57c-.48-.77-.05-1 .29-1.06.8-.1 6-1 10.15-1.68a27.6 27.6 0 0 1 7.34-.34c1.41.07 3 .31 5.84.26a19 19 0 0 1 6 .5c.77.37.3 1.7-.16 3.84zm3.86-12.18a42.69 42.69 0 0 1 .14 4.5c-.12 1.15-.22 2.6-1.74 2.39s-4.21-1.19-6.11-1.15-2.72.27-6.26.25-6-.27-10.31.53-7.81 1.3-9.13 1.47-2.16.36-2.49-.48l-1.14-2.8c-.34-.84-2-3.76-1.11-4.06a52.65 52.65 0 0 1 6.4-1.28c3-.47 7.41-.82 8.24-1a2.36 2.36 0 0 1 1.17 0s.17 3.32.6 3.79a3.07 3.07 0 0 0 2.49.67c1.27-.06 3.19 0 3.6-.1a1.79 1.79 0 0 0 1.43-1.69c0-1.08-.25-3.11 0-3.14s3.49.38 5.91.44 4.28 0 5.8 0 2.42.48 2.51 1.66zm.34-8.58c-.12.68-.74 1.14-1.65 2.23a24.36 24.36 0 0 1 -2.29 2.76 38.41 38.41 0 0 1 -6 0c-3.08-.26-4.38-.39-4.72-.76 0 0-.14-.87.15-1.2s3.46-4.16 4.48-5.5 3-3.43 3.42-3.27 3.31 2.29 4.57 3.32 2.16 1.74 2.04 2.42zm3.48-7.75c-.43.46-1.66 1.68-1.41 2s.83.52.58.88-.83.64-1.33 1.15-.75 1.12-1.31.57-2.85-2.17-3.61-2.74c-.5-.38-1.68-.73-1.49-1.19s.88-2.4 1.29-3.68.59-1.81 1-1.69a7.86 7.86 0 0 1 1.41.74.52.52 0 0 1 .21.82 10.12 10.12 0 0 0 -1 3.09 1.42 1.42 0 0 0 .77.88c.43.24.91.58 1.15.39s1-1.26 1.88-2.27 1.06-1.54 1.52-1.15a4.8 4.8 0 0 1 .94 1c.17.25-.17.74-.6 1.2zm-13.74 9.45c-.65-.4-1-.18-1.1.18-.2.62.8 1 1.41 1.4s1.22 1.23 1.78 1.12.35-1 0-1.36a12.9 12.9 0 0 0 -2.09-1.34zm2.43-3.14a.7.7 0 0 0 -1 .18c-.32.63.74 1.43 1.58 2s.61.8.81 1.11a.79.79 0 0 0 1.22-.16 1.27 1.27 0 0 0 -.52-1.47c-.56-.44-1.77-1.36-2.09-1.66zm-14.2 24.24a3.62 3.62 0 0 0 -1.32.26c-.71.2-2.28.11-2.16 1.06a5.79 5.79 0 0 0 .47 2.07c.27.42.63.71 1.81.31s2.72 0 2.63-1-.36-2.81-1.43-2.7zm-.61 2.36a10.42 10.42 0 0 0 -1.1.18c-.72.13-.5-.38-.6-.75s.73-.31 1.1-.42c1.11-.34 1.26.1 1.33.48s-.27.47-.73.51zm13.21-8.08a8 8 0 0 0 -2 .22c-.34.09-1.49-.06-1.53 1.11s-.09 2.2.65 2.19 2.46 0 3 0 1-.39.91-1.28.15-2.28-1.03-2.24zm-.26 2.15c-.38.06-.78 0-1.55.07s-.45-.39-.46-.66.46-.05.86-.19c1.14-.39 1.37 0 1.4.23s.15.49-.23.55zm-2.74 2.76-1.54.1c-.67 0-2-.17-2.2.57a9.62 9.62 0 0 0 -.17 2.21 1.28 1.28 0 0 0 1.47 1.07 6.07 6.07 0 0 1 1.79 0c.64.09 1.41.07 1.58-1.47s.14-2.54-.93-2.48zm-.24 1.79c0 .44 0 .67-.59.65s-.93 0-1.49 0-.22-.43-.26-.85.63-.17 1.06-.21c1.06-.13 1.35-.03 1.31.41zm-13.06-2.85c-.13-1.22.07-2.31-.7-2.53a4.18 4.18 0 0 0 -1.72 0c-.72.12-2 0-1.93 1a12.39 12.39 0 0 0 .55 2.79c.12.21.2.47 1.38.31s1.63-.24 1.9-.28.65-.06.52-1.29zm-1.12-.16c0 .66-.54.52-1.31.57s-.58-.68-.63-1.21.52-.37 1-.44a1.89 1.89 0 0 0 .58 0c.32-.08.36.42.36 1.08zm8.73-3.37c-.57.09-2.63.09-3 .19a2.33 2.33 0 0 0 -1.14.66c-.26.31.11 1.54.09 1.93s.15 1.06 1.27 1.07a27.09 27.09 0 0 0 2.86-.17c.34-.06.59-.61.56-1.5s-.07-2.29-.64-2.18zm-.41 1.74c.06.3.08.65-.33.76a11.36 11.36 0 0 1 -1.66.08c-.81.06-.6-.56-.59-1s.87-.21 1.16-.27c1.39-.24 1.37.12 1.42.42z" fill="#1d1d1b"/></svg>