<svg height="64" viewBox="0 0 64 64" width="64" xmlns="http://www.w3.org/2000/svg"><path d="m23.36 19.37c.6-.07 1.07-.4 1-.87s-.53-.5-1.36-.2-1.27.53-1.06.8c.49.6.82.33 1.42.27zm-.06 4.12c.39.4 1.39-.13 2.06-.27s.93-.4.59-.93-1.26-.26-1.86.07-1.09.88-.79 1.13zm21.4 1.79c.33-2.06-2-3.25-2-3.25l1-3.79a1.78 1.78 0 0 0 .93-.47 2.5 2.5 0 0 0 .93-3c-.6-1.46-3.19-.6-3.19-.6-1.06-1.06-2.39-.2-2.66 1.33a2.94 2.94 0 0 0 1.2 2.59l-1.06 3.19c-.4.07-1.87.6-1.87.6a3.8 3.8 0 0 0 -.93-.86c-.46-.27-.2-.87-.13-1.4a28 28 0 0 1 .47-2.79c.2-.73-1.53-.53-1.86-.53s.06-1.6.33-2.39-.6-1.13-1.13-1.13a16 16 0 0 0 -2.59.13c-.34.13 0 3.79 0 3.79a2.73 2.73 0 0 1 -.47-1c-.07-.46-1.13-.13-1.93.07s-.2.93-.06 2.19.32 2.74.32 2.74a2.6 2.6 0 0 0 -.93.66 1.77 1.77 0 0 0 -.2 1.33s-2.06-6.38-2.53-8.57-1.53-2.6-2.72-2.6a12.36 12.36 0 0 0 -4.72 1.73c-1.4.8-.33 3.59.46 6.38s2.13 6.85 2.13 6.85l-.4-.13a2.27 2.27 0 0 0 -1.92-.35c-1.06.34-.46 1.47-.13 2.8a6.56 6.56 0 0 0 1.53 3.12 1.72 1.72 0 0 1 .33 1.79 13.28 13.28 0 0 0 -1.13 2.93 8.56 8.56 0 0 0 -.46 3c.13.67 2 2.33 2.72 3.26s-.46 2.86-1.19 5.18-1 3.33-.54 3.92 2.8-.13 4.66-.2a46.33 46.33 0 0 1 5.85.47c2.92.27 5.91.2 7.77.2a26.89 26.89 0 0 0 6.05-.73c.8-.33.2-5.05 0-6.91s-.4-4.06-1.13-4.72 0-.93.6-1.67a2.21 2.21 0 0 0 .73-2.12 65.47 65.47 0 0 1 .47-8.84 2.18 2.18 0 0 0 -.6-2.2zm-3-6.64c.2-.74.66-1.07.13-1.4s-1.52-1.24-.83-1.79.86-.27 1.26.2.73-.2 1.2-.4 2.12.06 1.46.93-2 .73-2.2 1.26-.79 2.79-.93 3.52-.2.8-.46.8a1 1 0 0 1 -.53-.2s.71-2.19.91-2.92zm-3.13 4.85a4.24 4.24 0 0 1 3.53-.27 1.3 1.3 0 0 1 1 1.27c0 .66 0 1.66-.46 1.39s-.67-.73-1.6-.07-2 2.07-2.46 1.73a20.34 20.34 0 0 1 -1.66-1.54c-.38-.43.08-1.58 1.66-2.51zm-8-6.45c.33-.13.53-.27.73.53s0 1.2.73 1.2 1.2.26 1.2-.93-.47-3.72 0-3.72 1.79-.4 1.46.53-.73 3-.26 3.06 2-.54 1.86.06-.27 2.79-.67 2.79l-4.78-.06s-.63-3.33-.3-3.5zm-1.2 6.58c.34-.73.6-1.53 1.4-1.53s3.92.14 4.85.27 1.46.06 1.13.4-1.33.79-1.13 2.06.67 1.06-.13 1.79-1.33 2.06-2.19 1.53-3-2.33-3.59-2.13c-.03-.01-.71-1.66-.37-2.39zm-9.37-7.91c.07-1 .27-1.53 1.26-1.93s2.53-.93 3.06-.46 1.53 3.85 2.26 6a60.72 60.72 0 0 1 2.13 7.18c-.13.27-1 1.06-1.26.8s-1.33-1.86-2.2-1.4-2.12 1.66-2.59 1.46c0 0-.27-1.66-.73-3.59s-2.02-7.06-1.93-8.06zm23.47 21c-.2.46-1.27 1.13-1.8 1.79s-.6.67-.73 1.13l-.13.47s-1.27-.07-1.2.2.53.53 1.46.86 1.66.73 1.8 1.33.4 3.92.53 4.45.66 3.19.26 3.33a20.69 20.69 0 0 1 -4.12.73c-1.59.06-4.85 0-6.44-.14s-4.79-.13-6.32-.4a7.2 7.2 0 0 0 -2.86-.19c-1.26.13-2.39.66-2.26.13s1.47-4.72 1.86-5.78 0-1 1.27-1.67a15.93 15.93 0 0 0 2.86-1.52c.2-.34-.07-.54-.8-.2s-1.8 1-2.33 1.19a1.11 1.11 0 0 1 -1.39-.26c-.4-.47-1.6-1.86-1.8-2.13s-1.13-.93-.73-1.86 1.4-4.52 1.73-4.92.2-1.06 1.26-.67a16.32 16.32 0 0 0 3.13.94c.46 0 .73-.34.13-.74a11.54 11.54 0 0 0 -2.93-1c-1.26-.34-2.12-.47-2.46-.87a15.72 15.72 0 0 1 -1.06-2.12c-.27-.54-.93-1.6-.27-1.2s1.87 2.13 2.6 1.86 1.19-1.06 2-1.59.8-.54 1.46.39 1.07 1.73 1.6 1.13 1.73-2.19 2.33-1.46 2.85 2.59 3.45 2.13 2.59-3.06 3.19-2.33 1.4 2.4 2.2 1.86 2.65-2.85 3.12-2.39 1.46 1.4 1.46 2 .09 7.06-.1 7.53zm-10.2-11.71c1 .06.66-.47.66-.8s-1-.33-1.73-.33-.86.13-.86.66.93.47 1.93.47zm6.13 1c.3-.2.1-.59-.45-.84s-.79.09-.7.4a.74.74 0 0 0 1.15.5zm.4-1c.44-.05.4-.35.2-.75s-.5-.4-.9-.25a2.1 2.1 0 0 0 -.15.7.85.85 0 0 0 .85.3zm1.74 0c.45.05.65-.4.65-.65s-.63-.57-.85-.35-.25 1 .2 1zm-4.29 6c-.79 0-2.49-.1-3.74-.2s-.69 1.4-.74 2.84a52.77 52.77 0 0 0 -.1 5.34c.15 1.29.65.54 2.39.69s2.79.4 3.49.35.65-1.69.6-3 0-3.49.1-4.73-1.2-1.29-2-1.29zm.9 1.94c0 .51-.09 1.24-.14 2-.06-.18-.44-.32-1-.35-.79-.05-1.74-.05-2.14-.1s-.8 0-.8.35c0 .55 1.1.3 2.1.35s1.39.3 1.74 0a.5.5 0 0 0 .1-.13v1.37c0 1.2.35 2.4-.15 2.4s-1.49-.2-2.24-.2-2 .25-2-.35.1-5.74.1-5.74c0-.19 0-.59.45-.59s2.79.2 3.29.2.74-.05.69.79zm-2.64.3c.05.2.55.45 1.3.55s.74-.5.74-.5a3 3 0 0 0 -1.39-.6c-.6 0-.69.4-.65.55zm.4 3.44a4.62 4.62 0 0 0 1.64-.2c.55-.15-.2-.4-.7-.4s-1.19-.15-1.74-.15-.7.1-.7.35.95.35 1.5.4zm-.25 1.75c1.44 0 1.74-.1 1.84-.45s-1.69-.6-2.39-.6-1.08.28-1 .55.1.5 1.55.5z" fill="#1d1d1b"/></svg>