<svg height="64" viewBox="0 0 64 64" width="64" xmlns="http://www.w3.org/2000/svg"><path d="m39 43.25c-.5 0-.94.82-.94 1.38s.32 1.25.82 1.19a1.14 1.14 0 0 0 1-1.19c.01-.81-.24-1.44-.88-1.38zm11.33-18.25c-.63-.87-3-3.5-3.32-3.93s-.12-3.57.07-5.88a2.61 2.61 0 0 0 -2.38-3.06 45 45 0 0 0 -7.62-.5c-3.44.06-8.25-.06-12.75.19s-6.13 1.06-6.57 2 .25 7.87.25 7.87c-.5.56-3.43 2.19-4.25 3s-.5 2.88-.62 5.25.12 3.75 1.5 4.56a2.43 2.43 0 0 0 3.06-.56c.44-.5.56 1.5.56 3.69s.13 9.75-.06 11.81 5.06 1.44 6.81 1.38 6.57 1.56 10 1.56 7.13-.38 9.63-.5 2.31-3.38 2.25-4.5a41.87 41.87 0 0 1 0-6.25c.25-1.69.75-6.06.75-6.06a7.19 7.19 0 0 0 2.37 0c.69-.25.69-2.94.82-5s.17-4.19-.5-5.07zm-29.33-10.75c2.44-.18 7.31-.37 12.19-.62a43.71 43.71 0 0 1 10.56.56c1.38.38 1.38.69 1.38 1.63s.5 4.56-.25 4.56a34.51 34.51 0 0 0 -3.88 0c-2.44.12-4.56.69-8.44.5-2.43-.12-6.43.12-8.62.19s-4.25 1.06-4.31-1-1.12-5.63 1.37-5.82zm-1.12 8.88c.75-.19 5.12-.13 8.68-.13s7.69-.37 10.57-.62a33.84 33.84 0 0 1 5.37-.13c1.13.07 1.81 1.57 2.13 2s-3.5.25-6.07.38-7.56.12-11.62.06-10 0-10.88.06.83-1.39 1.77-1.62zm17.93 8s-.87.56-1.43.87-.38-.5-1.38-1.12a8.36 8.36 0 0 0 -2.81-.81v-3.88l5.12-.06s-.18 1.62-.18 2.62a6.86 6.86 0 0 0 .63 2.38zm-6.18-1a13.53 13.53 0 0 1 -1.69.75c-.75.25-.88.94-1.5 1.06s-.69 0-.88-.37a7.37 7.37 0 0 0 -1.18-1.25l.43-4.19 4.19.12zm-15.87 2.69c-.68.43-.68-.57-.62-1s-.13-3.5-.19-4.5.5-.75.94-.75h3.11s-1 3-.18 3.68.87-.93.87-1.56a19.36 19.36 0 0 1 .44-2.5h5.44s.12 3.75.06 4.06 0 0-.94.07-1.69 1.81-2.36 1.81-1.44-1.13-3.13-1.13-2.75 1.38-3.44 1.82zm8.38 16.25a11.21 11.21 0 0 1 -2.5 0c-.63-.19-1.69.12-1.5-1a39.9 39.9 0 0 0 .25-5.07c0-.18 1.37 0 1.37 0s.32 2.32.32 3.13-.13 2.06.25 2.06.56-1.87.56-2.62a25.46 25.46 0 0 1 .31-2.63l.81.19s.13 2.19.13 3.25zm1.86-.07c-.56 0-1.43-.06-1.31-1.12s.25-2.81.31-3.25.13-1.75.13-1.75c.37 0 1.06-.06 1.06.19v3.87c.01.88.39 2.06-.19 2.06zm.88-.06a21 21 0 0 1 .19-3.25c.18-.69.56-2.75.56-2.75a9.56 9.56 0 0 1 1 .19s.06 1.12 0 2.12.12 4.13.12 4.13-1.86-.13-1.86-.44zm4.12.94s-1.5.44-1.43-1.56.43-5.13.43-5.13l1.13.13s-.19 3.31-.25 3.93a25.25 25.25 0 0 0 .12 2.63zm4.38.25a12.41 12.41 0 0 1 -2.13 0c-.75-.06-1.68.44-1.75-1.19a11.54 11.54 0 0 1 .57-3.81 12.06 12.06 0 0 0 .31-1.88c.25 0 1.12.13 1.12.13a6 6 0 0 1 .19 2c-.06 1.25-.19 2.69.19 3.06s.81.88.81-.62a29.84 29.84 0 0 1 .06-4.38c.19 0 .75-.12.75.19s-.12 3.44-.12 4.5.38 1.94.01 2zm7.44-.44c-.07 1.06-1.44.25-2.94.44a24.82 24.82 0 0 1 -3.38.12c-.43-.31.32-3.93.32-4.87s.31-5.13.31-6.31.75-.75 1.25-.75 2.75.37 3.69.5.5 2.87.62 5.81.2 4 .14 5.06zm2.68-13.37c-.18 2.56-.43 4.81-.56 7.43s0 4.69 0 5.25-.37 1.07-.69.75-.43-2.12-.43-5.68.62-7-.82-7.07a41.53 41.53 0 0 1 -4.31-.37c-1.19-.19-2.69-.25-2.75.62s-.31 4.63-.31 4.63a70.62 70.62 0 0 0 -9-.56c-3.56.12-6.5.62-6.38-.44a16.27 16.27 0 0 0 -.12-3c-.13-2.94-.63-5.13-.06-4.69s1.81 1.56 2.56 1.13 1.87-2.07 2.37-1.94 2.19 1.94 3 1.87a7.29 7.29 0 0 0 2.75-1.31 2.53 2.53 0 0 1 3.25-.25c1.38 1 1.13 2.31 2.25 1.94s2.44-2.31 4-2.06 1.51 1.56 1.75 1.93.81.94 1.25.5 1.81-1.93 2.13-1.93.32.68.13 3.25zm2.94-3.63c0 .19-.31-.31-.56-.75s-.88-.75-2.06-1-2.25 1-2.63 1.13-1.31-.75-2.19-1.32-2.5.07-2.75-.06-.12-.81-.18-1.44a19.53 19.53 0 0 1 .5-3.12c.87-.06 4-.25 4.31-.25s-.5.94-.56 2-.07 2.94.81 3.06.25-1.75.37-2.94a4.39 4.39 0 0 1 1.07-2.18l3.25-.07c.37 0 .56.75.68 2.5a40.53 40.53 0 0 1 -.05 4.44zm-23.82-16.62c-.23-.09-.38.41.42.45s1.45.09 1 1-.67 2.17-1.5 2.55a1.49 1.49 0 0 1 -2-.59c-.63-.75-.38-1.12.2-1.08s.34.71.92.67.79-.5 1-.92.42-1.17-.37-.79a1.33 1.33 0 0 1 -1.92-.71c-.25-.79.71-1.67 1.46-1.92s2.41 0 2.12.88-.54.75-1.33.46zm2.71-1c-.55.06-.54.58-.42 1.54a19 19 0 0 1 .29 2.29c0 .67 0 .75.54.75s.71-.25.75-.83-.08-.75.34-.92 1.46-.67 1.46-.33a6.5 6.5 0 0 0 -.05 1.33c.09.58 0 1.29.42 1.29s.92-.08.83-1.71.38-3.46-.29-3.54-1 .13-.87.75.25.75-.34.75-1.5.13-1.62.13-.29-.46-.29-.71-.08-.86-.75-.79zm7.58.16a1.94 1.94 0 0 0 -2 1.34 1.8 1.8 0 0 0 3.5.83 1.58 1.58 0 0 0 -1.5-2.17zm-.12 2.71a.64.64 0 0 1 -.67-.87c.17-.42.34-.57.75-.5a.66.66 0 0 1 .62.75.63.63 0 0 1 -.7.62zm4.66-3.33c-.8.23-2.62.83-2 1.41s.75.38.79 1.05-.29 2.16.25 2.2 1.17-.08 1.13-.91 0-1.21.21-1a1.34 1.34 0 0 0 1.83-.5c.5-1-.04-2.86-2.21-2.25zm1 1.87a.48.48 0 0 1 -.54-.41c0-.21.09-.36.29-.38.5-.04.59.75.29.79z" fill="#1d1d1b"/></svg>