<svg height="64" viewBox="0 0 64 64" width="64" xmlns="http://www.w3.org/2000/svg"><path d="m36.75 39.67s1.83-4.08 2.41-5.75-.16-4.25-3.41-6.17-12.09-2.33-17.34-1.83-8.75 2.92-9.58 5.33 3.42 10.17 3.42 10.17c-1.34 0-5.59.67-5.59 4s2.17 5.83 15.75 5.67 19.17-3.92 19.25-6.92-4.91-4.5-4.91-4.5zm-25.92-8.08c.25-1.34 3.92-3.59 7.58-4.09s8.67-.83 11.42-.08 7.25 1.42 6.67 3.67-.67 2.83-.67 2.83-4.75-3.25-7.83-3.33-8 .16-10.92 1.25a8.9 8.9 0 0 0 -3.92 2.41s-2.58-1.33-2.33-2.66zm20.85 2.48c-.37-.44-.87-.75-1.62 0s-1.31.81-1 1.25.62.68-.13.68-2.68 0-1.81-.56 2-1.44 1.19-1.69-1.38.44-1.81 1.07-.07 1.31-.63 1.31-2.5.31-1.44-.69 2.38-1.87 1.63-2.37-1.56.56-2.13 1.31-.31 1.5-1.31 1.56a5.68 5.68 0 0 1 -1.5-.06 9.78 9.78 0 0 1 1.63-1.94c.68-.5 1.18-.69 1.25-.94s.12-1 .68-1.06a8.73 8.73 0 0 1 4.82.25c2.31.88 4.25 1.63 4 2.25s-.25.44-1.19.88-2 1.12-2 .5 1.75-1.32 1.37-1.75zm-15.37.37c.5.25.62.38 1 .13l1.06-.69s-1.06.87-.62 1.12a.89.89 0 0 0 1.25-.06c.5-.44 1.56-1.62 1.87-1.94s.75-.93 1-.93 1.56-.07 1.19.37a28.32 28.32 0 0 0 -2.13 2c-.5.69-.75 1.44-1.25 1.44a12.22 12.22 0 0 1 -3.06-.63c-1.37-.43-1.44-.75-1.06-1.06s.62-.87 1.25-.81c0 0-1 .81-.5 1.06zm-5.06.73a24.42 24.42 0 0 0 12.66 2.83c7.67-.25 11.17-1.58 13.09-3 0 0-3.67 7.75-6.34 8.67a28.21 28.21 0 0 1 -9.91 1.42 7.79 7.79 0 0 1 -6.42-3.75c-1.08-2.09-2.75-4.5-3.08-6.17zm27.25 10.83c-1.09.92-5.92 2.75-9.92 3.09a71.5 71.5 0 0 1 -15.83-.92c-5.34-.92-4.34-2.83-3.5-3.67s4-1.5 4-1.5c1.08 2.84 4.33 3.5 7 4a25.08 25.08 0 0 0 10.33-1c3.17-1 4.92-4.41 4.92-4.41a10.68 10.68 0 0 1 3.66 1.5c1.25 1 .42 2-.66 2.91zm17.68-6.68a5.55 5.55 0 0 0 -5.12 0 4.11 4.11 0 0 0 -2.56 4.06c.12 1.37.16 1.93-.32 2.56s-2.56 2.81-3.87 4.19-1.63 2.37-1.13 3.12 2.57.82 3.5.19 3.44-4.75 4-5.87 2.25-1.44 4.94-3.44 1.69-4.25.56-4.81zm-9.25 12c-.75.93-2.12 1.37-2.5 1.06s.38-1 1.82-2.56 2.93-3.32 3.43-3.38a53.16 53.16 0 0 1 -2.75 4.88zm7.19-7.63c-2.62 1.38-2.81 1.63-3.56 1.69 0 0-1.25-2.88 0-4.13a5.24 5.24 0 0 1 4.5-1.12c.87.31 1.69 2.19-.94 3.56zm-27.25-25c1.06.56.56 1.69-.06 2.69s-.44 1.62 0 1.75 1.12-.94 1.75-2.5a2.09 2.09 0 0 0 -.94-2.81c-.62-.32-.44-1.25.31-2.19s.9-1.75.19-1.75-1 1.25-1.75 2.44-.56 1.81.5 2.37zm-8.31 4.38s.12.87.81.43.63-1.68.13-2.37-.82-1.19-.44-1.69.69-1.31.31-1.56-1.31.75-1.56 1.5-.25 1.56.19 1.87a1.81 1.81 0 0 1 .56 1.82zm4.25-3.94c1 1-.63 2.19-.38 3.06s1.13.25 1.88-1.44-.75-2.93-1.56-3.25.68-2.93 1.12-4.5-.63-3.2-.69-2.81a25 25 0 0 1 -1.62 6.06c-.88 2.13.25 1.88 1.25 2.88z" fill="#1d1d1b"/></svg>