<svg height="64" viewBox="0 0 64 64" width="64" xmlns="http://www.w3.org/2000/svg"><path d="m34 9c0-1.37-1.9-.75-2.62-.5s-.66 1.88-.57 3.07 0 6.5.16 7.9.94 1 1.34 1.13a7 7 0 0 0 1 0c.44 0 .72-3.1.72-4.88s-.03-5.31-.03-6.72zm-1 7.69c-.09 1.53-.19 2.72-.53 2.69s-.47-2.07-.47-3.85-.09-5.18-.09-5.18c0-.41-.06-.57.28-.66s.81-.16.81.31.08 5.19 0 6.72zm-6.22-5.34c-.62.37.07 4.53.16 6.18s1.1 1.35 1.47 1.82c.12.15.44 0 .87-.07s.53-2 .53-3 0-3.84.07-4.9-2.49-.38-3.12 0zm1.88 6.56c-.28 0-.78-3-.75-3.72 0-.31-.5-1.62 0-1.78s.93-.44.87.34 0 3.38 0 4.07.14 1.18-.14 1.12zm12.13-8.72c-.12-3.69-1.68-4-3.56-4.19a75.34 75.34 0 0 0 -11.37-.06c-2.32.37-2.19 1.5-2.5 3.75a117.82 117.82 0 0 0 -.07 12.44c.13 1.87.82 1.81 1.75 2.37s4.57 2.75 4.69 3.88.13 6.81.13 6.81c-1-.06-1.63 1.44-1.75 3.5s.18 14.56.18 18.31 3.25 3.13 5.57 3.25 1.68-5.12 1.75-9.37-.32-12.82-.25-14-1.36-1.75-1.36-1.75.25-5.82.38-7.25 2.81-2.44 4.31-3.44a4.2 4.2 0 0 0 2.06-3.56c-.02-1.25.17-7 .04-10.69zm-7.12 44.12c-.13 3.44.12 4.13-.38 4.13s-1.29.25-1.29-1.69 0-12.5 0-14-.06-5.62.44-5.81 1.19.25 1.12 2.12.23 11.82.11 15.25zm4.94-31.68a60.37 60.37 0 0 0 -5 3.68 4.62 4.62 0 0 0 -1.19 3.25c0 1.63.56 5.44.12 5.44s-1.37.19-1.37-.19c0 0 .44-6-.25-7.12s-5-4.5-5.75-5.31a6.39 6.39 0 0 1 -1.17-3.5c-.06-1.07.13-10.13 1.13-10.82s7.69-.43 10.19-.37 3.93-.06 4.06 2.06-.06 9.31-.06 10.38.29 1.81-.71 2.5zm-1.28-9.72c0-1-1.32-.6-1.94-.5s-.35.94-.35 1.53v4.66s1.28 1.09 1.91.9.5-.94.47-1.72-.06-3.87-.09-4.87zm-1 5.31c-.22 0-.35-.59-.35-1.72s-.09-2.4.13-2.47a8.9 8.9 0 0 1 .4 2.66c0 .72.03 1.53-.18 1.53z" fill="#1d1d1b"/></svg>