<svg height="64" viewBox="0 0 64 64" width="64" xmlns="http://www.w3.org/2000/svg"><path d="m39 22c3.21-5.29 3-11.54-.07-14.75s-10-2.57-12.53-.63-4.53 6.38-3.34 11.25 6.44 9.38 7 9.75.19 5.22.19 5.22c-.57.09-1.25 1.09-1.29 2.59s0 15.69-.06 18.13 0 2.78 1 4.22 3.88 1.28 5 1.12 1.1-2.12 1.1-4.19-.25-17-.25-18.43a5.89 5.89 0 0 0 -.75-3.07c-.32-.4-.53-.5-.5-1.06a39 39 0 0 1 0-4.31c.15-.34 1.25-.56 4.5-5.84zm-5.78 11.15c.65.16.56 1 .15 1.35s-.78.12-1.34-.44.61-1.06 1.19-.91zm1 21.56c0 2.47-.22 2.57-1.13 2.6s-.59-6.38-.65-9.13.12-9.43.15-10.62.23-1.15.41-1.28c1.47-1.13 1.25 15.97 1.25 18.43zm-2.5-27.71a41.94 41.94 0 0 1 -5.47-6.84 11.48 11.48 0 0 1 -.63-9.44c1.44-3.32 5.38-4.26 7.56-3.94s6.5 2.34 6.6 6.56-1.25 5.91-3.16 8.41-3.47 5.59-4.9 5.25zm-1.16-18.92c-1.1.19-2.4 1.42-3.27 2.5a6 6 0 0 0 -.79 4.81c.43 1.63 1.88 2.24 2.27 1.9.73-.65.21-1.38-.34-2.88s.19-2.56 1-3.5a2.61 2.61 0 0 1 2.84-.81c.91.29 1.14.48 1.56-.67s-2.17-1.54-3.27-1.35z" fill="#1d1d1b"/></svg>