<svg height="64" viewBox="0 0 64 64" width="64" xmlns="http://www.w3.org/2000/svg"><path d="m55.41 21.81c-1.56-5.75-7.94-9.18-12.13-9.5s-7.28 1.32-11.18 2.69-4.94-.12-8.07-2.19-6.19-1.22-8.25-.75c-6 1.38-8.37 7.94-8.37 11.38s1.81 12.62 4.69 15.87 10 2.25 11.81 2.63 4.69 2.5 6.62 5.37 4.57 5.38 10.32 5.19 10.5-4.19 13.5-10.31 2.65-14.63 1.06-20.38zm-3.06 20.32c-.82 2-1.07 2.37-3.94 5.68s-5.69 3.07-8.88 2.88-4.31-1.63-7-4.5-4-4.75-6.87-5.56-6.81-.5-10.19-1.13-4.06-5.5-3.94-6.44 1.63.63 2.94 1.75a9 9 0 0 0 5.19 1.94 30.87 30.87 0 0 1 8.5 1c2.81.88 4.37 3.5 6.69 6.25s6.68 1.69 11.25.5 6.75-5.31 7.37-5.81-.31 1.44-1.12 3.44zm-.07-5.57c-2.37 3.82-3.93 5.75-8.06 6.75s-6.37 1.57-8.69-.87-4.87-7.25-9.81-7.19-9.94.06-13.06-3.44-4.56-9.68-2.5-12.87 7.19-6.81 11.06-5.13c1.94.85 4.94 2.69 7.75 2.94a16 16 0 0 0 8.03-1.56 10.38 10.38 0 0 1 7.19-.56c2.25.56 8.06 2.81 9.44 8.43s1.03 9.69-1.35 13.5zm-29.06-19.37c-1.94 0-3.94.24-5.19.19-4.18-.19-5.43 2.93-5.12 5.87s3.69 4.94 6.56 5.56 5.31.75 8.31-1.18 2.5-4.19 1.75-7.25-4.37-3.19-6.31-3.19zm5.31 5.81a5.48 5.48 0 0 1 -5.53 4.31c-3.44.07-7.5-1.87-8.31-3.68s1.69-5.94 5.12-4.57c1.52.61 2.75-.18 4.63 0s4.34 2.13 4.09 3.94zm-7.25-2.75c-3.12-.81-4.06.44-4.5 1.31s.5 2.88 2.82 3.75 3.62-1.18 4.12-1.75.69-2.5-2.44-3.31zm.88 3.19a1.89 1.89 0 0 1 -2.69.37c-1.31-.75-2.44-2.31-.19-2.75 1.13-.21 1.94.82 2.63.82s.94.87.25 1.56z" fill="#1d1d1b"/></svg>