<svg height="64" viewBox="0 0 64 64" width="64" xmlns="http://www.w3.org/2000/svg"><path d="m53.64 25.52c-.44-.07-.5-.25-.32-.82a1.56 1.56 0 0 0 -.25-1.37c-.18-.25.44-.81.88-2a2.8 2.8 0 0 0 -1-3.69c-1.63-1.19-4.63.25-5.56.94s-.38-1.5-.57-2.19-1.62-1.25-3-1-3.25 1.94-3.62 2.19-.63-1.31-.56-2.06-1.13-1.88-2.82-1.63-4.06 3.11-4.68 3.69-1.44-.38-1.94-.58-2-1.5-3.31-.56-2.25 4.06-2.57 4.88-.68.37-1.43-.19-1.69-1.13-3.32.37-1.31 4.94-1.75 6.07-.56.31-1.25-.32-1-1.62-2.5-1.18-.34 6.14-1.56 6c-1.06-.13-2.75 1.81-3.25 3s-1.5 6.06-.62 9.31 3.25 5.75 6.56 5.81 13.12-3.42 19.8-5.8a80.49 80.49 0 0 0 17-8.39c3.69-2.56 2.5-5.06 2.31-5.43s.63-1.07 1.31-2.44-1.55-2.55-1.98-2.61zm-5.42 10.71c-3.63 2.41-10.71 5.58-15.58 7.5a95.37 95.37 0 0 1 -14.55 4c-3.66.75-4.66.25-6.41-1.17s-1.84-5.71-1.21-8.29 2.13-4.2 2.67-4.33 1.5 3 2.12 4.16-.58 1.5-1.33 2.67.37 1.87.54 2.33-.13.42-.58.71-.67-.17-1.25-1.21-.38-4.08-.25-4.62.58-2.13-.5-1.09-1.09 4.11-.84 6.11a2.47 2.47 0 0 0 3.59 2.08c1.41-.75 3.79-5.58 5.62-8.62a26.58 26.58 0 0 1 10-9.59 20.51 20.51 0 0 1 15.92-1.87 9.53 9.53 0 0 1 6.33 6.16c.49 1.27-.67 2.65-4.29 5.07zm4.08-14.17a4.31 4.31 0 0 0 -2.75-.17c-1.21.46-3.46 1.46-4 .79s-.46-2.5-2.08-3a5.92 5.92 0 0 0 -4.71.8c-1 .75-.79 1.37-2 1s-2-1.75-3.92-1.59-2.58 1.46-3.66 2.92-1.18 2.08-1.84 1.79-2-1.21-3.45-.62-2 2.12-2.25 3.7-.09 2.3-1.25 2.63-4.05-.33-6.25 1c0 0-.38 0-.38-1.08s.38-2.88.83-2.92 1.21.5 1.88 1.17a1.28 1.28 0 0 0 2.17-.34 21.4 21.4 0 0 0 1-3.91c.21-.75.75-2.09 1.29-2.34s.87.25 1.92.71 1.08.71 1.58.25 1.42-3.29 1.92-4 1.08-1.92 1.83-1.58 3 2 3.92 1.62a12.68 12.68 0 0 0 3.45-2.75 3 3 0 0 1 2.5-1c.75.21.67.5.55 1.34a2.69 2.69 0 0 0 1.29 2.37c.62.21 1.12-.37 1.91-1s2.63-1.71 3.42-1.29.38 1.54.42 1.87.5 1.88 1.91 1.25 3.84-1.54 4.63-1.25a1.43 1.43 0 0 1 1 1.59c-.04.62-.38 2.12-.88 2.04zm-31.66 21c-.36 0-1.59.67-1.25 1.21s1 .54 1.7.16a.73.73 0 0 0 -.45-1.37zm4.36-2.54c-.5 0-1.71 1.37-.5 1.91s1.63-1 1.58-1.25-.08-.7-1.08-.66zm-2-3.46a1 1 0 0 0 -1.17.17.76.76 0 0 0 .34 1.2.71.71 0 0 0 1.12-.29.69.69 0 0 0 -.29-1.08zm4.29-2.13a.86.86 0 0 0 -.71 1.38c.55.92 1.09.5 1.59.17s.34-1.48-.87-1.55zm.25-2.83c.34-.29.34-1.12-.62-1-.55.05-1.25.54-.79.87a1.21 1.21 0 0 0 1.42.13zm5.17-1.71a.93.93 0 0 0 -.38 1.5c.55.46 1.21.17 1.84-.08s1.42-2.46-1.45-1.42zm-1.13 6.84c-.69.23-1.45 1.25-.75 1.5a2.21 2.21 0 0 0 2.05-.63c.38-.42-.04-1.29-1.29-.87zm.63 3.54c-.56 0-.08.37-.71.71s-.92.79-.29.87a1.49 1.49 0 0 0 1.42-.5c.3-.37.05-1.08-.41-1.08zm7.25-6.88c-.73 0-1.46.46-1.25 1.29s1.29 1 2 .38-.12-1.71-.74-1.67zm1.87-4.41c.25-.17.63-.46.25-.67-.78-.44-1.45.08-2 .67s-.08 1 .59 1.45 1.75 0 1.66-.41-.74-.88-.49-1.04zm4.85-1.48c-.67-.1-.84.08-.38.66s1 .55 1 .3a.81.81 0 0 0 -.62-.96zm-.79 3.66c-.63.32-.8.55-.42.88a1.13 1.13 0 0 0 1.37 0c.25-.23-.12-1.27-.95-.86zm-.88 3.63c-.39-.16-1.17.33-.67 1s.84.54 1.13.25a.79.79 0 0 0 -.46-1.23zm5.38-4.13c-.55-.22-1.46.59-1.21 1.21s.71.79 1.08.54 1.17-1.31.13-1.73z" fill="#1d1d1b"/></svg>