<svg height="64" viewBox="0 0 64 64" width="64" xmlns="http://www.w3.org/2000/svg"><path d="m41.05 27.23c-.83-1-3.25-1.42-3.25-1.42a17.28 17.28 0 0 0 1.42-3c.25-1 .16-2.58-.42-2.58s-1.58 1.83-2.25 3-1.83 1.5-2.58 2.08-.67.08-1-.83a3.47 3.47 0 0 0 -1.25-1.48c-.42.08-1.09 2.41-1.42 2.66s-1-.58-1.75-1.75-.42-3.16-.75-3.58-1.42.67-1.8 2.48a4 4 0 0 0 1.08 3.33c-2.33-.08-3.25 1-5.5 3.92s-.67 12.17 4.58 13.33 11.75-.5 13.92-2.33a7.82 7.82 0 0 0 3.33-5.92c.39-2.91-1.53-6.91-2.36-7.91zm-5.17-2s2.25-3 2.25-2.59-.08 2-.75 2.42-2 .67-1.5.17zm3.42 13.77a11.67 11.67 0 0 1 -7.25 3c-3.42.25-8-.59-9.17-5.5s1.75-9 5.25-9.17c1.21-.06 2.17.33 1.92.83s-.25 1.09-1.42 1.42-2 .08-2 .67 1 1.16 1.84 1.16 1.33.25 2-.75 1-2.16 1.16-1.66 2 2.5 3.09 2.58 2.41-.58 2.16-1.17-.75-.33-1.66-.91-2.34-1.92-1.5-2.17a9.82 9.82 0 0 1 4.75.5 6.59 6.59 0 0 1 2.91 5.58c-.16 2.4-.33 4.07-2.08 5.59zm-13.5-6.11c0-.83 0-1.41-.42-1.5s-.83.84-.66 2 .66 3.09 1.16 3.09 1.25-.25.67-1a4.27 4.27 0 0 1 -.75-2.59z" fill="#1d1d1b"/></svg>