<svg height="64" viewBox="0 0 64 64" width="64" xmlns="http://www.w3.org/2000/svg"><path d="m51.89 39.22c-.88-.66-5.38-2.25-7.75-4.16s-4.79-4.71-7.42-6.38-6.5-3.79-9-5.62-6.54-4-7.33-4.67-3-2.21-3-2.21c-.5-.17-1.08.08-2 1s-4.88 9.21-2.88 15.29 5.09 9.63 8.63 12 10.75 4 14.62 3.21a35.08 35.08 0 0 0 9.84-3.46c3.29-1.62 7.16-4.33 6.29-5zm-30.71-18.87a14.16 14.16 0 0 1 5.42 3.25 23.15 23.15 0 0 0 5.66 4c1.79.92 4 1.79 5.13 2.79s6.58 6.08 7.37 6.63-2 1.7-3.25 2.5a22.66 22.66 0 0 1 -8.83 2.66c-4.46.5-7.71-1.12-10.75-3.46s-4.33-8.45-4.25-10.41 2.08-6.88 2.37-7.38a1.09 1.09 0 0 1 1.13-.58zm27.54 20.12a41.46 41.46 0 0 1 -5 2.5 46.82 46.82 0 0 1 -7.83 2.63c-2.25.58-6.63 0-10.21-1.09s-5.75-3.2-8.25-6.37a18.75 18.75 0 0 1 -3.38-12 29.07 29.07 0 0 1 2.84-8.54c.37-.5 1.37.08 2.12 1s-.5 1.62-1.54 4a21.48 21.48 0 0 0 -.92 10.62 17 17 0 0 0 7.38 9.38c3.79 2.21 9.87 1.16 12.46.83s10.25-4.43 10.61-4.67a3.78 3.78 0 0 1 2.34.42c.71.38.01.75-.62 1.29zm-26.21-12c.84.38 2.17-.54 2.59-1.08s-.17-1.42-.46-1.5-.42.5-.42.5a3.42 3.42 0 0 1 -.54 1c-.38.46-.83.17-1.17-.21s-.16-1.25.13-1.33 1.19-.14 1.25-.38c.29-1.16-2.21-.66-2.63.38a2.21 2.21 0 0 0 1.25 2.62zm1.38 5.53c-.63 1-1.21 1.42-.17 2.55s2.71.41 3.29-.09.13-2-.41-1.87-.42.54-.25.71-.34.5-.5.7-.3.09-.92-.25-.29-.66 0-.83.59-.07.83-.33c.5-.59-1.25-1.53-1.87-.59zm7.29-.95a1.83 1.83 0 0 0 .82-2.37c-.46-.71-1-.62-1-.17s-.12 2.13-.75 1.75-1-1-.54-1.41.88-.25.38-.84c-.26-.3-.84-.12-1.17.5s-.75 1.09-.13 2a1.56 1.56 0 0 0 2.39.55zm-.25 5a1.89 1.89 0 0 0 1.75 1.79c1 0 2.37-.83 2.08-1.75s-.5-1.17-1-1-.33-1.33-1.62-.83a1.69 1.69 0 0 0 -1.21 1.84zm2.5-.09c.5.38.37.38-.38.8s-.41-.05-.95-.55.17-1 .41-1.12c.54-.09.42.55.92.91zm4.12-.29a1.67 1.67 0 0 0 1.45-2.03c-.12-.42-.79-1.08-1.42-.54s0 .62.42.91-.21.55-.71.55-.66-.34-.75-.71.75-.67.88-1.13c.33-1.16-1.09-.62-1.88.71s.51 2.5 2.01 2.29z" fill="#1d1d1b"/></svg>