<svg height="64" viewBox="0 0 64 64" width="64" xmlns="http://www.w3.org/2000/svg"><path d="m37.75 6.4c-.36-1.78-4-4.19-6.66-3.77s-6 1.68-7.61 4.77-2.78 7.72-1.26 12.18 5.09 8.24 6.4 9.66 1.1 7.19 1.1 7.19c-1.36.21-1.41 1.83-1.36 4.46s.21 14.75.21 17.22.52 3 1.1 3.14 2.15 0 3.46.16 1-1.47 1.16-4.77.05-16.33.05-18.27-1.34-1.89-1.34-1.89a15.46 15.46 0 0 1 .37-3.83c.42-1.21.84-2.36 3.57-5.93s4.14-7.3 5.35-13-4.54-7.32-4.54-7.32zm-.36 2.73a29.27 29.27 0 0 1 -.69 8.51c-1 4.14-3.78 6.56-4.88 6.51s-1.26-.53-2.31-1.89-1.41-3.78-1.36-7.26 1.26-5.25 1.78-5.3 2 0 1.74.21c-.9.52-1.58 2.2-2.26 5.14a4.65 4.65 0 0 0 1.94 5.15c.94.68 2.41 1.1 3.94-1.84s.05-7.56-.58-8.35.79-1.31 1.36-1.36 1.26.17 1.32.48zm-4.39 1.63c1 .42 1.26 4.73.73 6.46s-1.15 2.1-2.09 1.15-.74-2.46-.27-4.41a6 6 0 0 1 1.63-3.2zm-2.47 27c-.73-.21.46-.67.69-.52 1.07.76.08.76-.66.55zm2.47 21.24c0 .78-.21 1-.79.94s-.37-3.36-.37-4.93-.31-14.23-.31-14.86 0-.84.58-.84c1.26 0 .36 2.21.31 5.3s.58 13.55.58 14.39zm7.24-44.51a22.24 22.24 0 0 1 -2.46 8.29 23.63 23.63 0 0 1 -3.52 5 11.1 11.1 0 0 0 -2.21 3.78c0 .68.32 1.47-.47 1.2-.33-.11-.63-4.2-2-5.14a18.24 18.24 0 0 1 -5.58-8.83c-.89-3.88-1.05-8.66 1.52-11.18s4.31-3.3 6.48-3.15 4.57 1.89 3.78 2.21a14.88 14.88 0 0 0 -2.31 1c-.31.27 0 .74-.89.37a4.8 4.8 0 0 0 -4.15.47c-1.26.95-2.15 4.78-1.94 8s1.89 7 3.78 8.45 3.62.9 5.25-1.57a20.88 20.88 0 0 0 3-7.24 29.06 29.06 0 0 0 .63-5c0-.84-.15-1.37.11-1.31s1.43 1.5 1.01 4.6z" fill="#1d1d1b"/></svg>